<svg width="710" height="13" viewBox="0 0 710 13" fill="none" xmlns="http://www.w3.org/2000/svg">
<path fill-rule="evenodd" clip-rule="evenodd" d="M0 13L-2.94017e-07 6.27368L710 6.2822L710 13L709 13C709 9.81139 707.293 6.99997 704 6.99997L6 6.99997C2.70698 6.99997 1 9.81139 1 13L0 13Z" fill="white"/>
<path fill-rule="evenodd" clip-rule="evenodd" d="M-2.74608e-07 6.71771L-2.94017e-07 0L1 -4.37114e-08C1 3.18862 2.70698 6 6 6L704 5.99997C707.293 5.99997 709 3.18859 709 -3.1945e-05L710 -3.10351e-05L710 6.72633L-2.74608e-07 6.71771Z" fill="white"/>
</svg>
