<svg width="344" height="136" viewBox="0 0 344 136" fill="none" xmlns="http://www.w3.org/2000/svg">
<path d="M335.994 132.96C334.36 132.905 332.726 132.58 331.201 131.982C329.948 131.385 328.859 130.571 327.933 129.485C327.007 128.182 325.918 126.553 324.665 124.49L282.781 59.3948L308.326 19.382C312.792 12.3784 316.713 7.65509 320.035 5.21198C323.358 2.66028 327.987 1.35729 333.87 1.41158V0.217166H278.424V1.35729C288.391 1.35729 294.001 2.5517 295.145 4.99481C296.289 7.43792 300.918 11.9984 296.561 18.7848L276.627 49.6766L248.196 5.59202C246.889 3.52894 246.889 2.33453 248.196 1.95449C249.449 1.57445 253.806 1.41158 261.268 1.41158V0.217166H189.156V1.35729C198.742 1.35729 204.897 2.82315 207.62 5.75489C210.289 8.68663 211.65 13.1385 211.65 19.1649V116.564C211.65 116.564 211.324 120.798 208.437 117.324L121.566 0.217166H68.0266L16.7207 0V1.46587L33.9316 1.52016L35.2388 1.46587V115.369V121.667C35.2388 128.508 28.7574 129.485 28.7574 129.485C16.5573 129.485 9.69474 121.884 9.69474 110.809C9.69474 104.782 11.6555 99.1904 13.9975 92.404C14.9234 89.798 15.8493 87.0291 16.7752 84.0431L0 119.767C4.79291 127.693 12.3635 136 28.2673 136C51.0336 136 54.7916 119.061 54.7916 98.4303V97.8331V5.59202C54.7372 4.77764 54.8461 4.01756 55.1729 3.31178C55.2818 2.93174 55.4997 2.5517 55.8265 2.28024C56.0988 2.00878 56.4801 1.79162 56.8613 1.73733C57.7872 1.52016 58.7131 1.41158 59.639 1.41158H67.9721H68.8436C72.2749 1.41158 75.107 1.46587 77.2856 1.57445V115.424C77.2856 121.396 76.4142 125.902 74.6168 128.834C72.9829 131.765 68.7346 133.231 61.9265 133.231V134.371H143.569V133.231C133.984 133.231 127.829 131.765 125.106 128.834C122.437 125.902 121.075 121.45 121.075 115.424V15.5273L209.417 134.263H220.964H258.708V133.123C248.741 133.123 243.131 131.982 241.987 129.702C240.844 127.259 242.423 122.644 246.78 115.695L276.954 68.4072L315.951 128.942C317.203 131.005 317.149 132.2 315.787 132.58C314.48 132.96 310.177 133.177 302.716 133.177V134.317H344V133.177C340.732 133.123 338.063 133.068 335.994 132.96ZM41.012 123.187C40.9576 123.242 40.9031 123.296 40.7942 123.404L40.7397 123.459C39.7593 124.327 36.3825 127.096 36.3825 121.667V1.46587H38.1799C38.1799 1.46587 38.3433 1.46587 38.67 1.46587C40.2495 1.62874 44.988 2.22595 44.988 5.59202V95.4443C45.0424 109.832 44.5522 119.767 41.012 123.187ZM86 5.59202C86 5.59202 86 120.636 86 123.187C86 124.707 86.0545 130.897 82.6232 130.897C78.5383 130.897 78.5383 121.341 78.5383 115.369V1.57445C80.8258 1.57445 82.5143 1.68303 83.5491 1.95449C84.6928 2.22595 85.4009 2.66028 85.6732 3.31178C85.8911 4.01756 86.0545 4.83194 86 5.59202ZM120.041 115.315C120.041 121.287 119.115 125.793 117.372 128.725C115.738 131.657 111.49 133.123 104.681 133.123H103.265C101.522 133.068 99.7796 132.851 98.0912 132.525C97.0564 132.254 96.4572 131.874 96.1849 131.385C95.9126 130.571 95.7492 129.756 95.8037 128.888V5.59202C95.7492 4.77764 95.9126 4.01756 96.1849 3.31178C96.4572 2.66028 97.7099 1.57445 99.3439 1.57445H110.836L119.986 13.8443V115.315H120.041ZM227.826 125.902C225.811 128.236 220.964 133.991 215.735 127.205C215.572 127.042 214.537 125.576 214.537 125.576C212.903 123.187 212.794 121.016 212.794 120.473C212.794 120.418 212.794 120.364 212.794 120.364V19.2192C212.794 13.1928 213.72 8.74092 215.463 5.80918C217.042 3.25748 220.419 1.84591 225.593 1.46587C226.519 1.46587 227.282 1.52016 227.99 1.57445C229.569 1.62874 231.149 1.95449 232.619 2.5517C233.981 3.09461 235.07 4.01756 235.887 5.21198C237.14 6.73214 238.338 8.30659 239.319 9.98962L270.69 58.689L232.674 118.084C232.728 118.084 230.441 121.939 227.826 125.902ZM245.528 115.152C241.225 121.939 238.611 127.313 235.288 129.974C231.258 132.797 229.896 129.268 229.842 127.911C229.733 125.25 230.277 124.979 234.09 118.627L271.562 59.9377L276.246 67.2128L245.528 115.152ZM277.444 50.9254L297.705 19.382C302.171 12.3784 303.533 6.89501 306.855 4.50619C307.89 3.69182 308.38 3.20319 309.796 3.20319C311.212 3.1489 311.648 4.34331 312.029 5.0491C313.173 7.49222 311.593 12.0527 307.236 18.8391L282.073 58.0918L277.444 50.9254Z" fill="white"/>
</svg>
