<svg width="590" height="15" viewBox="0 0 590 15" fill="none" xmlns="http://www.w3.org/2000/svg">
<path fill-rule="evenodd" clip-rule="evenodd" d="M-4.73374e-10 14.9892L-3.402e-07 7.21715L590 7.22782L590 15L589.619 15C589.619 11.0142 587.401 7.78298 584.664 7.78298L5.33592 7.7723C2.59947 7.7723 0.381137 11.0034 0.381137 14.9892L-4.73374e-10 14.9892Z" fill="white"/>
<path fill-rule="evenodd" clip-rule="evenodd" d="M-3.15938e-07 7.77219L-6.55672e-07 7.28118e-07L0.381136 7.11458e-07C0.381136 3.98578 2.59947 7.21704 5.33592 7.21704L584.664 7.22782C587.401 7.22782 589.619 3.99657 589.619 0.0107882L590 0.0107882L590 7.78298L-3.15938e-07 7.77219Z" fill="white"/>
</svg>
