<svg width="508" height="201" viewBox="0 0 508 201" fill="none" xmlns="http://www.w3.org/2000/svg">
<path d="M496.177 196.507C493.764 196.426 491.351 195.945 489.099 195.062C487.249 194.18 485.64 192.976 484.273 191.371C482.906 189.446 481.297 187.038 479.447 183.989L417.596 87.782L455.318 28.6455C461.913 18.2946 467.704 11.3138 472.611 7.70299C477.517 3.93174 484.353 2.00599 493.04 2.08623V0.320958H411.162V2.00599C425.88 2.00599 434.165 3.77126 435.854 7.38204C437.543 10.9928 444.379 17.7329 437.945 27.7629L408.507 73.4192L366.523 8.26467C364.592 5.21557 364.592 3.4503 366.523 2.88862C368.372 2.32695 374.807 2.08623 385.826 2.08623V0.320958H279.336V2.00599C293.491 2.00599 302.58 4.17245 306.602 8.50539C310.543 12.8383 312.554 19.418 312.554 28.3246V172.274C312.554 172.274 312.071 178.533 307.808 173.398L179.521 0.320958H100.458L24.6922 0V2.16647L50.1083 2.24671L52.0386 2.16647V170.509V179.817C52.0386 189.927 42.4674 191.371 42.4674 191.371C24.4509 191.371 14.3167 180.138 14.3167 163.769C14.3167 154.862 17.2122 146.598 20.6707 136.568C22.038 132.716 23.4053 128.624 24.7726 124.211L0 177.008C7.0779 188.723 18.2578 201 41.7435 201C75.3635 201 80.9132 175.965 80.9132 145.474V144.592V8.26467C80.8328 7.06108 80.9937 5.93772 81.4762 4.89461C81.6371 4.33293 81.9588 3.77126 82.4414 3.37006C82.8436 2.96886 83.4066 2.6479 83.9696 2.56766C85.3369 2.24671 86.7043 2.08623 88.0716 2.08623H100.377H101.664C106.731 2.08623 110.914 2.16647 114.131 2.32695V170.589C114.131 179.416 112.844 186.075 110.19 190.408C107.777 194.741 101.503 196.908 91.4497 196.908V198.593H212.015V196.908C197.859 196.908 188.771 194.741 184.749 190.408C180.808 186.075 178.797 179.496 178.797 170.589V22.9485L309.256 198.432H326.307H382.046V196.747C367.327 196.747 359.042 195.062 357.353 191.692C355.664 188.081 357.997 181.261 364.431 170.99L408.99 101.102L466.578 190.569C468.428 193.618 468.348 195.383 466.337 195.945C464.407 196.507 458.053 196.828 447.034 196.828V198.513H508V196.828C503.174 196.747 499.233 196.667 496.177 196.507ZM60.5643 182.063C60.4839 182.144 60.4034 182.224 60.2426 182.384L60.1621 182.465C58.7144 183.748 53.7277 187.841 53.7277 179.817V2.16647H56.3819C56.3819 2.16647 56.6232 2.16647 57.1058 2.16647C59.4383 2.40719 66.4357 3.28982 66.4357 8.26467V141.061C66.5162 162.325 65.7923 177.008 60.5643 182.063ZM127 8.26467C127 8.26467 127 178.292 127 182.063C127 184.31 127.08 193.457 122.013 193.457C115.981 193.457 115.981 179.335 115.981 170.509V2.32695C119.359 2.32695 121.852 2.48743 123.381 2.88862C125.07 3.28982 126.115 3.93174 126.517 4.89461C126.839 5.93772 127.08 7.14132 127 8.26467ZM177.269 170.429C177.269 179.255 175.902 185.915 173.328 190.248C170.915 194.581 164.642 196.747 154.588 196.747H152.497C149.923 196.667 147.349 196.346 144.856 195.865C143.327 195.463 142.443 194.902 142.041 194.18C141.638 192.976 141.397 191.772 141.478 190.489V8.26467C141.397 7.06108 141.638 5.93772 142.041 4.89461C142.443 3.93174 144.293 2.32695 146.706 2.32695H163.676L177.189 20.4611V170.429H177.269ZM336.441 186.075C333.466 189.526 326.307 198.031 318.586 188.001C318.345 187.76 316.816 185.594 316.816 185.594C314.403 182.063 314.243 178.854 314.243 178.051C314.243 177.971 314.243 177.891 314.243 177.891V28.4048C314.243 19.4982 315.61 12.9186 318.184 8.58563C320.516 4.81437 325.503 2.72814 333.144 2.16647C334.511 2.16647 335.637 2.24671 336.683 2.32695C339.015 2.40719 341.348 2.88862 343.519 3.77126C345.53 4.57365 347.139 5.93772 348.345 7.70299C350.195 9.9497 351.965 12.2766 353.412 14.7641L399.74 86.7389L343.6 174.521C343.68 174.521 340.302 180.218 336.441 186.075ZM362.581 170.188C356.227 180.218 352.367 188.162 347.46 192.093C341.509 196.266 339.498 191.05 339.417 189.044C339.257 185.113 340.061 184.711 345.691 175.323L401.027 88.5844L407.944 99.3365L362.581 170.188ZM409.714 75.2647L439.634 28.6455C446.229 18.2946 448.24 10.1904 453.146 6.65988C454.674 5.45629 455.398 4.73413 457.49 4.73413C459.581 4.65389 460.224 6.41916 460.787 7.46227C462.476 11.0731 460.144 17.8132 453.709 27.8431L416.55 85.8563L409.714 75.2647Z" fill="white"/>
</svg>
