<svg width="394" height="156" viewBox="0 0 394 156" fill="none" xmlns="http://www.w3.org/2000/svg">
<path d="M384.83 152.513C382.959 152.45 381.087 152.077 379.34 151.392C377.906 150.707 376.658 149.772 375.598 148.527C374.537 147.032 373.289 145.164 371.855 142.798L323.883 68.1293L353.14 22.2323C358.256 14.1988 362.747 8.78084 366.552 5.97844C370.358 3.0515 375.66 1.55689 382.397 1.61916V0.249102H318.893V1.55689C330.309 1.55689 336.734 2.92695 338.044 5.72934C339.354 8.53174 344.656 13.7629 339.666 21.5473L316.834 56.982L284.271 6.41437C282.774 4.0479 282.774 2.67784 284.271 2.24192C285.706 1.80599 290.697 1.61916 299.243 1.61916V0.249102H216.65V1.55689C227.629 1.55689 234.678 3.23832 237.797 6.6012C240.854 9.96407 242.414 15.0707 242.414 21.9832V133.705C242.414 133.705 242.039 138.563 238.733 134.577L139.235 0.249102H77.9142L19.151 0V1.68144L38.8635 1.74371L40.3607 1.68144V132.335V139.559C40.3607 147.406 32.9373 148.527 32.9373 148.527C18.9639 148.527 11.1039 139.808 11.1039 127.104C11.1039 120.192 13.3496 113.777 16.032 105.993C17.0925 103.004 18.1529 99.8275 19.2134 96.4024L0 137.38C5.48955 146.472 14.1605 156 32.3759 156C58.4512 156 62.7555 136.57 62.7555 112.905V112.22V6.41437C62.6932 5.48024 62.8179 4.60838 63.1922 3.7988C63.317 3.36287 63.5665 2.92695 63.9408 2.61557C64.2527 2.30419 64.6894 2.05509 65.126 1.99281C66.1865 1.74371 67.247 1.61916 68.3075 1.61916H77.8518H78.8499C82.7799 1.61916 86.0238 1.68144 88.519 1.80599V132.398C88.519 139.248 87.5209 144.417 85.4623 147.78C83.5909 151.142 78.7251 152.824 70.9275 152.824V154.132H164.437V152.824C153.458 152.824 146.409 151.142 143.29 147.78C140.233 144.417 138.674 139.31 138.674 132.398V17.8108L239.856 154.007H253.081H296.311V152.699C284.895 152.699 278.47 151.392 277.16 148.776C275.85 145.974 277.659 140.68 282.649 132.709L317.209 78.4671L361.874 147.904C363.308 150.271 363.246 151.641 361.687 152.077C360.189 152.513 355.261 152.762 346.715 152.762V154.069H394V152.762C390.257 152.699 387.2 152.637 384.83 152.513ZM46.9731 141.303C46.9107 141.365 46.8483 141.428 46.7236 141.552L46.6612 141.614C45.5383 142.611 41.6707 145.787 41.6707 139.559V1.68144H43.7293C43.7293 1.68144 43.9164 1.68144 44.2907 1.68144C46.0997 1.86826 51.5269 2.55329 51.5269 6.41437V109.48C51.5893 125.983 51.0279 137.38 46.9731 141.303ZM98.5 6.41437C98.5 6.41437 98.5 138.376 98.5 141.303C98.5 143.047 98.5624 150.146 94.6324 150.146C89.9538 150.146 89.9538 139.186 89.9538 132.335V1.80599C92.5738 1.80599 94.5076 1.93054 95.6929 2.24192C97.0029 2.55329 97.8138 3.0515 98.1257 3.7988C98.3752 4.60838 98.5624 5.54251 98.5 6.41437ZM137.488 132.273C137.488 139.123 136.428 144.292 134.432 147.655C132.56 151.018 127.694 152.699 119.897 152.699H118.275C116.279 152.637 114.282 152.388 112.349 152.014C111.163 151.703 110.477 151.267 110.165 150.707C109.853 149.772 109.666 148.838 109.729 147.842V6.41437C109.666 5.48024 109.853 4.60838 110.165 3.7988C110.477 3.0515 111.912 1.80599 113.783 1.80599H126.946L137.426 15.8802V132.273H137.488ZM260.941 144.417C258.633 147.095 253.081 153.696 247.092 145.911C246.905 145.725 245.72 144.043 245.72 144.043C243.848 141.303 243.724 138.812 243.724 138.189C243.724 138.127 243.724 138.065 243.724 138.065V22.0455C243.724 15.1329 244.784 10.0263 246.78 6.66347C248.589 3.73653 252.457 2.11737 258.383 1.68144C259.444 1.68144 260.317 1.74371 261.128 1.80599C262.937 1.86826 264.746 2.24192 266.43 2.92695C267.99 3.5497 269.238 4.60838 270.173 5.97844C271.608 7.72216 272.98 9.52814 274.103 11.4587L310.035 67.3198L266.493 135.449C266.555 135.449 263.935 139.871 260.941 144.417ZM281.215 132.086C276.287 139.871 273.292 146.036 269.487 149.087C264.871 152.326 263.311 148.278 263.249 146.721C263.124 143.669 263.748 143.358 268.115 136.072L311.033 68.7521L316.398 77.097L281.215 132.086ZM317.77 58.4144L340.976 22.2323C346.091 14.1988 347.651 7.90898 351.456 5.16886C352.641 4.23473 353.203 3.67425 354.825 3.67425C356.447 3.61198 356.946 4.98204 357.382 5.79162C358.692 8.59401 356.883 13.8251 351.893 21.6096L323.073 66.6347L317.77 58.4144Z" fill="black"/>
</svg>
