<svg width="1296" height="19" viewBox="0 0 1296 19" fill="none" xmlns="http://www.w3.org/2000/svg">
<path fill-rule="evenodd" clip-rule="evenodd" d="M-6.83085e-10 18.9844L-4.3096e-07 9.14078L1296 9.15619L1296 18.9999L1295.33 18.9999C1295.33 13.9518 1291.4 9.85931 1286.56 9.85931L9.43989 9.84389C4.59878 9.84389 0.674278 13.9362 0.674278 18.9844L-6.83085e-10 18.9844Z" fill="black"/>
<path fill-rule="evenodd" clip-rule="evenodd" d="M-4.00232e-07 9.84376L-8.30516e-07 5.53492e-07L0.674277 5.24018e-07C0.674277 5.04813 4.59878 9.14063 9.43989 9.14063L1286.56 9.15619C1291.4 9.15619 1295.33 5.06369 1295.33 0.0155563L1296 0.0155562L1296 9.85931L-4.00232e-07 9.84376Z" fill="black"/>
</svg>
