<svg width="54" height="22" viewBox="0 0 54 22" fill="none" xmlns="http://www.w3.org/2000/svg">
<path fill-rule="evenodd" clip-rule="evenodd" d="M8.65933 0.530261C8.69953 0.426975 8.76649 0.317177 8.92728 0.275862C9.11388 0.227915 9.2008 0.235991 9.36357 0.225878L10.6725 0.223162L12.0019 0.220402V18.657V19.6794V20.7863V21.5387H10.8117V21.7246H13.8955H16.4231H16.5787V21.5387H16.2082C15.8464 21.5181 15.5751 21.4871 15.3942 21.4458C15.2334 21.4044 15.1329 21.3425 15.0927 21.2598C15.0525 21.1565 15.0324 21.0223 15.0324 20.857V0.902091C15.0324 0.736834 15.0525 0.61289 15.0927 0.530261C15.1329 0.426975 15.2334 0.354674 15.3942 0.313359C15.5751 0.272045 15.7637 0.283994 16.133 0.283994C16.133 0.283994 16.5787 0.251388 16.5787 0.902091V20.857V21.4844V21.4963V21.5387V21.7246H17.6854H20.7692H22.5432V21.5387H19.7308V21.0538V20.909V3.50371L32.5345 21.2406L32.7497 21.5387H30.8109V21.7246H32.8839H34.434H34.6928H36.9913H40.6143V21.5387H37.2692L36.9924 21.5369L38.7451 18.719L43.4784 11.0655L49.5984 20.857L50.014 21.5387H47.5182V21.7246H54V21.5387H51.8077L51.0406 20.2843C51.0127 20.239 50.9842 20.1923 50.9551 20.1443L44.3828 9.60914L48.3925 3.13308L50.1923 0.220402H52.4022V0.0344856H49.755H46.3424H43.6953V0.220402H47.3044L46.5994 1.30073L42.7492 6.97129L38.9562 0.902091L38.5713 0.220402H41.0062V0.0344856H35.8083H34.5546H33.2155H29.6882V0.220402H33.2155V3.10209L33.2175 19.6673V19.6815L19.7308 0.943996L19.2062 0.220402H20.7692V0.0344856L19.0762 0.0344856H17.6854H17.2371H16.5787H10.8117H10.6725L2.61777 0V0.172414V0.234584L5.32284 0.241158H5.53109L5.53303 18.657V19.6794C5.53303 20.7863 4.51847 20.9442 4.51847 20.9442C2.60574 20.9442 1.52464 19.7172 1.52464 17.9196C1.52464 16.9491 1.82947 16.0384 2.19755 14.9388C2.33811 14.5188 2.48791 14.0713 2.63346 13.5824H2.21765L0 19.3748C0.748458 20.6589 1.94045 22 4.43531 22C8.01128 22 8.59341 19.2607 8.59341 15.9222V15.8276L8.59904 0.902091C8.59904 0.736834 8.61913 0.61289 8.65933 0.530261ZM13.4949 0.902091V20.857V21.4844V21.4963V21.5387H12.9036V21.4963V21.4844V19.931V0.298177V0.27833C12.9817 0.28761 13.0482 0.299286 13.1029 0.313359C13.2838 0.354674 13.3944 0.426975 13.4346 0.530261C13.4748 0.61289 13.4949 0.736834 13.4949 0.902091ZM46.7246 3.13308L43.5419 8.23974L43.7259 8.53402L48.8137 0.572201L49.0385 0.220402H48.6923L48.5235 0.470281L48.4859 0.526005L46.7246 3.13308ZM7.06506 15.4371L7.06149 0.246255L6.43473 0.24087V0.276144V0.298177V19.931C6.85083 19.1405 7.06506 17.7697 7.06506 15.4371ZM18.8291 19.6794V20.7863V21.5387H18.1162V20.857V0.902091V0.220402H18.8271V0.234584L18.8291 18.657V18.9912V19.6794ZM35.4743 21.4467L42.7988 9.98482L42.6197 9.69826L34.4435 21.087L34.1192 21.5387H35.4161L35.4701 21.4534L35.4743 21.4467ZM34.1192 0.607917V19.6815L41.7945 8.3774L37.5694 1.61477L36.7026 0.220402H34.1192V0.607917Z" fill="white"/>
</svg>
