<svg width="85" height="34" viewBox="0 0 85 34" fill="none" xmlns="http://www.w3.org/2000/svg">
<path fill-rule="evenodd" clip-rule="evenodd" d="M13.6304 0.819494C13.6937 0.65987 13.7991 0.490183 14.0522 0.426332C14.3459 0.352232 14.4827 0.364713 14.739 0.349085L16.7992 0.344886L18.8919 0.340622V28.8336V30.4135V32.1243V33.2871H17.0184V33.5744H21.8725H25.8512H26.096V33.2871H25.5129C24.9434 33.2552 24.5163 33.2073 24.2316 33.1434C23.9785 33.0796 23.8203 32.9838 23.757 32.8561C23.6937 32.6965 23.6621 32.489 23.6621 32.2336V1.39414C23.6621 1.13874 23.6937 0.947194 23.757 0.819494C23.8203 0.65987 23.9785 0.548133 24.2316 0.484282C24.5163 0.420433 24.8132 0.438899 25.3945 0.438899C25.3945 0.438899 26.096 0.388508 26.096 1.39414V32.2336V33.2031V33.2216V33.2871V33.5744H27.8382H32.6923H35.4846V33.2871H31.0577V32.5376V32.3138V5.41483L51.2118 32.8264L51.5505 33.2871H48.4987V33.5744H51.7617H54.2016H54.609H58.227H63.9299V33.2871H58.6645L58.2287 33.2844L60.9877 28.9293L68.4382 17.1012L78.0716 32.2336L78.7257 33.2871H74.7972V33.5744H85V33.2871H81.5491L80.3417 31.3485C80.2978 31.2784 80.2529 31.2063 80.207 31.1322L69.8618 14.8505L76.1733 4.84203L79.0064 0.340622H82.4849V0.0532959H78.3181H72.9464H68.7796V0.340622H74.4607L73.3509 2.01022L67.2904 10.7738L61.3199 1.39414L60.714 0.340622H64.5468V0.0532959H56.3649H54.3915H52.2837H46.7315V0.340622H52.2837V4.79414L52.2868 30.395V30.4169L31.0577 1.4589L30.232 0.340622H32.6923V0.0532959L30.0273 0.0532959H27.8382H27.1325H26.096H17.0184H16.7992L4.12057 0V0.266458V0.362538L8.37855 0.372699H8.70634L8.70939 28.8336V30.4135C8.70939 32.1243 7.11241 32.3684 7.11241 32.3684C4.10163 32.3684 2.39989 30.4721 2.39989 27.6939C2.39989 26.1941 2.87973 24.7866 3.4591 23.0872C3.68036 22.4381 3.91615 21.7465 4.14527 20.9909H3.49075L0 29.9429C1.17813 31.9274 3.05441 34 6.9815 34C12.6103 34 13.5267 29.7665 13.5267 24.607V24.4608L13.5355 1.39414C13.5355 1.13874 13.5672 0.947194 13.6304 0.819494ZM21.2419 1.39414V32.2336V33.2031V33.2216V33.2871H20.3113V33.2216V33.2031V30.8025V0.460818V0.430147C20.4342 0.444488 20.5388 0.462532 20.625 0.484282C20.9097 0.548133 21.0837 0.65987 21.147 0.819494C21.2103 0.947194 21.2419 1.13874 21.2419 1.39414ZM73.5481 4.84203L68.5382 12.7341L68.8277 13.1889L76.8363 0.884311L77.1902 0.340622H76.6453L76.3796 0.726798L76.3203 0.812917L73.5481 4.84203ZM11.1209 23.8573L11.1153 0.380575L10.1287 0.372253V0.426767V0.460818V30.8025C10.7837 29.5808 11.1209 27.4623 11.1209 23.8573ZM29.6383 30.4135V32.1243V33.2871H28.5163V32.2336V1.39414V0.340622H29.6353V0.362539L29.6383 28.8336V29.3501V30.4135ZM55.8392 33.1449L67.3684 15.4311L67.0866 14.9882L54.2166 32.589L53.7061 33.2871H55.7476L55.8325 33.1552L55.8392 33.1449ZM53.7061 0.939509V30.4169L65.7876 12.9469L59.137 2.49555L57.7726 0.340622H53.7061V0.939509Z" fill="white"/>
</svg>
