<svg width="64" height="26" viewBox="0 0 64 26" fill="none" xmlns="http://www.w3.org/2000/svg">
<path fill-rule="evenodd" clip-rule="evenodd" d="M10.2629 0.626672C10.3106 0.504607 10.3899 0.374846 10.5805 0.326019C10.8016 0.269354 10.9047 0.278898 11.0976 0.266947L12.6488 0.263737L14.2245 0.260475V22.0492V23.2574V24.5656V25.4548H12.8139V25.6746H16.4687H19.4645H19.6488V25.4548H19.2097C18.7809 25.4304 18.4593 25.3938 18.2449 25.345C18.0544 25.2962 17.9353 25.2229 17.8876 25.1253C17.84 25.0032 17.8162 24.8445 17.8162 24.6492V1.06611C17.8162 0.870803 17.84 0.724325 17.8876 0.626672C17.9353 0.504607 18.0544 0.41916 18.2449 0.370333C18.4593 0.321507 18.6829 0.335629 19.1205 0.335629C19.1205 0.335629 19.6488 0.297095 19.6488 1.06611V24.6492V25.3906V25.4048V25.4548V25.6746H20.9605H24.6154H26.7178V25.4548H23.3846V24.8817V24.7106V4.14075L38.5594 25.1025L38.8145 25.4548H36.5167V25.6746H38.9735H40.8106H41.1174H43.8415H48.1355V25.4548H44.1709L43.8428 25.4528L45.9202 22.1224L51.5299 13.0774L58.7833 24.6492L59.2758 25.4548H56.3179V25.6746H64V25.4548H61.4017L60.4926 23.9724C60.4595 23.9188 60.4257 23.8636 60.3912 23.807L52.6018 11.3563L57.354 3.70273L59.4872 0.260475H62.1063V0.0407557H58.9689H54.9243H51.787V0.260475H56.0645L55.2289 1.53723L50.6657 8.2388L46.1703 1.06611L45.7141 0.260475H48.6V0.0407557H42.4394H40.9536H39.3666H35.1861V0.260475H39.3666V3.66611L39.3689 23.2432V23.26L23.3846 1.11563L22.7629 0.260475H24.6154V0.0407557L22.6088 0.0407557H20.9605H20.4292H19.6488H12.8139H12.6488L3.10255 0V0.203762V0.277235L6.30855 0.285006H6.55536L6.55766 22.0492V23.2574C6.55766 24.5656 5.35522 24.7523 5.35522 24.7523C3.08829 24.7523 1.80698 23.3022 1.80698 21.1777C1.80698 20.0308 2.16826 18.9545 2.6045 17.6549C2.7711 17.1586 2.94863 16.6297 3.12114 16.0519H2.62833L0 22.8975C0.887062 24.415 2.29979 26 5.25666 26C9.49485 26 10.1848 22.7626 10.1848 18.8171V18.7053L10.1915 1.06611C10.1915 0.870803 10.2153 0.724325 10.2629 0.626672ZM15.9939 1.06611V24.6492V25.3906V25.4048V25.4548H15.2932V25.4048V25.3906V23.5549V0.35239V0.328936C15.3858 0.339902 15.4645 0.353701 15.5294 0.370333C15.7438 0.41916 15.8748 0.504607 15.9224 0.626672C15.9701 0.724325 15.9939 0.870803 15.9939 1.06611ZM55.3774 3.70273L51.6053 9.73788L51.8232 10.0857L57.8532 0.676238L58.1197 0.260475H57.7094L57.5093 0.555787L57.4647 0.621642L55.3774 3.70273ZM8.3734 18.2438L8.36917 0.291028L7.62634 0.284664V0.326352V0.35239V23.5549C8.1195 22.6206 8.3734 21.0006 8.3734 18.2438ZM22.3159 23.2574V24.5656V25.4548H21.4711V24.6492V1.06611V0.260475H22.3136V0.277235L22.3159 22.0492V22.4442V23.2574ZM42.0436 25.3461L50.7245 11.8002L50.5123 11.4616L40.8219 24.921L40.4376 25.4548H41.9747L42.0386 25.354L42.0436 25.3461ZM40.4376 0.718448V23.26L49.5342 9.90056L44.5267 1.90836L43.4993 0.260475H40.4376V0.718448Z" fill="white"/>
</svg>
