<svg width="86" height="34" viewBox="0 0 86 34" fill="none" xmlns="http://www.w3.org/2000/svg">
<path fill-rule="evenodd" clip-rule="evenodd" d="M13.7167 0.819494C13.7803 0.65987 13.8864 0.490183 14.1411 0.426332C14.4367 0.352232 14.5744 0.364713 14.8322 0.349085L16.9055 0.344886L19.0114 0.340622V28.8336V30.4135V32.1243V33.2871H17.1261V33.5744H22.0109H26.0148H26.2611V33.2871H25.6743C25.1012 33.2552 24.6714 33.2073 24.3849 33.1434C24.1302 33.0796 23.971 32.9838 23.9073 32.8561C23.8436 32.6965 23.8118 32.489 23.8118 32.2336V1.39414C23.8118 1.13874 23.8436 0.947194 23.9073 0.819494C23.971 0.65987 24.1302 0.548133 24.3849 0.484282C24.6714 0.420433 24.9701 0.438899 25.5551 0.438899C25.5551 0.438899 26.2611 0.388508 26.2611 1.39414V32.2336V33.2031V33.2216V33.2871V33.5744H28.0143H32.8991H35.7091V33.2871H31.2542V32.5376V32.3138V5.41483L51.5357 32.8264L51.8766 33.2871H48.8055V33.5744H52.0892H54.5445H54.9545H58.5953H64.3344V33.2871H59.0356L58.5971 33.2844L61.3735 28.9293L68.8711 17.1012L78.5654 32.2336L79.2237 33.2871H75.2703V33.5744H85.5377V33.2871H82.065L80.85 31.3485C80.8058 31.2784 80.7606 31.2063 80.7144 31.1322L70.3038 14.8505L76.6552 4.84203L79.5062 0.340622H83.0067V0.0532959H78.8135H73.4078H69.2147V0.340622H74.9317L73.8149 2.01022L67.7161 10.7738L61.7078 1.39414L61.0981 0.340622H64.9552V0.0532959H56.7214H54.7355H52.6145H47.0271V0.340622H52.6145V4.79414L52.6176 30.395V30.4169L31.2542 1.4589L30.4232 0.340622H32.8991V0.0532959L30.2172 0.0532959H28.0143H27.3042H26.2611H17.1261H16.9055L4.14664 0V0.266458V0.362538L8.43155 0.372699H8.76142L8.76449 28.8336V30.4135C8.76449 32.1243 7.1574 32.3684 7.1574 32.3684C4.12758 32.3684 2.41507 30.4721 2.41507 27.6939C2.41507 26.1941 2.89794 24.7866 3.48098 23.0872C3.70365 22.4381 3.94092 21.7465 4.17149 20.9909H3.51283L0 29.9429C1.18558 31.9274 3.07373 34 7.02567 34C12.6901 34 13.6122 29.7665 13.6122 24.607V24.4608L13.6211 1.39414C13.6211 1.13874 13.653 0.947194 13.7167 0.819494ZM21.3763 1.39414V32.2336V33.2031V33.2216V33.2871H20.4398V33.2216V33.2031V30.8025V0.460818V0.430147C20.5635 0.444488 20.6687 0.462532 20.7555 0.484282C21.042 0.548133 21.2171 0.65987 21.2808 0.819494C21.3444 0.947194 21.3763 1.13874 21.3763 1.39414ZM74.0133 4.84203L68.9718 12.7341L69.2632 13.1889L77.3224 0.884311L77.6785 0.340622H77.1302L76.8628 0.726798L76.8031 0.812917L74.0133 4.84203ZM11.1913 23.8573L11.1856 0.380575L10.1928 0.372253V0.426767V0.460818V30.8025C10.8519 29.5808 11.1913 27.4623 11.1913 23.8573ZM29.8258 30.4135V32.1243V33.2871H28.6966V32.2336V1.39414V0.340622H29.8228V0.362539L29.8258 28.8336V29.3501V30.4135ZM56.1925 33.1449L67.7946 15.4311L67.511 14.9882L54.5596 32.589L54.0459 33.2871H56.1003L56.1857 33.1552L56.1925 33.1449ZM54.0459 0.939509V30.4169L66.2038 12.9469L59.5111 2.49555L58.138 0.340622H54.0459V0.939509Z" fill="white"/>
</svg>
