<svg width="597" height="335" viewBox="0 0 597 335" fill="none" xmlns="http://www.w3.org/2000/svg">
<path d="M0.632812 11.3339C0.632812 5.45835 5.40425 0.695312 11.2901 0.695312H585.976C591.861 0.695312 596.633 5.45836 596.633 11.3339V324.057C596.633 329.932 591.861 334.695 585.976 334.695H11.2901C5.40426 334.695 0.632812 329.932 0.632812 324.057V11.3339Z" fill="black"/>
<path d="M328.789 167.022L271.413 201.436L270.245 134.627L328.789 167.022Z" fill="white"/>
<path d="M321.255 162.853C324.603 164.706 324.687 169.482 321.405 171.451L278.797 197.007C275.515 198.976 271.329 196.66 271.262 192.838L270.395 143.225C270.328 139.404 274.43 136.943 277.779 138.796L321.255 162.853Z" fill="black"/>
<path d="M328.969 167.322L329.49 167.009L328.958 166.715L321.424 162.547L277.948 138.49C277.944 138.487 277.94 138.485 277.936 138.483L270.414 134.321L269.884 134.028L269.895 134.633L270.045 143.231L270.913 192.845C270.913 192.849 270.913 192.854 270.913 192.859L271.063 201.442L271.073 202.048L271.593 201.736L278.977 197.307L321.585 171.751C321.587 171.75 321.588 171.749 321.59 171.748L328.969 167.322ZM277.609 139.102L321.085 163.159C324.196 164.881 324.275 169.316 321.23 171.148C321.228 171.149 321.227 171.149 321.225 171.15L278.617 196.707C275.569 198.535 271.684 196.388 271.613 192.845C271.613 192.841 271.612 192.837 271.612 192.832L270.745 143.219C270.683 139.672 274.486 137.385 277.598 139.096C277.602 139.098 277.605 139.1 277.609 139.102ZM323.501 169.785C324.422 168.13 324.385 166.067 323.408 164.444L328.088 167.034L323.501 169.785ZM271.659 195.482C272.634 197.107 274.443 198.107 276.339 198.073L271.752 200.824L271.659 195.482ZM275.285 137.816C273.389 137.848 271.617 138.911 270.699 140.569L270.605 135.227L275.285 137.816ZM0.982812 11.3339C0.982812 5.65223 5.59697 1.04531 11.2901 1.04531H585.976C591.669 1.04531 596.283 5.65224 596.283 11.3339V324.057C596.283 329.738 591.669 334.345 585.976 334.345H11.2901C5.59697 334.345 0.982812 329.738 0.982812 324.057V11.3339Z" stroke="white" stroke-width="0.7"/>
</svg>
