<svg width="447" height="251" viewBox="0 0 447 251" fill="none" xmlns="http://www.w3.org/2000/svg">
<path d="M0.683594 8.6583C0.683594 4.26046 4.25417 0.695312 8.65869 0.695312H438.708C443.113 0.695312 446.684 4.26047 446.684 8.65831V242.732C446.684 247.13 443.113 250.695 438.708 250.695H8.6587C4.25417 250.695 0.683594 247.13 0.683594 242.732V8.6583Z" fill="black"/>
<path d="M246.25 125.191L203.314 150.95L202.44 100.944L246.25 125.191Z" fill="white"/>
<path d="M240.612 122.071C243.118 123.458 243.18 127.033 240.725 128.506L208.84 147.635C206.384 149.109 203.252 147.375 203.202 144.515L202.553 107.379C202.503 104.519 205.572 102.677 208.078 104.064L240.612 122.071Z" fill="black"/>
<path d="M246.43 125.491L246.951 125.179L246.42 124.885L240.784 121.766C240.783 121.765 240.783 121.765 240.782 121.764L208.248 103.758L202.61 100.637L202.08 100.344L202.09 100.95L202.203 107.385L202.852 144.521C202.852 144.522 202.852 144.522 202.852 144.523L202.964 150.957L202.975 151.562L203.494 151.251L209.016 147.938C209.017 147.937 209.019 147.936 209.02 147.936L240.905 128.806L246.43 125.491ZM240.443 122.377C240.444 122.378 240.445 122.378 240.446 122.379C242.713 123.636 242.768 126.872 240.545 128.206L208.66 147.335C206.434 148.67 203.598 147.099 203.552 144.51C203.552 144.51 203.552 144.509 203.552 144.509L202.903 107.373C202.857 104.785 205.633 103.116 207.903 104.367C207.905 104.368 207.907 104.369 207.909 104.37L240.443 122.377ZM242.51 127.027C243.024 125.906 243.001 124.589 242.448 123.487L245.549 125.203L242.51 127.027ZM203.592 146.798C204.307 147.803 205.46 148.442 206.693 148.515L203.654 150.339L203.592 146.798ZM205.902 103.26C204.673 103.376 203.542 104.054 202.863 105.084L202.801 101.543L205.902 103.26ZM8.65869 1.04531H438.708C442.92 1.04531 446.334 4.45427 446.334 8.65831V242.732C446.334 246.936 442.92 250.345 438.708 250.345H8.6587C4.44697 250.345 1.03359 246.936 1.03359 242.732V8.6583C1.03359 4.45426 4.44696 1.04531 8.65869 1.04531Z" stroke="white" stroke-width="0.7"/>
</svg>
