<svg width="1120" height="629" viewBox="0 0 1120 629" fill="none" xmlns="http://www.w3.org/2000/svg">
<path d="M0.316406 20.7608C0.316406 9.71346 9.27486 0.757812 20.3257 0.757812H1099.31C1110.36 0.757812 1119.32 9.71348 1119.32 20.7609V608.755C1119.32 619.802 1110.36 628.758 1099.31 628.758H20.3257C9.27487 628.758 0.316406 619.802 0.316406 608.755V20.7608Z" fill="black"/>
<path d="M616.435 313.491L508.71 378.199L506.517 252.582L616.435 313.491Z" fill="white"/>
<path d="M602.29 305.653C608.576 309.137 608.733 318.118 602.572 321.819L522.574 369.871C516.412 373.572 508.554 369.218 508.428 362.033L506.799 268.747C506.674 261.563 514.376 256.936 520.663 260.42L602.29 305.653Z" fill="black"/>
<path d="M616.615 313.791L617.135 313.479L616.605 313.185L602.459 305.347L520.832 260.114L506.687 252.276L506.157 251.982L506.167 252.588L506.449 268.754L508.078 362.039C508.078 362.046 508.078 362.053 508.079 362.06L508.36 378.205L508.371 378.811L508.891 378.499L522.754 370.171L602.752 322.119L616.615 313.791ZM520.493 260.726L602.12 305.959C608.171 309.312 608.322 317.956 602.392 321.519L522.393 369.571C516.469 373.13 508.913 368.95 508.778 362.047C508.778 362.04 508.778 362.033 508.778 362.027L507.149 268.741C507.029 261.826 514.442 257.373 520.493 260.726ZM605.524 319.637C608.169 316.126 608.082 311.146 605.316 307.73L615.735 313.503L605.524 319.637ZM508.842 365.679C510.561 369.725 514.918 372.139 519.261 371.453L509.05 377.587L508.842 365.679ZM517.297 258.955C512.933 258.421 508.662 260.986 507.086 265.089L506.878 253.182L517.297 258.955ZM0.666406 20.7608C0.666406 9.90686 9.46806 1.10781 20.3257 1.10781H1099.31C1110.16 1.10781 1118.97 9.90688 1118.97 20.7609V608.755C1118.97 619.609 1110.16 628.408 1099.31 628.408H20.3257C9.46807 628.408 0.666406 619.609 0.666406 608.755V20.7608Z" stroke="white" stroke-width="0.7"/>
</svg>
