<svg width="94" height="45" viewBox="0 0 94 45" fill="none" xmlns="http://www.w3.org/2000/svg">
<rect x="2" y="2.33203" width="89.3334" height="40" stroke="white" stroke-width="4"/>
<path d="M19.8483 24.8691C19.8625 24.298 19.8768 23.6341 19.8911 22.8774C19.9054 22.1065 19.9125 21.2998 19.9125 20.4574C19.9268 19.6151 19.9339 18.7513 19.9339 17.8661C19.9482 16.9666 19.9553 16.11 19.9553 15.2962H30.4492V29.8591H27.8364V17.7376H22.5038C22.5038 18.323 22.4967 18.9512 22.4824 19.6222C22.4824 20.279 22.4753 20.9429 22.461 21.6139C22.461 22.2707 22.4539 22.9131 22.4396 23.5413C22.4253 24.1553 22.411 24.7121 22.3968 25.2118C22.3396 26.8965 21.9684 28.0958 21.2831 28.8097C20.5978 29.5093 19.5342 29.8591 18.0921 29.8591H16.9785V27.3748H17.7067C18.3349 27.3748 18.8417 27.2106 19.2272 26.8822C19.6127 26.5539 19.8197 25.8828 19.8483 24.8691Z" fill="white"/>
<path d="M40.4017 30.0732C39.3452 30.0732 38.3744 29.9162 37.4892 29.6021C36.6182 29.2737 35.8687 28.7954 35.2405 28.1672C34.6123 27.539 34.1197 26.7609 33.7628 25.8329C33.4201 24.8905 33.2488 23.8055 33.2488 22.5776C33.2488 21.3783 33.4201 20.3075 33.7628 19.3652C34.1197 18.4229 34.6123 17.6377 35.2405 17.0095C35.8687 16.3813 36.6182 15.903 37.4892 15.5746C38.3744 15.2462 39.3452 15.082 40.4017 15.082C41.4725 15.082 42.4505 15.2462 43.3357 15.5746C44.2209 15.903 44.9705 16.3813 45.5844 17.0095C46.2126 17.6377 46.698 18.4229 47.0407 19.3652C47.3976 20.3075 47.5761 21.3783 47.5761 22.5776C47.5761 23.8055 47.3976 24.8905 47.0407 25.8329C46.698 26.7609 46.2126 27.539 45.5844 28.1672C44.9705 28.7954 44.2209 29.2737 43.3357 29.6021C42.4505 29.9162 41.4725 30.0732 40.4017 30.0732ZM40.4017 27.7389C41.8437 27.7389 42.9574 27.2749 43.7426 26.3468C44.5279 25.4045 44.9205 24.1481 44.9205 22.5776C44.9205 20.9928 44.5279 19.7364 43.7426 18.8084C42.9574 17.8804 41.8437 17.4164 40.4017 17.4164C38.974 17.4164 37.8604 17.8804 37.0608 18.8084C36.2756 19.7364 35.883 20.9928 35.883 22.5776C35.883 24.1481 36.2756 25.4045 37.0608 26.3468C37.8604 27.2749 38.974 27.7389 40.4017 27.7389Z" fill="white"/>
<path d="M50.3501 29.8591V15.2962H60.0301V17.7376H52.9629V29.8591H50.3501Z" fill="white"/>
<path d="M68.1965 30.0732C67.14 30.0732 66.1691 29.9162 65.2839 29.6021C64.413 29.2737 63.6634 28.7954 63.0352 28.1672C62.407 27.539 61.9145 26.7609 61.5575 25.8329C61.2149 24.8905 61.0436 23.8055 61.0436 22.5776C61.0436 21.3783 61.2149 20.3075 61.5575 19.3652C61.9145 18.4229 62.407 17.6377 63.0352 17.0095C63.6634 16.3813 64.413 15.903 65.2839 15.5746C66.1691 15.2462 67.14 15.082 68.1965 15.082C69.2673 15.082 70.2453 15.2462 71.1305 15.5746C72.0157 15.903 72.7652 16.3813 73.3792 17.0095C74.0074 17.6377 74.4928 18.4229 74.8354 19.3652C75.1924 20.3075 75.3708 21.3783 75.3708 22.5776C75.3708 23.8055 75.1924 24.8905 74.8354 25.8329C74.4928 26.7609 74.0074 27.539 73.3792 28.1672C72.7652 28.7954 72.0157 29.2737 71.1305 29.6021C70.2453 29.9162 69.2673 30.0732 68.1965 30.0732ZM68.1965 27.7389C69.6385 27.7389 70.7521 27.2749 71.5374 26.3468C72.3226 25.4045 72.7153 24.1481 72.7153 22.5776C72.7153 20.9928 72.3226 19.7364 71.5374 18.8084C70.7521 17.8804 69.6385 17.4164 68.1965 17.4164C66.7688 17.4164 65.6551 17.8804 64.8556 18.8084C64.0703 19.7364 63.6777 20.9928 63.6777 22.5776C63.6777 24.1481 64.0703 25.4045 64.8556 26.3468C65.6551 27.2749 66.7688 27.7389 68.1965 27.7389Z" fill="white"/>
</svg>
