<svg width="78" height="42" viewBox="0 0 78 42" fill="none" xmlns="http://www.w3.org/2000/svg">
<path d="M54.3397 0.300781H77.9557C72.7893 8.07572 67.7033 15.7301 62.5748 23.4481C67.7024 29.2417 72.7923 34.9928 78.0001 40.877H53.5169C51.0736 38.7689 48.5531 36.5942 45.8034 34.2217V40.4033C43.3194 41.1649 40.9033 41.3968 38.457 41.3172C26.8803 40.9406 18.0713 35.5339 11.3523 26.4268C6.45984 19.7955 3.5233 12.2736 1.44138 4.38178C1.0893 3.0472 0.754637 1.7259 0.386719 0.300781H20.7192C21.2326 5.75735 22.466 10.8963 26.8233 14.9491V4.85202H25.0649V0.300781H45.6199V16.6927C46.3175 16.0868 46.8423 15.6916 47.2958 15.2274C50.2125 12.2421 51.8271 8.54467 53.0661 4.65285C53.5178 3.23425 53.9015 1.80569 54.3397 0.300781ZM67.9213 36.3782C64.1666 32.1329 60.4711 27.9525 56.8345 23.8369C61.0613 17.4768 65.2048 11.2419 69.4515 4.85202H57.872C57.3023 6.42657 56.806 7.97934 56.1772 9.50148C54.5117 13.5336 52.3533 17.2398 48.806 19.9637C46.5642 21.685 44.0644 22.5905 41.0481 22.2969V4.85202H31.4503V22.353C22.4755 19.7604 18.4404 13.2642 16.664 4.85202H6.30238C8.20121 11.4689 10.8847 18.0866 14.9816 23.6884C20.1074 30.6969 26.7403 35.391 35.5525 36.5275C37.3897 36.7645 38.9151 36.7845 41.0481 36.5866V24.1797C41.0481 24.1797 51.1105 32.788 55.311 36.3782H67.9213Z" fill="white"/>
</svg>
