<svg width="32" height="19" viewBox="0 0 32 19" fill="none" xmlns="http://www.w3.org/2000/svg">
<path fill-rule="evenodd" clip-rule="evenodd" d="M0.5 0.5H8.35763L8.43679 1.41256C8.5071 2.22309 8.7902 3.58218 9.40819 4.91196C9.76049 5.67002 10.2063 6.38658 10.758 6.98553V0.5H17.9827V7.58159C19.1617 6.87331 20.7479 5.14648 21.2636 1.36336L21.3813 0.5H31.2107L24.8963 10.4261L31.5 18.5H21.8802L17.9827 15.1582V18.5H16.9944C14.5821 18.5 11.3185 18.3845 8.24271 16.1213C5.1678 13.8587 2.45856 9.58979 0.761366 1.71302L0.5 0.5ZM2.96923 2.5C4.61211 9.31168 7.01217 12.7429 9.40522 14.5037C11.5885 16.1102 13.8984 16.4306 16.0061 16.4883V10.8418L22.6051 16.5H27.2985L22.4516 10.5739L27.5878 2.5H23.0818C22.0813 7.79987 18.9815 9.77522 17.1074 9.99344L16.0061 10.1217V2.5H12.7345V10.644L11.2918 9.88799C9.50279 8.95058 8.34392 7.32183 7.61949 5.76304C7.08426 4.61134 6.76038 3.44386 6.59161 2.5H2.96923Z" fill="white"/>
</svg>
