<svg width="974" height="15" viewBox="0 0 974 15" fill="none" xmlns="http://www.w3.org/2000/svg">
<path fill-rule="evenodd" clip-rule="evenodd" d="M-5.03326e-10 14.1831L-3.1755e-07 6.92989L974 6.94124L974 14.1945L973.493 14.1945C973.493 10.4749 970.544 7.45934 966.905 7.45934L7.09448 7.44797C3.45618 7.44797 0.506749 10.4634 0.506749 14.1831L-5.03326e-10 14.1831Z" fill="black"/>
<path fill-rule="evenodd" clip-rule="evenodd" d="M-2.94908e-07 7.44788L-6.11959e-07 0.19458L0.506748 0.19458C0.506748 3.91426 3.45618 6.92978 7.09448 6.92978L966.905 6.94124C970.544 6.94124 973.493 3.92572 973.493 0.206042L974 0.206041L974 7.45934L-2.94908e-07 7.44788Z" fill="black"/>
</svg>
