<svg width="296" height="118" viewBox="0 0 296 118" fill="none" xmlns="http://www.w3.org/2000/svg">
<path d="M289.111 114.386C287.705 114.339 286.299 114.059 284.987 113.545C283.909 113.031 282.972 112.331 282.175 111.397C281.378 110.276 280.441 108.875 279.363 107.1L243.324 51.0985L265.303 16.6757C269.146 10.6506 272.521 6.58709 275.379 4.4853C278.238 2.29009 282.222 1.16913 287.283 1.21584V0.188291H239.574V1.16913C248.151 1.16913 252.978 2.19667 253.962 4.29847C254.946 6.40027 258.93 10.3236 255.181 16.1619L238.028 42.738L213.564 4.81224C212.44 3.03739 212.44 2.00985 213.564 1.6829C214.642 1.35596 218.391 1.21584 224.812 1.21584V0.188291H162.763V1.16913C171.011 1.16913 176.307 2.43021 178.65 4.95236C180.946 7.47452 182.118 11.3045 182.118 16.4889V100.28C182.118 100.28 181.837 103.924 179.353 100.934L104.603 0.188291H58.5345L14.3876 0.00146484V1.26254L29.197 1.30925L30.3217 1.26254V99.253V104.671C30.3217 110.556 24.7448 111.397 24.7448 111.397C14.247 111.397 8.34199 104.858 8.34199 95.3296C8.34199 90.1452 10.0291 85.3344 12.0443 79.4961C12.841 77.2542 13.6377 74.8721 14.4345 72.3032L0 103.036C4.12413 109.855 10.6384 117.001 24.323 117.001C43.9126 117.001 47.1463 102.429 47.1463 84.6805V84.1667V4.81224C47.0994 4.11164 47.1932 3.45775 47.4744 2.85057C47.5681 2.52362 47.7555 2.19667 48.0367 1.96314C48.2711 1.72961 48.5991 1.54278 48.9272 1.49608C49.7239 1.30925 50.5206 1.21584 51.3173 1.21584H58.4877H59.2375C62.19 1.21584 64.627 1.26254 66.5016 1.35596V99.2997C66.5016 104.437 65.7517 108.314 64.2052 110.836C62.7992 113.358 59.1438 114.619 53.2856 114.619V115.6H123.536V114.619C115.288 114.619 109.992 113.358 107.649 110.836C105.353 108.314 104.181 104.484 104.181 99.2997V13.3595L180.196 115.507H190.132H222.609V114.526C214.033 114.526 209.206 113.545 208.222 111.583C207.238 109.482 208.597 105.512 212.346 99.5332L238.309 58.8518L271.864 110.93C272.942 112.704 272.896 113.732 271.724 114.059C270.599 114.386 266.897 114.573 260.476 114.573V115.554H296V114.573C293.188 114.526 290.892 114.479 289.111 114.386ZM35.2894 105.979C35.2426 106.025 35.1957 106.072 35.102 106.166L35.0551 106.212C34.2115 106.96 31.3059 109.342 31.3059 104.671V1.26254H32.8524C32.8524 1.26254 32.993 1.26254 33.2742 1.26254C34.6333 1.40266 38.7106 1.91643 38.7106 4.81224V82.1116C38.7574 94.4889 38.3357 103.036 35.2894 105.979ZM74 4.81224C74 4.81224 74 103.783 74 105.979C74 107.286 74.0469 112.611 71.0944 112.611C67.5795 112.611 67.5795 104.391 67.5795 99.253V1.35596C69.5478 1.35596 71.0006 1.44937 71.8911 1.6829C72.8752 1.91643 73.4845 2.29009 73.7188 2.85057C73.9063 3.45775 74.0469 4.15835 74 4.81224ZM103.291 99.2062C103.291 104.344 102.494 108.221 100.994 110.743C99.5884 113.265 95.9329 114.526 90.0747 114.526H88.8563C87.3566 114.479 85.8569 114.292 84.4041 114.012C83.5136 113.779 82.9981 113.452 82.7638 113.031C82.5295 112.331 82.3889 111.63 82.4357 110.883V4.81224C82.3889 4.11164 82.5295 3.45775 82.7638 2.85057C82.9981 2.29009 84.076 1.35596 85.482 1.35596H95.3705L103.244 11.9116V99.2062H103.291ZM196.037 108.314C194.303 110.322 190.132 115.273 185.633 109.435C185.492 109.295 184.602 108.034 184.602 108.034C183.196 105.979 183.102 104.11 183.102 103.643C183.102 103.597 183.102 103.55 183.102 103.55V16.5356C183.102 11.3512 183.899 7.52123 185.398 4.99907C186.757 2.80386 189.663 1.58949 194.115 1.26254C194.912 1.26254 195.568 1.30925 196.177 1.35596C197.536 1.40266 198.896 1.6829 200.161 2.19667C201.333 2.66374 202.27 3.45775 202.973 4.4853C204.051 5.79308 205.082 7.14757 205.925 8.59548L232.92 50.4913L200.208 101.588C200.255 101.588 198.286 104.904 196.037 108.314ZM211.268 99.0661C207.566 104.904 205.316 109.528 202.457 111.817C198.989 114.246 197.818 111.21 197.771 110.042C197.677 107.754 198.146 107.52 201.426 102.055L233.669 51.5655L237.7 57.8242L211.268 99.0661ZM238.731 43.8122L256.165 16.6757C260.008 10.6506 261.179 5.9332 264.038 3.87811C264.928 3.17751 265.35 2.75715 266.569 2.75715C267.787 2.71045 268.162 3.73799 268.49 4.34518C269.474 6.44697 268.115 10.3703 264.366 16.2086L242.714 49.9775L238.731 43.8122Z" fill="black"/>
</svg>
