<svg width="446" height="177" viewBox="0 0 446 177" fill="none" xmlns="http://www.w3.org/2000/svg">
<path d="M89.2965 173.289C94.6085 173.289 98.7585 173.289 101.747 173.289C104.735 173.123 106.893 172.873 108.221 172.541C109.715 172.208 110.627 171.71 110.959 171.045C111.038 170.848 111.108 170.636 111.168 170.411C111.361 169.687 111.457 168.818 111.457 167.804V7.25773C111.457 5.92816 111.291 4.93098 110.959 4.26619C110.627 3.43521 109.715 2.85351 108.221 2.52111C106.893 2.18872 104.735 2.02253 101.747 2.02253C101.277 1.99642 100.779 1.97237 100.253 1.95037C97.4261 1.83228 93.7741 1.77324 89.2965 1.77324V0.277452H146.068V1.77324C140.922 1.77324 136.855 1.85633 133.867 2.02253C130.879 2.02253 128.638 2.18872 127.144 2.52111C125.816 2.85351 124.986 3.43521 124.654 4.26619C124.322 4.93098 124.156 5.92816 124.156 7.25773V167.804C124.156 169.134 124.322 170.214 124.654 171.045C124.986 171.71 125.816 172.208 127.144 172.541C128.638 172.873 130.879 173.123 133.867 173.289C136.855 173.289 140.922 173.289 146.068 173.289V174.784H89.2965V173.289Z" fill="black"/>
<path d="M271.597 174.784L157.057 20.2211V150.104C157.057 157.915 158.8 163.732 162.286 167.555C165.772 171.377 173.74 173.289 186.19 173.289V174.784H135.643V173.289C144.441 173.289 149.919 171.377 152.077 167.555C154.401 163.732 155.563 157.915 155.563 150.104V17.9775L142.366 0.277452H157.555L274.336 158.331V24.9577C274.336 17.1465 272.593 11.3296 269.107 7.50704C265.621 3.6845 257.653 1.77324 245.203 1.77324V0.277452H295.75V1.77324C287.118 1.77324 281.64 3.6845 279.316 7.50704C276.992 11.3296 275.83 17.1465 275.83 24.9577V160.325L278.618 164.09L285.423 173.28L286.537 174.784H271.597Z" fill="black"/>
<path d="M392.465 173.289C402.093 173.289 407.737 173.039 409.397 172.541C411.223 172.042 411.306 170.463 409.646 167.804L359.099 89.0268L320.006 150.603C314.362 159.577 312.287 165.644 313.781 168.801C315.275 171.793 322.496 173.289 335.444 173.289V174.784H284.399V173.289C284.744 173.289 285.085 173.286 285.423 173.28C288.101 173.233 290.564 173.001 292.813 172.582C296.839 171.834 300.176 170.49 302.825 168.552C307.307 165.228 312.453 158.996 318.263 149.855L358.103 87.531L352.007 78.0269L350.943 76.3681L310.295 12.9915C308.635 10.3324 307.141 8.25492 305.813 6.75915C304.651 5.09718 303.24 3.9338 301.58 3.26901C300.086 2.60422 298.094 2.18872 295.604 2.02253C293.114 1.85633 289.711 1.77324 285.395 1.77324V0.277452H338.681V1.77324C329.053 1.77324 323.409 2.02253 321.749 2.52111C320.089 3.01971 320.089 4.59858 321.749 7.25773L358.581 64.6671L359.624 66.2925L365.573 75.5648L398.192 24.4591C403.836 15.6507 405.911 9.6676 404.417 6.50985C403.972 5.5686 403.4 4.05243 401.554 4.10694C398.109 2.55114 391.842 1.77324 382.754 1.77324V0.277452H432.803V1.77324C425.167 1.77324 419.191 3.43521 414.875 6.75915C410.559 9.91689 405.496 16.0662 399.686 25.207L366.569 77.3099L420.851 162.07C422.511 164.73 423.922 166.89 425.084 168.552C426.412 170.048 427.823 171.128 429.317 171.793C430.977 172.458 433.052 172.873 435.542 173.039C438.198 173.206 441.684 173.289 446 173.289V174.784H392.465V173.289Z" fill="black"/>
<path d="M89.2965 173.289H101.747C104.735 173.123 106.893 172.873 108.221 172.541C109.715 172.208 110.627 171.71 110.959 171.045C111.038 170.848 111.108 170.636 111.168 170.411C109.389 169.621 107.992 168.669 106.976 167.555C103.49 163.732 101.747 157.915 101.747 150.104V2.02253C101.277 1.99642 100.779 1.97237 100.253 1.95037V150.104C100.253 157.915 99.0905 163.732 96.7665 167.555C94.6085 171.377 89.1305 173.289 80.3326 173.289V174.784H89.2965V173.289Z" fill="black"/>
<path d="M358.581 64.6671L359.624 66.2925L385.911 25.207C391.721 16.0662 393.453 8.98376 397.769 5.82602C399.132 4.77615 399.709 4.16144 401.554 4.10694C398.109 2.55114 391.842 1.77324 382.754 1.77324V0.277452H360.89V1.77324C373.838 1.77324 381.059 3.35211 382.553 6.50985C384.047 9.6676 390.061 15.6507 384.417 24.4591L358.581 64.6671Z" fill="black"/>
<path d="M278.618 164.09L285.423 173.28C288.101 173.233 290.564 173.001 292.813 172.582C287.744 171.866 284.759 170.606 283.857 168.801C282.363 165.644 286.537 159.446 294.533 150.603L352.007 78.0269L350.943 76.3681L292.79 149.855C287.395 156.282 282.568 160.8 278.618 164.09Z" fill="black"/>
<path fill-rule="evenodd" clip-rule="evenodd" d="M70.9752 128.101C70.9752 154.961 66.1672 177 36.6324 177C16.0267 177 6.18171 166.21 0 155.879L21.7505 109.276C20.5483 113.21 19.3111 116.81 18.1501 120.189C15.1101 129.036 12.5924 136.363 12.5924 144.171C12.5924 158.634 21.5215 168.506 37.3192 168.506C38.8939 168.506 40.384 168.424 41.7881 168.223C43.176 168.023 44.4799 167.707 45.6987 167.235C46.2118 167.037 46.7099 166.811 47.1927 166.555C48.2601 165.988 49.2532 165.274 50.171 164.382C51.2715 163.312 52.2637 161.987 53.1461 160.354C56.5828 153.994 58.3522 142.966 58.3522 124.198L58.3227 1.98123L47.1028 1.88733H45.6827L43.9627 1.94023L21.6209 1.38715V0L88.1466 0.277452V1.77747V1.80232L77.3362 1.81729L70.9752 1.84073V128.101Z" fill="black"/>
<path d="M47.1927 166.555C48.2601 165.988 49.2532 165.274 50.171 164.382C51.2715 163.312 52.2637 161.987 53.1461 160.354C53.1461 160.354 47.1927 166.555 47.1927 158.329V166.555Z" fill="black"/>
<path d="M41.7881 168.223C43.176 168.023 44.4799 167.707 45.6987 167.235V158.329C45.6987 167.235 37.3192 168.506 37.3192 168.506C38.8939 168.506 40.384 168.424 41.7881 168.223Z" fill="black"/>
<path d="M47.1028 1.88733H45.6827L45.6987 150.104V158.329V167.235C46.2118 167.037 46.7099 166.811 47.1927 166.555V158.329V150.104V1.88733C47.1672 1.88591 47.1285 1.88874 47.1028 1.88733Z" fill="black"/>
<path d="M73.7327 2.21944C75.2739 1.83368 75.9918 1.89865 77.3362 1.81729L70.9752 1.84073V127.34L71.0217 7.25773C71.0217 5.92816 71.1877 4.93098 71.5197 4.26619C71.8517 3.43521 72.4047 2.55184 73.7327 2.21944Z" fill="black"/>
<path d="M33.9207 1.69164L21.6209 1.38715V1.88733L43.9627 1.94023L33.9207 1.69164Z" fill="black"/>
<path d="M89.2965 0.277452H88.1466V1.77747L89.2965 1.77324V0.277452Z" fill="black"/>
<path d="M57.8247 4.26619C58.1567 4.93098 58.3227 5.92816 58.3227 7.25773V1.98123L49.513 1.9075C49.513 1.9075 49.7448 1.92142 50.1362 1.94695C52.1918 2.05094 53.7427 2.27771 54.8367 2.52111C56.4967 2.85351 57.4927 3.43521 57.8247 4.26619Z" fill="black"/>
<path d="M58.3227 7.25773C58.3227 5.92816 58.1567 4.93098 57.8247 4.26619C57.4927 3.43521 56.4967 2.85351 54.8367 2.52111C53.7427 2.27771 52.1918 2.05094 50.1362 1.94695C52.1478 2.07817 58.3227 2.84068 58.3227 7.25773Z" fill="black"/>
</svg>
