<svg width="1548" height="27" viewBox="0 0 1548 27" fill="none" xmlns="http://www.w3.org/2000/svg">
<path fill-rule="evenodd" clip-rule="evenodd" d="M-8.52929e-10 26.9805L-6.12361e-07 12.9909L1548 13.0101L1548 27L1547 27C1547 19.8256 1541.18 14.0093 1534 14.0093L14 13.9901C6.8203 13.9901 1 19.8062 1 26.9805L-8.52929e-10 26.9805Z" fill="white"/>
<path fill-rule="evenodd" clip-rule="evenodd" d="M-5.6869e-07 13.9899L-1.18021e-06 0L0.999999 -4.37114e-08C0.999999 7.1744 6.8203 12.9907 14 12.9907L1534 13.0101C1541.18 13.0101 1547 7.1938 1547 0.019395L1548 0.0193949L1548 14.0093L-5.6869e-07 13.9899Z" fill="white"/>
</svg>
