<svg width="550" height="219" viewBox="0 0 550 219" fill="none" xmlns="http://www.w3.org/2000/svg">
<path d="M537.199 214.124C534.587 214.037 531.974 213.514 529.536 212.557C527.533 211.6 525.792 210.294 524.311 208.554C522.831 206.465 521.089 203.855 519.086 200.548L452.121 96.2035L492.962 32.0653C500.103 20.839 506.373 13.2677 511.685 9.35156C516.996 5.26134 524.398 3.17272 533.803 3.25975V1.34517H445.155V3.17272C461.091 3.17272 470.06 5.08729 471.889 9.00346C473.717 12.9196 481.119 20.2298 474.153 31.1081L442.281 80.6258L396.825 9.96074C394.736 6.65376 394.736 4.73919 396.825 4.13C398.828 3.52082 405.795 3.25975 417.725 3.25975V1.34517H302.43V3.17272C317.756 3.17272 327.597 5.52242 331.951 10.2218C336.217 14.9212 338.395 22.0574 338.395 31.7172V187.842C338.395 187.842 337.872 194.63 333.257 189.06L194.363 1.34517H108.763L26.7337 0.99707V3.34677L54.2511 3.4338L56.341 3.34677V185.927V196.022C56.341 206.987 45.9785 208.554 45.9785 208.554C26.4724 208.554 15.5003 196.37 15.5003 178.617C15.5003 168.957 18.6352 159.993 22.3797 149.115C23.86 144.938 25.3404 140.5 26.8208 135.713L0 192.976C7.66308 205.682 19.7673 218.997 45.1947 218.997C81.5943 218.997 87.6029 191.845 87.6029 158.775V157.818V9.96074C87.5158 8.65535 87.69 7.43699 88.2125 6.30565C88.3866 5.69647 88.7349 5.08729 89.2574 4.65216C89.6928 4.21703 90.3024 3.86893 90.912 3.7819C92.3923 3.4338 93.8727 3.25975 95.3531 3.25975H108.676H110.07C115.556 3.25975 120.084 3.34677 123.567 3.52082V186.014C123.567 195.587 122.174 202.81 119.3 207.51C116.688 212.209 109.895 214.559 99.0104 214.559V216.386H229.544V214.559C214.218 214.559 204.378 212.209 200.024 207.51C195.757 202.81 193.58 195.674 193.58 186.014V25.8865L334.824 216.212H353.285H413.632V214.385C397.696 214.385 388.727 212.557 386.898 208.902C385.07 204.986 387.595 197.589 394.561 186.449L442.804 110.65L505.153 207.684C507.156 210.991 507.069 212.905 504.892 213.514C502.802 214.124 495.923 214.472 483.993 214.472V216.299H550V214.472C544.775 214.385 540.508 214.298 537.199 214.124ZM65.5715 198.459C65.4845 198.546 65.3974 198.633 65.2232 198.807L65.1361 198.894C63.5687 200.286 58.1697 204.725 58.1697 196.022V3.34677H61.0434C61.0434 3.34677 61.3046 3.34677 61.8271 3.34677C64.3524 3.60785 71.9284 4.56513 71.9284 9.96074V153.989C72.0155 177.051 71.2318 192.976 65.5715 198.459ZM137.5 9.96074C137.5 9.96074 137.5 194.369 137.5 198.459C137.5 200.896 137.587 210.817 132.101 210.817C125.57 210.817 125.57 195.5 125.57 185.927V3.52082C129.227 3.52082 131.927 3.69487 133.581 4.13C135.41 4.56513 136.542 5.26134 136.977 6.30565C137.326 7.43699 137.587 8.74238 137.5 9.96074ZM191.925 185.84C191.925 195.413 190.445 202.636 187.658 207.336C185.046 212.035 178.254 214.385 167.369 214.385H165.104C162.318 214.298 159.531 213.95 156.832 213.427C155.177 212.992 154.219 212.383 153.784 211.6C153.349 210.294 153.087 208.989 153.174 207.597V9.96074C153.087 8.65535 153.349 7.43699 153.784 6.30565C154.219 5.26134 156.222 3.52082 158.835 3.52082H177.209L191.838 23.1887V185.84H191.925ZM364.257 202.81C361.035 206.552 353.285 215.777 344.926 204.899C344.664 204.638 343.01 202.288 343.01 202.288C340.397 198.459 340.223 194.978 340.223 194.108C340.223 194.021 340.223 193.934 340.223 193.934V31.8043C340.223 22.1444 341.704 15.0082 344.49 10.3088C347.015 6.21863 352.414 3.95595 360.687 3.34677C362.167 3.34677 363.387 3.4338 364.519 3.52082C367.044 3.60785 369.569 4.13 371.92 5.08729C374.097 5.95755 375.839 7.43699 377.145 9.35156C379.148 11.7883 381.064 14.312 382.631 17.0098L432.79 95.0721L372.008 190.279C372.095 190.279 368.437 196.457 364.257 202.81ZM392.559 185.579C385.679 196.457 381.499 205.073 376.187 209.337C369.743 213.863 367.566 208.206 367.479 206.03C367.305 201.766 368.176 201.331 374.272 191.149L434.183 97.0737L441.672 108.735L392.559 185.579ZM443.588 82.6274L475.982 32.0653C483.122 20.839 485.299 12.0494 490.611 8.22022C492.266 6.91483 493.049 6.1316 495.313 6.1316C497.577 6.04458 498.274 7.95915 498.884 9.09048C500.712 13.0067 498.187 20.3168 491.221 31.1951L450.989 94.1148L443.588 82.6274Z" fill="black"/>
</svg>
