<svg width="1821" height="28" viewBox="0 0 1821 28" fill="none" xmlns="http://www.w3.org/2000/svg">
<path fill-rule="evenodd" clip-rule="evenodd" d="M-9.70798e-10 26.9806L-6.12479e-07 12.9909L1821 13.0128L1821 27.0027L1820.05 27.0027C1820.05 19.8284 1814.54 14.0121 1807.74 14.0121L13.2639 13.9902C6.46171 13.9902 0.947423 19.8062 0.947423 26.9806L-9.70798e-10 26.9806Z" fill="black"/>
<path fill-rule="evenodd" clip-rule="evenodd" d="M-5.68808e-07 13.99L-1.18033e-06 8.2016e-05L0.947421 8.19746e-05C0.947422 7.17447 6.46171 12.9907 13.2639 12.9907L1807.74 13.0128C1814.54 13.0128 1820.05 7.19658 1820.05 0.0221906L1821 0.0221906L1821 14.0121L-5.68808e-07 13.99Z" fill="black"/>
</svg>
