<svg width="630" height="249" viewBox="0 0 630 249" fill="none" xmlns="http://www.w3.org/2000/svg">
<path d="M615.337 243.434C612.345 243.334 609.352 242.738 606.56 241.644C604.265 240.551 602.27 239.06 600.575 237.072C598.879 234.686 596.884 231.704 594.59 227.927L517.885 108.745L564.666 35.4862C572.845 22.6635 580.027 14.0156 586.111 9.54251C592.196 4.87066 600.674 2.48503 611.447 2.58443V0.397605H509.905V2.48503C528.159 2.48503 538.433 4.67186 540.527 9.14491C542.622 13.618 551.1 21.9677 543.121 34.3928L506.613 90.9521L454.546 10.2383C452.152 6.46108 452.152 4.27425 454.546 3.57844C456.84 2.88263 464.82 2.58443 478.485 2.58443V0.397605H346.42V2.48503C363.976 2.48503 375.247 5.16886 380.234 10.5365C385.122 15.9042 387.616 24.0551 387.616 35.0886V213.414C387.616 213.414 387.017 221.168 381.731 214.806L222.635 0.397605H124.584L30.6222 0V2.68383L62.1422 2.78323L64.5361 2.68383V211.228V222.758C64.5361 235.283 52.6662 237.072 52.6662 237.072C30.323 237.072 17.7549 223.156 17.7549 202.878C17.7549 191.844 21.3458 181.606 25.6349 169.181C27.3306 164.41 29.0263 159.34 30.722 153.873L0 219.279C8.77771 233.792 22.6425 249 51.7685 249C93.4626 249 100.345 217.987 100.345 180.214V179.121V10.2383C100.245 8.7473 100.445 7.35569 101.043 6.06347C101.243 5.36766 101.642 4.67186 102.24 4.17485C102.739 3.67784 103.437 3.28024 104.136 3.18084C105.831 2.78323 107.527 2.58443 109.223 2.58443H124.484H126.08C132.364 2.58443 137.551 2.68383 141.541 2.88263V211.327C141.541 222.261 139.945 230.511 136.653 235.879C133.661 241.247 125.88 243.931 113.412 243.931V246.018H262.932V243.931C245.377 243.931 234.105 241.247 229.118 235.879C224.231 230.511 221.737 222.36 221.737 211.327V28.4287L383.526 245.819H404.672H473.797V243.732C455.543 243.732 445.269 241.644 443.175 237.469C441.08 232.996 443.972 224.547 451.952 211.824L507.212 125.246L578.63 236.078C580.925 239.855 580.825 242.042 578.331 242.738C575.937 243.434 568.057 243.831 554.392 243.831V245.919H630V243.831C624.015 243.732 619.128 243.632 615.337 243.434ZM75.1092 225.541C75.0095 225.641 74.9098 225.74 74.7103 225.939L74.6105 226.038C72.8151 227.629 66.6308 232.698 66.6308 222.758V2.68383H69.9224C69.9224 2.68383 70.2217 2.68383 70.8201 2.68383C73.7128 2.98204 82.3908 4.07545 82.3908 10.2383V174.747C82.4905 201.089 81.5928 219.279 75.1092 225.541ZM157.5 10.2383C157.5 10.2383 157.5 220.869 157.5 225.541C157.5 228.325 157.6 239.656 151.316 239.656C143.835 239.656 143.835 222.162 143.835 211.228V2.88263C148.024 2.88263 151.116 3.08144 153.011 3.57844C155.106 4.07545 156.403 4.87066 156.902 6.06347C157.301 7.35569 157.6 8.84671 157.5 10.2383ZM219.842 211.128C219.842 222.062 218.146 230.313 214.954 235.68C211.962 241.048 204.181 243.732 191.713 243.732H189.12C185.928 243.632 182.736 243.235 179.644 242.638C177.749 242.141 176.651 241.446 176.153 240.551C175.654 239.06 175.355 237.569 175.454 235.978V10.2383C175.355 8.7473 175.654 7.35569 176.153 6.06347C176.651 4.87066 178.946 2.88263 181.938 2.88263H202.984L219.742 25.3473V211.128H219.842ZM417.24 230.511C413.55 234.786 404.672 245.322 395.097 232.897C394.797 232.599 392.902 229.915 392.902 229.915C389.91 225.541 389.71 221.565 389.71 220.571C389.71 220.472 389.71 220.372 389.71 220.372V35.188C389.71 24.1545 391.406 16.0036 394.598 10.6359C397.491 5.96407 403.675 3.37964 413.151 2.68383C414.846 2.68383 416.243 2.78323 417.54 2.88263C420.432 2.98204 423.325 3.57844 426.018 4.67186C428.512 5.66587 430.507 7.35569 432.003 9.54251C434.297 12.3257 436.491 15.2084 438.287 18.2898L495.741 107.453L426.118 216.198C426.218 216.198 422.028 223.255 417.24 230.511ZM449.658 210.83C441.778 223.255 436.99 233.096 430.906 237.966C423.524 243.135 421.031 236.674 420.931 234.189C420.732 229.319 421.729 228.822 428.711 217.192L497.337 109.739L505.915 123.059L449.658 210.83ZM508.11 93.2383L545.215 35.4862C553.395 22.6635 555.888 12.624 561.973 8.2503C563.868 6.75928 564.766 5.86467 567.359 5.86467C569.953 5.76527 570.75 7.9521 571.449 9.24431C573.543 13.7174 570.651 22.0671 562.671 34.4922L516.588 106.359L508.11 93.2383Z" fill="white"/>
</svg>
