<svg width="732" height="292" viewBox="0 0 732 292" fill="none" xmlns="http://www.w3.org/2000/svg">
<path d="M714.963 285.491C711.486 285.375 708.009 284.678 704.764 283.4C702.099 282.122 699.781 280.379 697.811 278.056C695.84 275.268 693.523 271.783 690.857 267.369L601.733 128.084L656.088 42.4679C665.592 27.4823 673.936 17.3757 681.006 12.1482C688.075 6.68831 697.927 3.90029 710.443 4.01645V1.46076H592.461V3.90029C613.67 3.90029 625.607 6.45597 628.041 11.6835C630.475 16.9111 640.326 26.6692 631.055 41.1901L588.637 107.29L528.139 12.9614C525.357 8.54699 525.357 5.9913 528.139 5.17813C530.804 4.36496 540.076 4.01645 555.954 4.01645V1.46076H402.507V3.90029C422.905 3.90029 436.001 7.03681 441.796 13.3099C447.475 19.5829 450.372 29.1087 450.372 42.0033V250.408C450.372 250.408 449.677 259.469 443.535 252.034L258.68 1.46076H144.754L35.5801 0.996094V4.13262L72.2033 4.24879L74.9848 4.13262V247.852V261.328C74.9848 275.965 61.1932 278.056 61.1932 278.056C35.2324 278.056 20.6295 261.793 20.6295 238.094C20.6295 225.2 24.8018 213.234 29.7853 198.713C31.7555 193.137 33.7258 187.213 35.696 180.824L0 257.262C10.1989 274.222 26.3084 291.996 60.1501 291.996C108.595 291.996 116.592 255.752 116.592 211.608V210.33V12.9614C116.476 11.2188 116.707 9.5925 117.403 8.08232C117.635 7.26915 118.098 6.45597 118.794 5.87514C119.373 5.2943 120.184 4.82963 120.996 4.71346C122.966 4.24879 124.936 4.01645 126.906 4.01645H144.638H146.493C153.794 4.01645 159.821 4.13262 164.457 4.36496V247.969C164.457 260.747 162.602 270.389 158.778 276.662C155.301 282.935 146.261 286.072 131.774 286.072V288.511H305.502V286.072C285.105 286.072 272.008 282.935 266.213 276.662C260.535 270.389 257.637 260.863 257.637 247.969V34.22L445.621 288.279H470.191H550.507V285.839C529.298 285.839 517.36 283.4 514.927 278.521C512.493 273.293 515.854 263.419 525.125 248.549L589.332 147.367L672.313 276.894C674.979 281.309 674.863 283.864 671.966 284.678C669.184 285.491 660.029 285.955 644.151 285.955V288.395H732V285.955C725.046 285.839 719.367 285.723 714.963 285.491ZM87.2698 264.581C87.1539 264.697 87.038 264.813 86.8062 265.045L86.6903 265.161C84.6042 267.02 77.4186 272.945 77.4186 261.328V4.13262H81.2432C81.2432 4.13262 81.5909 4.13262 82.2863 4.13262C85.6473 4.48112 95.7302 5.75897 95.7302 12.9614V205.219C95.8461 236.003 94.803 257.262 87.2698 264.581ZM183 12.9614C183 12.9614 183 259.121 183 264.581C183 267.833 183.116 281.076 175.814 281.076C167.122 281.076 167.122 260.631 167.122 247.852V4.36496C171.99 4.36496 175.583 4.59729 177.785 5.17813C180.219 5.75897 181.725 6.68831 182.305 8.08232C182.768 9.5925 183.116 11.335 183 12.9614ZM255.435 247.736C255.435 260.515 253.465 270.157 249.756 276.43C246.279 282.703 237.239 285.839 222.752 285.839H219.739C216.03 285.723 212.322 285.258 208.729 284.561C206.527 283.981 205.252 283.167 204.673 282.122C204.093 280.379 203.745 278.637 203.861 276.778V12.9614C203.745 11.2188 204.093 9.5925 204.673 8.08232C205.252 6.68831 207.918 4.36496 211.395 4.36496H235.849L255.319 30.6188V247.736H255.435ZM484.794 270.389C480.505 275.384 470.191 287.698 459.065 273.177C458.717 272.828 456.515 269.692 456.515 269.692C453.038 264.581 452.806 259.934 452.806 258.772C452.806 258.656 452.806 258.54 452.806 258.54V42.1194C452.806 29.2248 454.776 19.6991 458.485 13.426C461.846 7.96615 469.032 4.94579 480.042 4.13262C482.012 4.13262 483.635 4.24879 485.141 4.36496C488.502 4.48112 491.863 5.17813 494.992 6.45597C497.89 7.61765 500.208 9.5925 501.946 12.1482C504.612 15.4009 507.162 18.7697 509.248 22.3709L576.004 126.573L495.108 253.661C495.224 253.661 490.357 261.909 484.794 270.389ZM522.46 247.388C513.304 261.909 507.741 273.409 500.671 279.102C492.095 285.142 489.198 277.591 489.082 274.687C488.85 268.995 490.009 268.414 498.122 254.822L577.858 129.245L587.825 144.812L522.46 247.388ZM590.375 109.961L633.488 42.4679C642.992 27.4823 645.889 15.7494 652.959 10.638C655.161 8.89549 656.204 7.84999 659.217 7.84999C662.231 7.73382 663.158 10.2895 663.969 11.7997C666.403 17.0272 663.042 26.7853 653.77 41.3063L600.226 125.295L590.375 109.961Z" fill="black"/>
</svg>
