<svg width="414" height="164" viewBox="0 0 414 164" fill="none" xmlns="http://www.w3.org/2000/svg">
<path d="M404.364 160.334C402.398 160.268 400.432 159.875 398.596 159.155C397.089 158.435 395.778 157.453 394.663 156.144C393.549 154.572 392.238 152.608 390.731 150.121L340.324 71.6232L371.066 23.3725C376.441 14.9269 381.161 9.23114 385.159 6.28503C389.157 3.20798 394.729 1.63673 401.808 1.7022V0.261876H335.08V1.63673C347.076 1.63673 353.827 3.07705 355.204 6.02315C356.58 8.96926 362.152 14.4687 356.908 22.6523L332.917 59.9042L298.701 6.74331C297.128 4.25549 297.128 2.81517 298.701 2.35689C300.209 1.8986 305.453 1.7022 314.433 1.7022V0.261876H227.648V1.63673C239.184 1.63673 246.591 3.40439 249.868 6.93972C253.08 10.475 254.719 15.8435 254.719 23.1106V140.562C254.719 140.562 254.326 145.669 250.852 141.479L146.303 0.261876H81.8692L20.1232 0V1.76766L40.8363 1.83313L42.4094 1.76766V139.122V146.716C42.4094 154.965 34.6092 156.144 34.6092 156.144C19.9265 156.144 11.6675 146.978 11.6675 133.622C11.6675 126.355 14.0272 119.612 16.8458 111.428C17.9601 108.286 19.0744 104.947 20.1887 101.346L0 144.425C5.76821 153.983 14.8794 164 34.0193 164C61.4183 164 65.9411 143.574 65.9411 118.695V117.975V6.74331C65.8756 5.76128 66.0066 4.84471 66.3999 3.99361C66.531 3.53533 66.7932 3.07705 67.1865 2.7497C67.5143 2.42236 67.9731 2.16048 68.4319 2.09501C69.5462 1.83313 70.6605 1.7022 71.7749 1.7022H81.8037H82.8524C86.982 1.7022 90.3904 1.76766 93.0124 1.8986V139.187C93.0124 146.389 91.9636 151.823 89.8005 155.358C87.8341 158.893 82.7213 160.661 74.5279 160.661V162.036H172.784V160.661C161.248 160.661 153.841 158.893 150.563 155.358C147.351 151.823 145.713 146.454 145.713 139.187V18.7242L252.031 161.905H265.927H311.352V160.53C299.357 160.53 292.605 159.155 291.229 156.406C289.852 153.459 291.753 147.895 296.997 139.515L333.311 82.491L380.243 155.489C381.75 157.977 381.685 159.417 380.046 159.875C378.473 160.334 373.295 160.596 364.315 160.596V161.97H414V160.596C410.067 160.53 406.855 160.465 404.364 160.334ZM49.3575 148.549C49.292 148.615 49.2264 148.68 49.0953 148.811L49.0298 148.877C47.8499 149.924 43.7859 153.263 43.7859 146.716V1.76766H45.949C45.949 1.76766 46.1457 1.76766 46.5389 1.76766C48.4398 1.96407 54.1425 2.68423 54.1425 6.74331V115.095C54.208 132.444 53.6181 144.425 49.3575 148.549ZM103.5 6.74331C103.5 6.74331 103.5 145.472 103.5 148.549C103.5 150.382 103.566 157.846 99.4361 157.846C94.52 157.846 94.52 146.323 94.52 139.122V1.8986C97.273 1.8986 99.3049 2.02954 100.55 2.35689C101.927 2.68423 102.779 3.20798 103.107 3.99361C103.369 4.84471 103.566 5.82675 103.5 6.74331ZM144.467 139.056C144.467 146.258 143.353 151.692 141.256 155.227C139.289 158.762 134.176 160.53 125.983 160.53H124.279C122.181 160.465 120.084 160.203 118.052 159.81C116.806 159.483 116.085 159.024 115.757 158.435C115.43 157.453 115.233 156.471 115.299 155.424V6.74331C115.233 5.76128 115.43 4.84471 115.757 3.99361C116.085 3.20798 117.593 1.8986 119.559 1.8986H133.39L144.402 16.6946V139.056H144.467ZM274.187 151.823C271.761 154.638 265.927 161.578 259.635 153.394C259.438 153.198 258.193 151.43 258.193 151.43C256.226 148.549 256.095 145.931 256.095 145.276C256.095 145.21 256.095 145.145 256.095 145.145V23.1761C256.095 15.909 257.21 10.5405 259.307 7.00519C261.208 3.92814 265.272 2.22595 271.499 1.76766C272.613 1.76766 273.531 1.83313 274.383 1.8986C276.284 1.96407 278.185 2.35689 279.955 3.07705C281.593 3.73174 282.904 4.84471 283.888 6.28503C285.395 8.11816 286.837 10.0168 288.017 12.0463L325.773 70.7721L280.02 142.395C280.086 142.395 277.333 147.044 274.187 151.823ZM295.49 138.86C290.311 147.044 287.165 153.525 283.167 156.733C278.316 160.137 276.677 155.882 276.612 154.245C276.481 151.037 277.136 150.71 281.725 143.05L326.821 72.2778L332.459 81.0507L295.49 138.86ZM333.901 61.41L358.284 23.3725C363.659 14.9269 365.298 8.31457 369.296 5.43393C370.542 4.4519 371.132 3.86267 372.836 3.86267C374.54 3.79721 375.065 5.23752 375.523 6.08862C376.9 9.03473 374.999 14.5341 369.755 22.7178L339.472 70.0519L333.901 61.41Z" fill="black"/>
</svg>
