<svg width="713" height="283" viewBox="0 0 713 283" fill="none" xmlns="http://www.w3.org/2000/svg">
<path d="M696.405 276.673C693.019 276.56 689.632 275.883 686.471 274.64C683.875 273.397 681.617 271.703 679.698 269.443C677.779 266.732 675.521 263.343 672.925 259.05L586.114 123.594L639.058 40.3317C648.315 25.7581 656.443 15.9293 663.329 10.8455C670.215 5.53573 679.811 2.82435 692.003 2.93733V0.451896H577.083V2.82435C597.741 2.82435 609.369 5.30978 611.74 10.3936C614.11 15.4774 623.706 24.9673 614.675 39.089L573.358 103.371L514.43 11.6363C511.721 7.34331 511.721 4.85788 514.43 4.06707C517.027 3.27625 526.058 2.93733 541.523 2.93733V0.451896H392.06V2.82435C411.928 2.82435 424.684 5.87465 430.329 11.9752C435.86 18.0758 438.682 27.3397 438.682 39.8798V242.555C438.682 242.555 438.005 251.367 432.022 244.137L251.966 0.451896H140.997L34.6566 0V3.0503L70.3292 3.16327L73.0385 3.0503V240.07V253.175C73.0385 267.41 59.6048 269.443 59.6048 269.443C34.3179 269.443 20.094 253.627 20.094 230.58C20.094 218.04 24.158 206.404 29.0122 192.282C30.9313 186.859 32.8504 181.097 34.7695 174.884L0 249.221C9.93414 265.715 25.6255 283 58.5888 283C105.776 283 113.565 247.752 113.565 204.822V203.579V11.6363C113.452 9.94172 113.678 8.36008 114.355 6.89142C114.581 6.1006 115.033 5.30978 115.71 4.74491C116.275 4.18004 117.065 3.72814 117.855 3.61517C119.774 3.16327 121.693 2.93733 123.612 2.93733H140.884H142.69C149.802 2.93733 155.672 3.0503 160.188 3.27625V240.183C160.188 252.61 158.382 261.987 154.656 268.087C151.27 274.188 142.465 277.238 128.354 277.238V279.611H297.573V277.238C277.704 277.238 264.948 274.188 259.304 268.087C253.772 261.987 250.95 252.723 250.95 240.183V32.3106L434.054 279.385H457.986H536.218V277.012C515.559 277.012 503.932 274.64 501.561 269.895C499.19 264.811 502.464 255.208 511.495 240.748L574.035 142.347L654.863 268.313C657.459 272.606 657.346 275.092 654.524 275.883C651.815 276.673 642.897 277.125 627.431 277.125V279.498H713V277.125C706.227 277.012 700.695 276.899 696.405 276.673ZM85.0046 256.338C84.8917 256.451 84.7788 256.564 84.553 256.79L84.4401 256.903C82.4082 258.711 75.4091 264.472 75.4091 253.175V3.0503H79.1344C79.1344 3.0503 79.4731 3.0503 80.1504 3.0503C83.4242 3.38922 93.2454 4.63194 93.2454 11.6363V198.608C93.3583 228.546 92.3423 249.221 85.0046 256.338ZM178.25 11.6363C178.25 11.6363 178.25 251.028 178.25 256.338C178.25 259.501 178.363 272.38 171.251 272.38C162.784 272.38 162.784 252.497 162.784 240.07V3.27625C167.526 3.27625 171.025 3.5022 173.17 4.06707C175.541 4.63194 177.008 5.53573 177.573 6.89142C178.024 8.36008 178.363 10.0547 178.25 11.6363ZM248.805 239.957C248.805 252.384 246.886 261.761 243.273 267.861C239.887 273.962 231.082 277.012 216.971 277.012H214.035C210.423 276.899 206.811 276.448 203.311 275.77C201.166 275.205 199.924 274.414 199.36 273.397C198.796 271.703 198.457 270.008 198.57 268.2V11.6363C198.457 9.94172 198.796 8.36008 199.36 6.89142C199.924 5.53573 202.521 3.27625 205.908 3.27625H229.727L248.692 28.8084V239.957H248.805ZM472.21 261.987C468.033 266.845 457.986 278.82 447.149 264.698C446.81 264.359 444.665 261.309 444.665 261.309C441.279 256.338 441.053 251.819 441.053 250.689C441.053 250.576 441.053 250.463 441.053 250.463V39.9928C441.053 27.4527 442.972 18.1888 446.585 12.0882C449.858 6.77844 456.857 3.84112 467.582 3.0503C469.501 3.0503 471.081 3.16327 472.549 3.27625C475.823 3.38922 479.096 4.06707 482.144 5.30978C484.966 6.43952 487.224 8.36008 488.918 10.8455C491.514 14.0088 493.997 17.285 496.029 20.7872L561.053 122.125L482.257 245.719C482.37 245.719 477.629 253.74 472.21 261.987ZM508.899 239.618C499.981 253.74 494.562 264.924 487.676 270.46C479.322 276.335 476.5 268.991 476.387 266.167C476.161 260.631 477.29 260.066 485.192 246.848L562.859 124.723L572.567 139.862L508.899 239.618ZM575.051 105.97L617.045 40.3317C626.302 25.7581 629.124 14.3477 636.01 9.37685C638.155 7.68224 639.171 6.66547 642.106 6.66547C645.041 6.5525 645.945 9.03792 646.735 10.5066C649.105 15.5904 645.832 25.0802 636.801 39.202L584.646 120.882L575.051 105.97Z" fill="white"/>
</svg>
