<svg width="113" height="129" viewBox="0 0 113 129" fill="none" xmlns="http://www.w3.org/2000/svg">
<path fill-rule="evenodd" clip-rule="evenodd" d="M97.2125 71.3123L111.247 63.2322L97.2469 55.0948C103.469 58.7114 103.45 67.7211 97.2125 71.3123ZM16.2285 117.939C9.99708 121.526 2.2283 117.018 2.22873 109.822L2.19449 126.019L16.2285 117.939ZM2.42667 16.2175C2.44191 9.0097 10.2386 4.52079 16.4607 8.13742L2.46094 0L2.42667 16.2175Z" fill="#4CFF53"/>
<path fill-rule="evenodd" clip-rule="evenodd" d="M97.2125 71.3123L111.247 63.2322L97.2469 55.0948C103.469 58.7114 103.45 67.7211 97.2125 71.3123ZM16.2285 117.939C9.99708 121.526 2.2283 117.018 2.22873 109.822L2.19449 126.019L16.2285 117.939ZM2.42667 16.2175C2.44191 9.0097 10.2386 4.52079 16.4607 8.13742L2.46094 0L2.42667 16.2175Z" fill="#4CFF53"/>
<path d="M16.2285 117.939L97.2125 71.3123C103.45 67.7211 103.469 58.7114 97.2469 55.0948L16.4607 8.13742C10.2386 4.52079 2.44191 9.0097 2.42667 16.2175L2.22875 109.801L2.22873 109.822C2.2283 117.018 9.99708 121.526 16.2285 117.939Z" fill="black" fill-opacity="0.5"/>
<path fill-rule="evenodd" clip-rule="evenodd" d="M111.247 63.2322L2.46094 0L2.22875 109.801L2.22873 109.822L2.19449 126.019L111.247 63.2322ZM15.7301 117.069L96.7141 70.4425C102.283 67.2361 102.3 59.1917 96.7448 55.9625L15.9586 9.00513C10.4023 5.77554 3.44102 9.78437 3.42741 16.2195L3.2295 109.803C3.22948 109.81 3.22948 109.816 3.22948 109.823C3.22987 116.247 10.1659 120.273 15.7301 117.069ZM3.21652 115.953C4.92284 118.271 7.55282 119.799 10.4079 120.133L3.1989 124.284L3.21652 115.953ZM3.44039 10.07C5.15649 7.7592 7.79291 6.24123 10.6493 5.9191L3.45801 1.73911L3.44039 10.07ZM102.053 59.048C103.192 61.6924 103.186 64.739 102.036 67.3787L109.245 63.2281L102.053 59.048Z" fill="#4CFF53"/>
</svg>
