<svg width="113" height="46" viewBox="0 0 113 46" fill="none" xmlns="http://www.w3.org/2000/svg">
<path fill-rule="evenodd" clip-rule="evenodd" d="M18.1205 1.58462C18.2046 1.37336 18.3447 1.14877 18.6812 1.06426C19.0716 0.966189 19.2535 0.982708 19.5941 0.962024L22.3331 0.956467L25.1152 0.950823V38.6621V40.7532V43.0174V44.5565H22.6245V44.9367H29.0776H34.3669H34.6924V44.5565H33.9171C33.1601 44.5142 32.5923 44.4508 32.2137 44.3663C31.8773 44.2818 31.667 44.155 31.5829 43.986C31.4987 43.7748 31.4567 43.5001 31.4567 43.1621V2.34519C31.4567 2.00716 31.4987 1.75364 31.5829 1.58462C31.667 1.37336 31.8773 1.22547 32.2137 1.14096C32.5923 1.05646 32.9869 1.0809 33.7597 1.0809C33.7597 1.0809 34.6924 1.0142 34.6924 2.34519V43.1621V44.4453V44.4698V44.5565V44.9367H37.0084H43.4615H47.1737V44.5565H41.2885V43.5645V43.2683V7.66668L68.0815 43.9467L68.5318 44.5565H64.4747V44.9367H68.8127H72.0563H72.5979H77.4076H84.9892V44.5565H77.9893L77.4099 44.5528L81.0778 38.7888L90.9825 23.1339L103.789 43.1621L104.659 44.5565H99.4362V44.9367H113V44.5565H108.412L106.807 41.9906C106.749 41.8979 106.689 41.8024 106.628 41.7043L92.8751 20.1551L101.266 6.90857L105.032 0.950823H109.656V0.570539H104.117H96.9758H91.4364V0.950823H98.9889L97.5136 3.16059L89.4567 14.7595L81.5194 2.34519L80.7139 0.950823H85.8093V0.570539H74.9321H72.3086H69.5066H62.1254V0.950823H69.5066V6.84519L69.5107 40.7287V40.7577L41.2885 2.4309L40.1907 0.950823H43.4615V0.570539L39.9186 0.570539H37.0084H36.0703H34.6924H22.6245H22.3331L5.47793 0.5V0.852664V0.97983L11.1385 0.993279H11.5743L11.5784 38.6621V40.7532C11.5784 43.0174 9.45532 43.3405 9.45532 43.3405C5.45276 43.3405 3.19044 40.8307 3.19044 37.1537C3.19044 35.1686 3.82834 33.3058 4.59857 31.0565C4.89272 30.1975 5.20618 29.2822 5.51077 28.2821H4.64065L0 40.1303C1.56622 42.7568 4.06057 45.5 9.28129 45.5C16.7643 45.5 17.9825 39.8969 17.9825 33.0681V32.8746L17.9943 2.34519C17.9943 2.00716 18.0363 1.75364 18.1205 1.58462ZM28.2392 2.34519V43.1621V44.4453V44.4698V44.5565H27.0021V44.4698V44.4453V41.268V1.10991V1.06931C27.1655 1.08829 27.3045 1.11218 27.4191 1.14096C27.7976 1.22547 28.0289 1.37336 28.1131 1.58462C28.1972 1.75364 28.2392 2.00716 28.2392 2.34519ZM97.7757 6.90857L91.1156 17.354L91.5004 17.956L102.147 1.67041L102.618 0.950823H101.893L101.54 1.46194L101.461 1.57592L97.7757 6.90857ZM14.7843 32.0759L14.7768 1.0037L13.4653 0.992688V1.06484V1.10991V41.268C14.336 39.651 14.7843 36.8472 14.7843 32.0759ZM39.4016 40.7532V43.0174V44.5565H37.9098V43.1621V2.34519V0.950823H39.3975V0.97983L39.4016 38.6621V39.3457V40.7532ZM74.2333 44.3683L89.5604 20.9235L89.1857 20.3373L72.0762 43.6325L71.3976 44.5565H74.1115L74.2244 44.3819L74.2333 44.3683ZM71.3976 1.74347V40.7577L87.4588 17.6356L78.6174 3.80293L76.8035 0.950823H71.3976V1.74347Z" fill="white"/>
</svg>
