<svg width="696" height="21" viewBox="0 0 696 21" fill="none" xmlns="http://www.w3.org/2000/svg">
<path fill-rule="evenodd" clip-rule="evenodd" d="M-7.17755e-10 20.5588L-4.53642e-07 10.1971L696 10.2133L696 20.5752L695 20.5752C695 15.2613 690.863 10.9534 685.761 10.9534L10.2391 10.9372C5.13647 10.9372 1 15.245 1 20.5588L-7.17755e-10 20.5588Z" fill="black"/>
<path fill-rule="evenodd" clip-rule="evenodd" d="M-4.21297e-07 10.937L-8.74228e-07 0.575195L1 0.575195C1 5.88902 5.13647 10.1969 10.2391 10.1969L685.761 10.2133C690.863 10.2133 695 5.90542 695 0.591599L696 0.591599L696 10.9534L-4.21297e-07 10.937Z" fill="black"/>
</svg>
