<svg width="70" height="34" viewBox="0 0 70 34" fill="none" xmlns="http://www.w3.org/2000/svg">
<rect x="1.5" y="2.40137" width="67" height="30" stroke="black" stroke-width="3"/>
<path d="M14.8857 19.3022C14.8964 18.8739 14.9071 18.376 14.9178 17.8085C14.9285 17.2302 14.9339 16.6252 14.9339 15.9935C14.9446 15.3617 14.95 14.7139 14.95 14.05C14.9607 13.3754 14.966 12.7329 14.966 12.1225H22.8364V23.0447H20.8768V13.9536H16.8774C16.8774 14.3926 16.872 14.8638 16.8613 15.3671C16.8613 15.8596 16.856 16.3575 16.8453 16.8608C16.8453 17.3534 16.8399 17.8352 16.8292 18.3064C16.8185 18.7668 16.8078 19.1845 16.7971 19.5592C16.7542 20.8228 16.4758 21.7222 15.9619 22.2576C15.4479 22.7823 14.6501 23.0447 13.5686 23.0447H12.7334V21.1815H13.2795C13.7507 21.1815 14.1308 21.0583 14.4199 20.8121C14.709 20.5658 14.8643 20.0625 14.8857 19.3022Z" fill="black"/>
<path d="M30.3008 23.2053C29.5084 23.2053 28.7803 23.0875 28.1164 22.8519C27.4632 22.6057 26.901 22.2469 26.4299 21.7758C25.9587 21.3046 25.5893 20.721 25.3216 20.025C25.0646 19.3183 24.9361 18.5045 24.9361 17.5836C24.9361 16.6841 25.0646 15.881 25.3216 15.1743C25.5893 14.4676 25.9587 13.8786 26.4299 13.4075C26.901 12.9363 27.4632 12.5776 28.1164 12.3313C28.7803 12.0851 29.5084 11.9619 30.3008 11.9619C31.1039 11.9619 31.8374 12.0851 32.5013 12.3313C33.1652 12.5776 33.7274 12.9363 34.1878 13.4075C34.659 13.8786 35.023 14.4676 35.28 15.1743C35.5477 15.881 35.6816 16.6841 35.6816 17.5836C35.6816 18.5045 35.5477 19.3183 35.28 20.025C35.023 20.721 34.659 21.3046 34.1878 21.7758C33.7274 22.2469 33.1652 22.6057 32.5013 22.8519C31.8374 23.0875 31.1039 23.2053 30.3008 23.2053ZM30.3008 21.4545C31.3823 21.4545 32.2175 21.1065 32.8065 20.4105C33.3954 19.7038 33.6899 18.7615 33.6899 17.5836C33.6899 16.395 33.3954 15.4527 32.8065 14.7567C32.2175 14.0607 31.3823 13.7127 30.3008 13.7127C29.23 13.7127 28.3948 14.0607 27.7951 14.7567C27.2062 15.4527 26.9117 16.395 26.9117 17.5836C26.9117 18.7615 27.2062 19.7038 27.7951 20.4105C28.3948 21.1065 29.23 21.4545 30.3008 21.4545Z" fill="black"/>
<path d="M37.7621 23.0447V12.1225H45.0221V13.9536H39.7217V23.0447H37.7621Z" fill="black"/>
<path d="M51.1469 23.2053C50.3545 23.2053 49.6263 23.0875 48.9624 22.8519C48.3093 22.6057 47.7471 22.2469 47.2759 21.7758C46.8048 21.3046 46.4354 20.721 46.1677 20.025C45.9107 19.3183 45.7822 18.5045 45.7822 17.5836C45.7822 16.6841 45.9107 15.881 46.1677 15.1743C46.4354 14.4676 46.8048 13.8786 47.2759 13.4075C47.7471 12.9363 48.3093 12.5776 48.9624 12.3313C49.6263 12.0851 50.3545 11.9619 51.1469 11.9619C51.95 11.9619 52.6835 12.0851 53.3474 12.3313C54.0113 12.5776 54.5734 12.9363 55.0339 13.4075C55.505 13.8786 55.8691 14.4676 56.1261 15.1743C56.3938 15.881 56.5276 16.6841 56.5276 17.5836C56.5276 18.5045 56.3938 19.3183 56.1261 20.025C55.8691 20.721 55.505 21.3046 55.0339 21.7758C54.5734 22.2469 54.0113 22.6057 53.3474 22.8519C52.6835 23.0875 51.95 23.2053 51.1469 23.2053ZM51.1469 21.4545C52.2284 21.4545 53.0636 21.1065 53.6525 20.4105C54.2415 19.7038 54.5359 18.7615 54.5359 17.5836C54.5359 16.395 54.2415 15.4527 53.6525 14.7567C53.0636 14.0607 52.2284 13.7127 51.1469 13.7127C50.0761 13.7127 49.2409 14.0607 48.6412 14.7567C48.0523 15.4527 47.7578 16.395 47.7578 17.5836C47.7578 18.7615 48.0523 19.7038 48.6412 20.4105C49.2409 21.1065 50.0761 21.4545 51.1469 21.4545Z" fill="black"/>
</svg>
