<svg width="113" height="129" viewBox="0 0 113 129" fill="none" xmlns="http://www.w3.org/2000/svg">
<path fill-rule="evenodd" clip-rule="evenodd" d="M97.7516 71.3123L111.786 63.2322L97.7859 55.0948C104.008 58.7114 103.989 67.7211 97.7516 71.3123ZM16.7676 117.939C10.5361 121.526 2.76737 117.018 2.76779 109.822L2.73355 126.019L16.7676 117.939ZM2.96573 16.2175C2.98097 9.0097 10.7776 4.52079 16.9998 8.13742L3 0L2.96573 16.2175Z" fill="white"/>
<path fill-rule="evenodd" clip-rule="evenodd" d="M97.7516 71.3123L111.786 63.2322L97.7859 55.0948C104.008 58.7114 103.989 67.7211 97.7516 71.3123ZM16.7676 117.939C10.5361 121.526 2.76737 117.018 2.76779 109.822L2.73355 126.019L16.7676 117.939ZM2.96573 16.2175C2.98097 9.0097 10.7776 4.52079 16.9998 8.13742L3 0L2.96573 16.2175Z" fill="white"/>
<path d="M16.7676 117.939L97.7516 71.3123C103.989 67.7211 104.008 58.7114 97.7859 55.0948L16.9998 8.13742C10.7776 4.52079 2.98097 9.0097 2.96573 16.2175L2.76782 109.801L2.76779 109.822C2.76737 117.018 10.5361 121.526 16.7676 117.939Z" fill="black" fill-opacity="0.5"/>
<path fill-rule="evenodd" clip-rule="evenodd" d="M111.786 63.2322L3 0L2.76782 109.801L2.76779 109.822L2.73355 126.019L111.786 63.2322ZM16.2692 117.069L97.2532 70.4425C102.822 67.2361 102.839 59.1917 97.2838 55.9625L16.4977 9.00513C10.9414 5.77554 3.98008 9.78437 3.96648 16.2195L3.76856 109.803C3.76855 109.81 3.76854 109.816 3.76854 109.823C3.76893 116.247 10.7049 120.273 16.2692 117.069ZM3.75558 115.953C5.4619 118.271 8.09188 119.799 10.9469 120.133L3.73796 124.284L3.75558 115.953ZM3.97946 10.07C5.69555 7.7592 8.33197 6.24123 11.1884 5.9191L3.99707 1.73911L3.97946 10.07ZM102.592 59.048C103.731 61.6924 103.725 64.739 102.575 67.3787L109.784 63.2281L102.592 59.048Z" fill="white"/>
</svg>
