<svg width="310" height="174" viewBox="0 0 310 174" fill="none" xmlns="http://www.w3.org/2000/svg">
<path d="M0.132812 6.2057C0.132812 3.16239 2.60659 0.695312 5.65816 0.695312H303.607C306.659 0.695312 309.133 3.1624 309.133 6.20571V168.185C309.133 171.228 306.659 173.695 303.607 173.695H5.65816C2.6066 173.695 0.132812 171.228 0.132812 168.185V6.2057Z" fill="black"/>
<path d="M170.267 86.8464L140.52 104.672L139.915 70.0672L170.267 86.8464Z" fill="white"/>
<path d="M166.361 84.6871C168.097 85.6468 168.141 88.1208 166.439 89.1404L144.349 102.378C142.647 103.397 140.477 102.198 140.442 100.219L139.993 74.5205C139.958 72.5412 142.085 71.2668 143.821 72.2265L166.361 84.6871Z" fill="black"/>
<path d="M170.447 87.1466L170.969 86.8342L170.437 86.5401L166.531 84.3808L143.99 71.9202C143.989 71.9195 143.988 71.9189 143.987 71.9182L140.084 69.7609L139.554 69.4679L139.565 70.0733L139.643 74.523C139.643 74.5242 139.643 74.5254 139.643 74.5266L140.093 100.225L140.17 104.678L140.181 105.283L140.7 104.972L144.529 102.678L166.619 89.4406L170.447 87.1466ZM143.652 72.5328L166.192 84.9934C167.692 85.8226 167.729 87.9593 166.259 88.8402L144.169 102.078C142.697 102.96 140.822 101.921 140.792 100.212L140.343 74.5144C140.343 74.5133 140.343 74.5123 140.343 74.5113C140.315 72.8058 142.148 71.7046 143.648 72.5311C143.649 72.5317 143.651 72.5322 143.652 72.5328ZM167.892 87.8621C168.1 87.2301 168.088 86.5384 167.858 85.9141L169.566 86.8586L167.892 87.8621ZM140.826 102.112C141.27 102.609 141.877 102.944 142.534 103.057L140.86 104.06L140.826 102.112ZM141.984 71.6108C141.331 71.7467 140.736 72.1032 140.309 72.6149L140.275 70.6664L141.984 71.6108ZM0.482812 6.2057C0.482812 3.35659 2.799 1.04531 5.65816 1.04531H303.607C306.467 1.04531 308.783 3.35659 308.783 6.20571V168.185C308.783 171.034 306.467 173.345 303.607 173.345H5.65816C2.799 173.345 0.482812 171.034 0.482812 168.185V6.2057Z" stroke="white" stroke-width="0.7"/>
</svg>
