<svg width="321" height="127" viewBox="0 0 321 127" fill="none" xmlns="http://www.w3.org/2000/svg">
<path d="M313.529 124.161C312.004 124.11 310.48 123.806 309.057 123.248C307.888 122.691 306.871 121.93 306.007 120.916C305.143 119.699 304.127 118.178 302.958 116.252L263.875 55.4643L287.711 18.0994C291.878 11.5593 295.538 7.1485 298.638 4.86707C301.738 2.48423 306.058 1.26747 311.547 1.31816V0.202794H259.809V1.26747C269.109 1.26747 274.344 2.38283 275.411 4.66427C276.479 6.94571 280.799 11.2044 276.733 17.5417L258.132 46.3892L231.602 5.22196C230.382 3.29541 230.382 2.18004 231.602 1.82515C232.771 1.47026 236.837 1.31816 243.799 1.31816V0.202794H176.509V1.26747C185.454 1.26747 191.197 2.63633 193.738 5.37405C196.229 8.11178 197.499 12.2691 197.499 17.8966V108.85C197.499 108.85 197.194 112.804 194.501 109.56L113.438 0.202794H63.4783L15.6028 0V1.36886L31.6629 1.41956L32.8827 1.36886V107.735V113.616C32.8827 120.004 26.8347 120.916 26.8347 120.916C15.4503 120.916 9.04655 113.818 9.04655 103.476C9.04655 97.8483 10.8762 92.6263 13.0616 86.289C13.9256 83.8555 14.7896 81.2699 15.6536 78.4814L0 111.841C4.47245 119.243 11.5369 127 26.3773 127C47.6214 127 51.1282 111.182 51.1282 91.9166V91.3589V5.22196C51.0774 4.46148 51.1791 3.7517 51.484 3.09261C51.5857 2.73772 51.7889 2.38283 52.0939 2.12934C52.348 1.87585 52.7038 1.67305 53.0595 1.62236C53.9235 1.41956 54.7875 1.31816 55.6515 1.31816H63.4275H64.2407C67.4425 1.31816 70.0853 1.36886 72.1183 1.47026V107.785C72.1183 113.362 71.3051 117.57 69.6279 120.308C68.1032 123.046 64.139 124.414 57.7861 124.414V125.479H133.97V124.414C125.025 124.414 119.282 123.046 116.741 120.308C114.251 117.57 112.98 113.413 112.98 107.785V14.4998L195.416 125.378H206.19H241.411V124.313C232.11 124.313 226.875 123.248 225.808 121.119C224.741 118.838 226.215 114.528 230.28 108.039L258.437 63.8802L294.826 120.409C295.995 122.336 295.944 123.451 294.674 123.806C293.454 124.161 289.439 124.364 282.476 124.364V125.428H321V124.364C317.951 124.313 315.46 124.262 313.529 124.161ZM38.2699 115.035C38.2191 115.086 38.1683 115.137 38.0667 115.238L38.0158 115.289C37.101 116.1 33.95 118.685 33.95 113.616V1.36886H35.6271C35.6271 1.36886 35.7796 1.36886 36.0845 1.36886C37.5584 1.52096 41.98 2.07864 41.98 5.22196V89.1281C42.0309 102.563 41.5735 111.841 38.2699 115.035ZM80.25 5.22196C80.25 5.22196 80.25 112.652 80.25 115.035C80.25 116.455 80.3008 122.234 77.099 122.234C73.2872 122.234 73.2872 113.311 73.2872 107.735V1.47026C75.4218 1.47026 76.9973 1.57166 77.963 1.82515C79.0302 2.07864 79.6909 2.48423 79.9451 3.09261C80.1484 3.7517 80.3008 4.51218 80.25 5.22196ZM112.015 107.684C112.015 113.261 111.151 117.469 109.524 120.206C108 122.944 104.035 124.313 97.6824 124.313H96.361C94.7346 124.262 93.1083 124.059 91.5328 123.755C90.5671 123.502 90.0081 123.147 89.754 122.691C89.4998 121.93 89.3474 121.17 89.3982 120.358V5.22196C89.3474 4.46148 89.4998 3.7517 89.754 3.09261C90.0081 2.48423 91.177 1.47026 92.7017 1.47026H103.425L111.964 12.9281V107.684H112.015ZM212.594 117.57C210.713 119.75 206.19 125.124 201.311 118.787C201.159 118.635 200.193 117.266 200.193 117.266C198.668 115.035 198.567 113.007 198.567 112.5C198.567 112.45 198.567 112.399 198.567 112.399V17.9473C198.567 12.3198 199.431 8.16248 201.057 5.42475C202.531 3.04192 205.682 1.72375 210.51 1.36886C211.374 1.36886 212.086 1.41956 212.746 1.47026C214.22 1.52096 215.694 1.82515 217.066 2.38283C218.337 2.88982 219.353 3.7517 220.116 4.86707C221.285 6.28663 222.403 7.75689 223.318 9.32854L252.592 54.8052L217.117 110.269C217.168 110.269 215.033 113.869 212.594 117.57ZM229.111 107.532C225.096 113.869 222.657 118.888 219.557 121.372C215.796 124.009 214.525 120.713 214.474 119.446C214.373 116.962 214.881 116.708 218.439 110.776L253.405 55.9713L257.776 62.7649L229.111 107.532ZM258.894 47.5553L277.8 18.0994C281.968 11.5593 283.238 6.43872 286.338 4.20798C287.304 3.4475 287.762 2.99122 289.083 2.99122C290.404 2.94052 290.811 4.05589 291.167 4.71497C292.234 6.99641 290.76 11.2551 286.694 17.5924L263.214 54.2475L258.894 47.5553Z" fill="black"/>
</svg>
