<svg width="41" height="17" viewBox="0 0 41 17" fill="none" xmlns="http://www.w3.org/2000/svg">
<path fill-rule="evenodd" clip-rule="evenodd" d="M6.57468 0.409747C6.6052 0.329935 6.65604 0.245091 6.77812 0.213166C6.9198 0.176116 6.98579 0.182357 7.10938 0.174542L8.10317 0.172443L9.11258 0.170311V14.4168V15.2068V16.0621V16.6435H8.20887V16.7872H10.5503H12.4694H12.5875V16.6435H12.3062C12.0315 16.6276 11.8255 16.6036 11.6882 16.5717C11.5661 16.5398 11.4898 16.4919 11.4593 16.4281C11.4287 16.3482 11.4135 16.2445 11.4135 16.1168V0.69707C11.4135 0.569371 11.4287 0.473597 11.4593 0.409747C11.4898 0.329935 11.5661 0.274066 11.6882 0.242141C11.8255 0.210216 11.9687 0.21945 12.2491 0.21945C12.2491 0.21945 12.5875 0.194254 12.5875 0.69707V16.1168V16.6016V16.6108V16.6435V16.7872H13.4278H15.7692H17.1161V16.6435H14.9808V16.2688V16.1569V2.70741L24.7021 16.4132L24.8655 16.6435H23.3935V16.7872H24.9674H26.1443H26.3408H28.086H30.8368V16.6435H28.297L28.0868 16.6422L29.4176 14.4647L33.0113 8.55059L37.658 16.1168L37.9736 16.6435H36.0786V16.7872H41V16.6435H39.3355L38.7531 15.6742C38.7319 15.6392 38.7102 15.6031 38.6881 15.5661L33.6981 7.42524L36.7424 2.42101L38.109 0.170311H39.7868V0.0266479H37.7769H35.1859H33.176V0.170311H35.9163L35.381 1.00511L32.4577 5.3869L29.5778 0.69707L29.2856 0.170311H31.1344V0.0266479H27.1878H26.2359H25.2192H22.5411V0.170311H25.2192V2.39707L25.2207 15.1975V15.2085L14.9808 0.729452L14.5825 0.170311H15.7692V0.0266479L14.4837 0.0266479H13.4278H13.0875H12.5875H8.20887H8.10317L1.98757 0V0.133229V0.181269L4.04142 0.18635H4.19953L4.201 14.4168V15.2068C4.201 16.0621 3.43069 16.1842 3.43069 16.1842C1.97843 16.1842 1.15759 15.2361 1.15759 13.847C1.15759 13.097 1.38904 12.3933 1.66851 11.5436C1.77523 11.2191 1.88897 10.8733 1.99948 10.4955H1.68377L0 14.9715C0.568274 15.9637 1.4733 17 3.36755 17C6.08264 17 6.52463 14.8833 6.52463 12.3035V12.2304L6.5289 0.69707C6.5289 0.569371 6.54416 0.473597 6.57468 0.409747ZM10.2461 0.69707V16.1168V16.6016V16.6108V16.6435H9.79721V16.6108V16.6016V15.4013V0.230409V0.215073C9.8565 0.222244 9.90694 0.231266 9.94852 0.242141C10.0859 0.274066 10.1698 0.329935 10.2003 0.409747C10.2308 0.473597 10.2461 0.569371 10.2461 0.69707ZM35.4761 2.42101L33.0596 6.36707L33.1993 6.59447L37.0622 0.442156L37.2329 0.170311H36.9701L36.8419 0.363399L36.8133 0.406458L35.4761 2.42101ZM5.36421 11.9287L5.3615 0.190288L4.88563 0.186127V0.213384V0.230409V15.4013C5.20156 14.7904 5.36421 13.7312 5.36421 11.9287ZM14.2961 15.2068V16.0621V16.6435H13.7549V16.1168V0.69707V0.170311H14.2947V0.181269L14.2961 14.4168V14.675V15.2068ZM26.9342 16.5725L32.4954 7.71555L32.3594 7.49411L26.1515 16.2945L25.9053 16.6435H26.89L26.931 16.5776L26.9342 16.5725ZM25.9053 0.469754V15.2085L31.7329 6.47344L28.5249 1.24777L27.8668 0.170311H25.9053V0.469754Z" fill="white"/>
</svg>
