<svg width="1366" height="20" viewBox="0 0 1366 20" fill="none" xmlns="http://www.w3.org/2000/svg">
<path fill-rule="evenodd" clip-rule="evenodd" d="M-7.19037e-10 19.9836L-4.53642e-07 9.62187L1366 9.63809L1366 19.9999L1365.29 19.9999C1365.29 14.6861 1361.15 10.3782 1356.05 10.3782L9.94976 10.362C4.84717 10.362 0.710697 14.6697 0.710697 19.9836L-7.19037e-10 19.9836Z" fill="black"/>
<path fill-rule="evenodd" clip-rule="evenodd" d="M-4.21297e-07 10.3619L-8.74228e-07 0L0.710696 -3.10656e-08C0.710696 5.31383 4.84717 9.62172 9.94976 9.62172L1356.05 9.63809C1361.15 9.63809 1365.29 5.3302 1365.29 0.016374L1366 0.016374L1366 10.3782L-4.21297e-07 10.3619Z" fill="black"/>
</svg>
