<svg width="2428" height="37" viewBox="0 0 2428 37" fill="none" xmlns="http://www.w3.org/2000/svg">
<path fill-rule="evenodd" clip-rule="evenodd" d="M-1.2944e-09 35.9741L-8.16639e-07 17.3212L2428 17.3504L2428 36.0036L2426.74 36.0036C2426.74 26.4378 2419.38 18.6828 2410.31 18.6828L17.6852 18.6536C8.61561 18.6536 1.26323 26.4083 1.26323 35.9741L-1.2944e-09 35.9741Z" fill="black"/>
<path fill-rule="evenodd" clip-rule="evenodd" d="M-7.58411e-07 18.6533L-1.57377e-06 8.7738e-05L1.26323 8.76828e-05C1.26323 9.56594 8.61561 17.3209 17.6852 17.3209L2410.31 17.3504C2419.38 17.3504 2426.74 9.59542 2426.74 0.0295646L2428 0.0295646L2428 18.6828L-7.58411e-07 18.6533Z" fill="black"/>
</svg>
