<svg width="446" height="177" viewBox="0 0 446 177" fill="none" xmlns="http://www.w3.org/2000/svg">
<path d="M285.419 173.279L286.533 174.787H284.398V173.29C284.742 173.29 285.086 173.29 285.419 173.279Z" fill="black"/>
<path d="M295.747 0.429688V1.92652C294.599 1.92652 293.512 1.95978 292.476 2.02631C290.48 1.95978 288.118 1.92652 285.391 1.92652V0.429688H295.747Z" fill="black"/>
<path d="M435.539 173.042C433.412 172.949 431.313 172.53 429.313 171.8C427.687 171.034 426.245 169.928 425.083 168.557C423.919 166.899 422.507 164.741 420.848 162.082L366.568 77.3945L399.682 25.3381C405.491 16.2074 410.555 10.063 414.872 6.90487C419.19 3.58412 425.167 1.92467 432.8 1.92652V0.429688H360.886V1.92652C373.836 1.92652 381.058 3.50281 382.551 6.65539C384.048 9.80983 390.057 15.7916 384.414 24.5896L358.58 64.7657L321.747 7.40381C320.089 4.7483 320.089 3.17016 321.747 2.66939C323.404 2.17599 329.048 1.92837 338.677 1.92652V0.429688H295.746V1.92652C294.599 1.92652 293.512 1.95978 292.475 2.02631C293.639 2.06511 294.682 2.11501 295.602 2.17599C297.651 2.24229 299.673 2.66242 301.578 3.4178C303.303 4.13751 304.776 5.35063 305.814 6.90487C307.472 8.85649 308.969 10.9385 310.293 13.1306L350.94 76.4521L352.005 78.1097L358.103 87.6062L318.26 149.88C312.45 159.011 309.005 166.226 304.526 169.547C301.876 171.487 296.838 171.839 292.813 172.587C290.372 173.022 287.898 173.254 285.418 173.28L286.532 174.788H335.44V173.291C322.495 173.291 315.275 171.796 313.78 168.807C312.283 165.652 314.359 159.593 320.006 150.628L359.095 89.103L409.644 167.814C411.301 170.47 411.218 172.046 409.394 172.543C407.737 173.042 402.093 173.291 392.464 173.291V174.788H446V173.291C441.682 173.291 438.195 173.208 435.539 173.042ZM359.622 66.39L385.911 25.3381C391.721 16.2074 393.45 9.12794 397.769 5.9735C399.127 4.92572 399.709 4.31036 401.55 4.25492C403.396 4.19948 403.967 5.71849 404.416 6.65539C405.907 9.80983 403.832 15.7879 398.19 24.5896L365.57 75.6537L359.622 66.39Z" fill="black"/>
<path d="M303.417 154.456C298.465 162.67 297.782 163.028 297.935 166.514C298.012 168.27 299.759 172.818 305.019 169.163C305.041 170.62 300.965 173.982 296.072 174.437C293.691 174.658 287.617 174.035 287.617 174.035C291.57 170.748 301.671 153.708 301.671 153.708L350.941 76.4531L352.005 78.1107L303.417 154.456Z" fill="black"/>
<path d="M53.143 160.369C48.5244 164.865 53.143 160.374 53.1375 160.374C52.9213 160.596 47.189 166.406 47.189 158.345V2.03724L49.5118 2.05942C49.5118 2.05942 49.7447 2.0705 50.1328 2.09822C52.1451 2.23128 58.321 2.99078 58.321 7.40366L58.3487 124.245C58.3487 142.994 57.7616 155.872 53.143 160.369ZM111.453 163.372C111.453 164.381 111.832 169.793 109.69 170.312C106.709 171.033 101.746 157.929 101.746 150.129V2.17584C104.734 2.17584 106.89 2.3403 108.215 2.66924C109.712 3.00187 110.627 3.58397 110.959 4.41554C111.339 5.3638 111.508 6.38358 111.453 7.40366V163.372ZM155.56 150.129C155.56 157.929 154.397 163.741 152.072 167.565C149.916 171.384 144.439 173.293 135.641 173.291H133.867C131.609 173.211 129.362 172.961 127.142 172.543C125.811 172.21 124.985 171.717 124.653 171.052C124.286 170.013 124.117 168.915 124.154 167.814V7.40366C124.097 6.383 124.268 5.36252 124.653 4.41554C124.985 3.58397 126.653 2.17584 128.744 2.17584C130.836 2.17584 138.315 2.17584 143.671 2.17584L155.56 18.1143V150.129ZM245.203 0.429535V1.92637C257.649 1.92637 265.615 3.83529 269.102 7.65313C272.59 11.4728 274.334 17.2846 274.336 25.0884V158.345L157.55 0.429535H88.1467L21.6209 0.152344V2.03724L43.9624 2.09268L45.6811 2.03724L45.6977 150.129V158.345C45.6977 167.243 37.3154 168.513 37.3154 168.513C21.521 168.513 12.59 158.65 12.59 144.197C12.59 136.397 15.1069 129.079 18.1449 120.237C19.3091 116.861 20.5453 113.263 21.7484 109.332L0 155.895C6.18136 166.217 16.0216 177 36.628 177C66.1655 177 70.972 154.98 70.972 128.142V127.383L71.0218 7.40366C70.9641 6.38343 71.1326 5.36305 71.5152 4.41554C71.6783 3.91295 71.9679 3.46076 72.3563 3.1025C72.7447 2.74423 73.2187 2.49193 73.7328 2.36987C74.9138 2.09423 76.1235 1.96023 77.3363 1.97072L88.1467 1.95408V1.92637H89.2943C93.7737 1.92637 97.4252 1.9855 100.249 2.10377V150.129C100.249 157.929 99.0865 163.741 96.7618 167.565C94.6053 171.384 89.128 173.293 80.33 173.291V174.788H186.189V173.291C173.738 173.291 165.769 171.382 162.284 167.565C158.797 163.745 157.054 157.933 157.056 150.129V20.354L271.597 174.788H286.532L278.616 164.1L275.827 160.341V25.0884C275.827 17.2827 276.989 11.471 279.314 7.65313C281.327 4.3379 285.714 2.46225 292.475 2.02615C293.512 1.95963 294.598 1.92637 295.746 1.92637V0.429535H245.203Z" fill="black"/>
<path d="M295.359 163.834C292.7 166.96 286.17 174.789 279.153 164.824L271.566 171.18L283.255 173.536L288.059 174.035L292.31 173.281L295.359 163.834Z" fill="black"/>
<path d="M275.827 156.627C275.827 156.627 275.641 159.836 278.118 163.429H276.483L272.418 160.692L274.543 159.768L275.827 156.627Z" fill="black"/>
<path d="M274.335 151.729C274.335 151.729 273.879 157.264 270.191 152.741L267.012 158.335L270.846 160.027L273.202 161.661L274.819 159.813L275.267 155.609L274.335 151.729Z" fill="black"/>
</svg>
