<svg width="347" height="138" viewBox="0 0 347 138" fill="none" xmlns="http://www.w3.org/2000/svg">
<path d="M338.924 134.935C337.276 134.88 335.627 134.552 334.089 133.95C332.826 133.349 331.727 132.528 330.793 131.434C329.859 130.122 328.76 128.481 327.496 126.403L285.248 60.8288L311.014 20.5218C315.519 13.4667 319.475 8.70863 322.826 6.24755C326.178 3.67709 330.848 2.36452 336.781 2.41921V1.21602H280.852V2.36452C290.906 2.36452 296.565 3.56771 297.719 6.02879C298.873 8.48987 303.543 13.0839 299.147 19.9202L279.039 51.0392L250.361 6.63039C249.042 4.55214 249.042 3.34895 250.361 2.96612C251.624 2.58328 256.02 2.41921 263.546 2.41921V1.21602H190.806V2.36452C200.475 2.36452 206.684 3.84117 209.431 6.79446C212.123 9.74775 213.496 14.2324 213.496 20.303V118.418C213.496 118.418 213.167 122.684 210.255 119.184L122.626 1.21602H68.6199L16.8665 0.997253V2.4739L34.2275 2.52859L35.5461 2.4739V117.215V123.559C35.5461 130.45 29.0082 131.434 29.0082 131.434C16.7017 131.434 9.77929 123.778 9.77929 112.621C9.77929 106.55 11.7571 100.917 14.1195 94.0807C15.0535 91.4555 15.9875 88.6663 16.9215 85.6583L0 121.645C4.83471 129.63 12.4713 137.997 28.5138 137.997C51.4786 137.997 55.2695 120.934 55.2695 100.151V99.5497V6.63039C55.2145 5.81003 55.3244 5.04436 55.6541 4.33338C55.7639 3.95055 55.9837 3.56771 56.3133 3.29426C56.588 3.02081 56.9726 2.80204 57.3572 2.74735C58.2912 2.52859 59.2251 2.41921 60.1591 2.41921H68.5649H69.444C72.9052 2.41921 75.762 2.4739 77.9596 2.58328V117.27C77.9596 123.285 77.0806 127.825 75.2676 130.778C73.6194 133.731 69.3341 135.208 62.4666 135.208V136.357H144.821V135.208C135.152 135.208 128.944 133.731 126.197 130.778C123.505 127.825 122.131 123.34 122.131 117.27V16.6388L211.244 136.247H222.891H260.964V135.099C250.91 135.099 245.251 133.95 244.098 131.653C242.944 129.192 244.537 124.543 248.932 117.543L279.369 69.9074L318.706 130.887C319.97 132.966 319.915 134.169 318.541 134.552C317.223 134.935 312.882 135.153 305.356 135.153V136.302H347V135.153C343.704 135.099 341.012 135.044 338.924 134.935ZM41.3697 125.09C41.3148 125.145 41.2598 125.2 41.1499 125.309L41.095 125.364C40.1061 126.239 36.6998 129.028 36.6998 123.559V2.4739H38.5128C38.5128 2.4739 38.6776 2.4739 39.0073 2.4739C40.6005 2.63797 45.3803 3.23957 45.3803 6.63039V97.1434C45.4352 111.636 44.9408 121.645 41.3697 125.09ZM86.75 6.63039C86.75 6.63039 86.75 122.52 86.75 125.09C86.75 126.622 86.805 132.856 83.3437 132.856C79.2233 132.856 79.2233 123.231 79.2233 117.215V2.58328C81.5307 2.58328 83.2339 2.69266 84.2777 2.96612C85.4315 3.23957 86.1457 3.67709 86.4204 4.33338C86.6401 5.04436 86.805 5.86472 86.75 6.63039ZM121.087 117.16C121.087 123.176 120.153 127.715 118.395 130.669C116.747 133.622 112.462 135.099 105.594 135.099H104.166C102.408 135.044 100.65 134.825 98.9467 134.497C97.9028 134.224 97.2985 133.841 97.0238 133.349C96.7491 132.528 96.5842 131.708 96.6392 130.833V6.63039C96.5842 5.81003 96.7491 5.04436 97.0238 4.33338C97.2985 3.67709 98.5621 2.58328 100.21 2.58328H111.803L121.032 14.9434V117.16H121.087ZM229.813 127.825C227.781 130.176 222.891 135.974 217.617 129.137C217.452 128.973 216.408 127.497 216.408 127.497C214.76 125.09 214.65 122.903 214.65 122.356C214.65 122.301 214.65 122.246 214.65 122.246V20.3577C214.65 14.2871 215.584 9.80244 217.342 6.84915C218.935 4.27869 222.342 2.85673 227.561 2.4739C228.495 2.4739 229.264 2.52859 229.978 2.58328C231.571 2.63797 233.165 2.96612 234.648 3.56771C236.022 4.11462 237.12 5.04436 237.944 6.24755C239.208 7.77889 240.417 9.36492 241.406 11.0603L273.051 60.1178L234.703 119.949C234.758 119.949 232.45 123.832 229.813 127.825ZM247.669 116.996C243.329 123.832 240.691 129.247 237.34 131.927C233.275 134.771 231.901 131.216 231.846 129.848C231.736 127.169 232.286 126.895 236.131 120.496L273.93 61.3757L278.655 68.7042L247.669 116.996ZM279.864 52.2971L300.301 20.5218C304.806 13.4667 306.18 7.94296 309.531 5.53657C310.575 4.71622 311.069 4.224 312.498 4.224C313.926 4.16931 314.366 5.3725 314.75 6.08348C315.904 8.54456 314.311 13.1386 309.916 19.9749L284.533 59.5162L279.864 52.2971Z" fill="black"/>
</svg>
