<svg width="820" height="27" viewBox="0 0 820 27" fill="none" xmlns="http://www.w3.org/2000/svg">
<path fill-rule="evenodd" clip-rule="evenodd" d="M-8.51627e-10 26.9805L-6.1236e-07 12.9908L820 13.0101L820 27L819 27C819 19.8256 813.18 14.0093 806 14.0093L14 13.9901C6.8203 13.9901 1 19.8061 1 26.9805L-8.51627e-10 26.9805Z" fill="white"/>
<path fill-rule="evenodd" clip-rule="evenodd" d="M-5.68689e-07 13.9899L-1.18021e-06 0L0.999999 -4.37114e-08C0.999999 7.17439 6.8203 12.9906 14 12.9906L806 13.0101C813.18 13.0101 819 7.19382 819 0.0194268L820 0.0194267L820 14.0093L-5.68689e-07 13.9899Z" fill="white"/>
</svg>
