<svg width="951" height="377" viewBox="0 0 951 377" fill="none" xmlns="http://www.w3.org/2000/svg">
<path d="M928.866 368.572C924.349 368.422 919.832 367.519 915.616 365.863C912.153 364.208 909.142 361.95 906.582 358.94C904.022 355.328 901.011 350.813 897.548 345.094L781.759 164.646L852.377 53.7281C864.723 34.3138 875.564 21.2204 884.749 14.4479C893.934 7.37445 906.732 3.76248 922.994 3.91297V0.601996H769.714V3.76248C797.268 3.76248 812.777 7.07345 815.939 13.8459C819.101 20.6184 831.899 33.2603 819.854 52.0727L764.745 137.707L686.147 15.5014C682.534 9.78243 682.534 6.47146 686.147 5.41796C689.611 4.36447 701.656 3.91297 722.284 3.91297V0.601996H522.93V3.76248C549.43 3.76248 566.444 7.82595 573.973 15.9529C581.351 24.0798 585.115 36.4208 585.115 53.1262V323.121C585.115 323.121 584.212 334.86 576.231 325.228L336.072 0.601996H188.062L46.225 0V4.06347L93.8051 4.21397L97.4188 4.06347V319.81V337.268C97.4188 356.231 79.501 358.94 79.501 358.94C45.7733 358.94 26.8015 337.87 26.8015 307.168C26.8015 290.463 32.222 274.962 38.6965 256.149C41.2562 248.925 43.8159 241.25 46.3756 232.972L0 332.001C13.2502 353.974 34.1794 377 78.1458 377C141.084 377 151.473 330.044 151.473 272.855V271.199V15.5014C151.323 13.2439 151.624 11.1369 152.527 9.18044C152.829 8.12695 153.431 7.07345 154.334 6.32096C155.087 5.56846 156.141 4.96647 157.195 4.81597C159.755 4.21397 162.314 3.91297 164.874 3.91297H187.911H190.32C199.806 3.91297 207.636 4.06347 213.659 4.36447V319.961C213.659 336.516 211.25 349.007 206.281 357.134C201.764 365.261 190.019 369.325 171.198 369.325V372.485H396.902V369.325C370.402 369.325 353.388 365.261 345.859 357.134C338.481 349.007 334.717 336.666 334.717 319.961V43.0427L578.942 372.184H610.862H715.207V369.024C687.653 369.024 672.144 365.863 668.982 359.542C665.821 352.77 670.187 339.977 682.233 320.713L765.648 189.629L873.456 357.435C876.92 363.154 876.769 366.465 873.005 367.519C869.391 368.572 857.496 369.174 836.868 369.174V372.335H951V369.174C941.966 369.024 934.588 368.873 928.866 368.572ZM113.379 341.482C113.229 341.633 113.078 341.783 112.777 342.084L112.626 342.235C109.916 344.643 100.581 352.318 100.581 337.268V4.06347H105.55C105.55 4.06347 106.001 4.06347 106.905 4.06347C111.271 4.51497 124.371 6.17046 124.371 15.5014V264.577C124.521 304.459 123.166 332.001 113.379 341.482ZM237.75 15.5014C237.75 15.5014 237.75 334.409 237.75 341.482C237.75 345.696 237.901 362.853 228.415 362.853C217.122 362.853 217.122 336.365 217.122 319.81V4.36447C223.446 4.36447 228.114 4.66547 230.974 5.41796C234.136 6.17046 236.094 7.37445 236.847 9.18044C237.449 11.1369 237.901 13.3944 237.75 15.5014ZM331.856 319.66C331.856 336.215 329.297 348.706 324.478 356.833C319.961 364.96 308.217 369.024 289.396 369.024H285.481C280.662 368.873 275.844 368.271 271.177 367.368C268.316 366.616 266.659 365.562 265.907 364.208C265.154 361.95 264.702 359.693 264.853 357.285V15.5014C264.702 13.2439 265.154 11.1369 265.907 9.18044C266.659 7.37445 270.123 4.36447 274.64 4.36447H306.41L331.706 38.3772V319.66H331.856ZM629.834 349.007C624.263 355.479 610.862 371.432 596.408 352.619C595.956 352.168 593.095 348.104 593.095 348.104C588.578 341.482 588.277 335.462 588.277 333.957C588.277 333.807 588.277 333.656 588.277 333.656V53.2766C588.277 36.5713 590.837 24.2303 595.655 16.1034C600.021 9.02994 609.357 5.11697 623.661 4.06347C626.221 4.06347 628.329 4.21397 630.286 4.36447C634.652 4.51497 639.019 5.41796 643.084 7.07345C646.849 8.57844 649.86 11.1369 652.119 14.4479C655.582 18.6619 658.894 23.0263 661.605 27.6918L748.333 162.689L643.235 327.335C643.386 327.335 637.062 338.021 629.834 349.007ZM678.77 319.208C666.875 338.021 659.647 352.92 650.462 360.295C639.32 368.121 635.556 358.338 635.405 354.576C635.104 347.201 636.61 346.449 647.15 328.84L750.742 166.151L763.691 186.318L678.77 319.208ZM767.004 141.168L823.016 53.7281C835.362 34.3138 839.126 19.1134 848.311 12.4914C851.172 10.2339 852.527 8.87944 856.442 8.87944C860.357 8.72894 861.561 12.0399 862.615 13.9964C865.777 20.7689 861.411 33.4108 849.365 52.2232L779.802 161.034L767.004 141.168Z" fill="white"/>
</svg>
