<svg width="619" height="77" viewBox="0 0 619 77" fill="none" xmlns="http://www.w3.org/2000/svg">
<line x1="133.5" y1="76.6733" x2="133.5" y2="0.818604" stroke="black" stroke-width="3"/>
<path d="M155.552 65.4297L150.032 52.5417V66.9177H148.088V50.5977H151.328L156.608 62.9817L161.792 50.5977H165.032V66.9177H162.992V52.5417L157.472 65.4297H155.552ZM178.541 61.5417H170.093C170.157 62.8217 170.509 63.7977 171.149 64.4697C171.789 65.1417 172.605 65.4777 173.597 65.4777C174.493 65.4777 175.189 65.2697 175.685 64.8537C176.181 64.4377 176.509 63.9577 176.669 63.4137L178.469 63.7257C178.197 64.7977 177.637 65.6377 176.789 66.2457C175.941 66.8537 174.853 67.1577 173.525 67.1577C171.893 67.1577 170.589 66.6297 169.613 65.5737C168.653 64.5017 168.173 63.0457 168.173 61.2057C168.173 60.2617 168.309 59.4217 168.581 58.6857C168.869 57.9337 169.253 57.3097 169.733 56.8137C170.213 56.3017 170.781 55.9177 171.437 55.6617C172.109 55.3897 172.821 55.2537 173.573 55.2537C175.093 55.2537 176.301 55.7337 177.197 56.6937C178.093 57.6537 178.541 59.0057 178.541 60.7497V61.5417ZM173.549 56.9097C172.653 56.9097 171.901 57.1897 171.293 57.7497C170.701 58.3097 170.325 59.0457 170.165 59.9577H176.621C176.573 59.0777 176.301 58.3497 175.805 57.7737C175.309 57.1977 174.557 56.9097 173.549 56.9097ZM170.141 53.2857V51.0297H172.253V53.2857H170.141ZM174.557 53.2857V51.0297H176.669V53.2857H174.557ZM181.339 71.5737V55.4937H183.259V57.0297C183.675 56.4377 184.235 55.9977 184.939 55.7097C185.643 55.4057 186.387 55.2537 187.171 55.2537C187.875 55.2537 188.531 55.3817 189.139 55.6377C189.763 55.8777 190.307 56.2457 190.771 56.7417C191.235 57.2217 191.595 57.8297 191.851 58.5657C192.123 59.3017 192.259 60.1417 192.259 61.0857C192.259 62.9737 191.763 64.4617 190.771 65.5497C189.779 66.6217 188.475 67.1577 186.859 67.1577C186.107 67.1577 185.419 67.0297 184.795 66.7737C184.187 66.5177 183.675 66.1497 183.259 65.6697V71.5737H181.339ZM183.259 62.1417C183.259 63.1817 183.619 63.9977 184.339 64.5897C185.075 65.1657 185.923 65.4537 186.883 65.4537C187.939 65.4537 188.779 65.0617 189.403 64.2777C190.027 63.4937 190.339 62.4537 190.339 61.1577C190.339 59.9097 190.027 58.9017 189.403 58.1337C188.779 57.3497 187.923 56.9577 186.835 56.9577C186.387 56.9577 185.947 57.0457 185.515 57.2217C185.099 57.3817 184.723 57.6217 184.387 57.9417C184.051 58.2457 183.779 58.6377 183.571 59.1177C183.363 59.5977 183.259 60.1497 183.259 60.7737V62.1417ZM193.616 57.2697V55.4937H203.936V57.2697H199.736V66.9177H197.816V57.2697H193.616ZM206.347 66.9177V55.4937H211.291C212.539 55.4937 213.499 55.7577 214.171 56.2857C214.859 56.8137 215.203 57.5817 215.203 58.5897C215.203 59.0217 215.091 59.4697 214.867 59.9337C214.659 60.3977 214.235 60.7577 213.595 61.0137C214.283 61.2217 214.771 61.5577 215.059 62.0217C215.363 62.4697 215.515 63.0297 215.515 63.7017C215.515 64.6777 215.203 65.4617 214.579 66.0537C213.971 66.6297 212.987 66.9177 211.627 66.9177H206.347ZM211.315 57.1257H208.219V60.3417H211.483C212.123 60.3417 212.603 60.2137 212.923 59.9577C213.243 59.6857 213.403 59.2777 213.403 58.7337C213.403 58.1897 213.251 57.7897 212.947 57.5337C212.643 57.2617 212.099 57.1257 211.315 57.1257ZM211.651 61.9017H208.219V65.2857H211.651C212.387 65.2857 212.907 65.1417 213.211 64.8537C213.531 64.5657 213.691 64.1577 213.691 63.6297C213.691 63.0377 213.523 62.6057 213.187 62.3337C212.867 62.0457 212.355 61.9017 211.651 61.9017Z" fill="black"/>
<path d="M155.024 26.9472C156.32 26.9472 157.312 26.6512 158 26.0592C158.704 25.4512 159.16 24.6512 159.368 23.6592L162.248 24.1392C161.912 25.8992 161.144 27.2432 159.944 28.1712C158.744 29.0992 157.104 29.5632 155.024 29.5632C153.84 29.5632 152.768 29.3792 151.808 29.0112C150.848 28.6432 150.024 28.1072 149.336 27.4032C148.664 26.6832 148.144 25.8032 147.776 24.7632C147.408 23.7232 147.224 22.5312 147.224 21.1872C147.224 19.8112 147.416 18.5952 147.8 17.5392C148.184 16.4832 148.72 15.6032 149.408 14.8992C150.096 14.1952 150.92 13.6672 151.88 13.3152C152.84 12.9472 153.896 12.7632 155.048 12.7632C157.112 12.7632 158.744 13.2352 159.944 14.1792C161.16 15.1232 161.92 16.4512 162.224 18.1632L159.344 18.6432C159.104 17.6992 158.648 16.9232 157.976 16.3152C157.304 15.6912 156.328 15.3792 155.048 15.3792C153.512 15.3792 152.312 15.8992 151.448 16.9392C150.6 17.9632 150.176 19.3792 150.176 21.1872C150.176 22.9632 150.608 24.3712 151.472 25.4112C152.336 26.4352 153.52 26.9472 155.024 26.9472ZM163.66 15.7392V13.0032H178.132V15.7392H172.372V29.3232H169.444V15.7392H163.66ZM187.165 13.0032L193.333 29.3232H190.213L188.701 25.1952H181.789L180.325 29.3232H177.253L183.373 13.0032H187.165ZM182.749 22.5552H187.741L185.221 15.6192L182.749 22.5552ZM192.464 15.7392V13.0032H206.936V15.7392H201.176V29.3232H198.248V15.7392H192.464ZM217.029 25.6272C216.437 26.9232 215.781 27.8672 215.061 28.4592C214.341 29.0352 213.269 29.3232 211.845 29.3232H210.069V26.6352H211.509C212.149 26.6352 212.661 26.5472 213.045 26.3712C213.445 26.1952 213.781 25.9072 214.053 25.5072L207.741 13.0032H211.029L215.565 22.4592L219.717 13.0032H222.741L217.029 25.6272ZM231.149 26.9472C232.445 26.9472 233.437 26.6512 234.125 26.0592C234.829 25.4512 235.285 24.6512 235.493 23.6592L238.373 24.1392C238.037 25.8992 237.269 27.2432 236.069 28.1712C234.869 29.0992 233.229 29.5632 231.149 29.5632C229.965 29.5632 228.893 29.3792 227.933 29.0112C226.973 28.6432 226.149 28.1072 225.461 27.4032C224.789 26.6832 224.269 25.8032 223.901 24.7632C223.533 23.7232 223.349 22.5312 223.349 21.1872C223.349 19.8112 223.541 18.5952 223.925 17.5392C224.309 16.4832 224.845 15.6032 225.533 14.8992C226.221 14.1952 227.045 13.6672 228.005 13.3152C228.965 12.9472 230.021 12.7632 231.173 12.7632C233.237 12.7632 234.869 13.2352 236.069 14.1792C237.285 15.1232 238.045 16.4512 238.349 18.1632L235.469 18.6432C235.229 17.6992 234.773 16.9232 234.101 16.3152C233.429 15.6912 232.453 15.3792 231.173 15.3792C229.637 15.3792 228.437 15.8992 227.573 16.9392C226.725 17.9632 226.301 19.3792 226.301 21.1872C226.301 22.9632 226.733 24.3712 227.597 25.4112C228.461 26.4352 229.645 26.9472 231.149 26.9472Z" fill="black"/>
<line x1="1.5" y1="76.6733" x2="1.5" y2="0.818604" stroke="black" stroke-width="3"/>
<path d="M23.144 67.1577C21.96 67.1577 20.88 66.9657 19.904 66.5817C18.944 66.1977 18.12 65.6537 17.432 64.9497C16.76 64.2297 16.24 63.3497 15.872 62.3097C15.504 61.2537 15.32 60.0697 15.32 58.7577C15.32 57.4777 15.504 56.3177 15.872 55.2777C16.24 54.2377 16.76 53.3577 17.432 52.6377C18.12 51.9017 18.944 51.3417 19.904 50.9577C20.88 50.5577 21.96 50.3577 23.144 50.3577C24.328 50.3577 25.4 50.5577 26.36 50.9577C27.336 51.3417 28.16 51.9017 28.832 52.6377C29.504 53.3577 30.024 54.2377 30.392 55.2777C30.76 56.3177 30.944 57.4777 30.944 58.7577C30.944 60.0697 30.76 61.2537 30.392 62.3097C30.024 63.3497 29.504 64.2297 28.832 64.9497C28.16 65.6537 27.336 66.1977 26.36 66.5817C25.4 66.9657 24.328 67.1577 23.144 67.1577ZM23.144 65.2857C24.968 65.2857 26.376 64.6857 27.368 63.4857C28.376 62.2857 28.88 60.7097 28.88 58.7577C28.88 56.7897 28.376 55.2137 27.368 54.0297C26.376 52.8297 24.968 52.2297 23.144 52.2297C21.32 52.2297 19.904 52.8297 18.896 54.0297C17.888 55.2137 17.384 56.7897 17.384 58.7577C17.384 60.7097 17.888 62.2857 18.896 63.4857C19.904 64.6857 21.32 65.2857 23.144 65.2857ZM44.4978 61.3497C44.4978 63.1097 44.0098 64.5177 43.0338 65.5737C42.0578 66.6297 40.7698 67.1577 39.1698 67.1577C37.5058 67.1577 36.1618 66.6377 35.1378 65.5977C34.1138 64.5577 33.6018 62.9417 33.6018 60.7497V58.3497C33.6018 56.9577 33.7538 55.8057 34.0578 54.8937C34.3778 53.9657 34.8178 53.2217 35.3778 52.6617C35.9378 52.0857 36.6098 51.6617 37.3938 51.3897C38.1778 51.1177 39.0258 50.9257 39.9378 50.8137C40.6738 50.7337 41.3538 50.6537 41.9778 50.5737C42.6018 50.4937 43.1778 50.4217 43.7058 50.3577L43.9458 52.2057C43.3858 52.2697 42.7458 52.3497 42.0258 52.4457C41.3058 52.5257 40.6418 52.5977 40.0338 52.6617C38.6098 52.8217 37.4738 53.2857 36.6258 54.0537C35.7938 54.8057 35.3778 56.0937 35.3778 57.9177V57.9417C35.8098 57.2537 36.4018 56.7337 37.1538 56.3817C37.9218 56.0297 38.7138 55.8537 39.5298 55.8537C41.0978 55.8537 42.3138 56.3417 43.1778 57.3177C44.0578 58.2937 44.4978 59.6377 44.4978 61.3497ZM39.1698 65.5257C40.3698 65.5257 41.2418 65.1337 41.7858 64.3497C42.3458 63.5497 42.6258 62.5497 42.6258 61.3497C42.6258 60.1017 42.3298 59.1577 41.7378 58.5177C41.1458 57.8617 40.3218 57.5337 39.2658 57.5337C38.2258 57.5337 37.3298 57.8297 36.5778 58.4217C35.8418 58.9977 35.4738 59.7577 35.4738 60.7017V61.0617C35.4738 62.5337 35.8018 63.6457 36.4578 64.3977C37.1138 65.1497 38.0178 65.5257 39.1698 65.5257ZM45.8422 55.4937H51.5302V59.4297H54.5062C55.8502 59.4297 56.8662 59.7497 57.5542 60.3897C58.2422 61.0137 58.5862 61.9017 58.5862 63.0537C58.5862 64.2537 58.2502 65.1977 57.5782 65.8857C56.9222 66.5737 55.8822 66.9177 54.4582 66.9177H49.6102V57.2697H45.8422V55.4937ZM54.5062 61.1577H51.5302V65.1897H54.4822C55.3462 65.1897 55.9302 64.9977 56.2342 64.6137C56.5542 64.2137 56.7142 63.7017 56.7142 63.0777C56.7142 62.4377 56.5622 61.9577 56.2582 61.6377C55.9542 61.3177 55.3702 61.1577 54.5062 61.1577ZM71.0099 61.5417H62.5619C62.6259 62.8217 62.9779 63.7977 63.6179 64.4697C64.2579 65.1417 65.0739 65.4777 66.0659 65.4777C66.9619 65.4777 67.6579 65.2697 68.1539 64.8537C68.6499 64.4377 68.9779 63.9577 69.1379 63.4137L70.9379 63.7257C70.6659 64.7977 70.1059 65.6377 69.2579 66.2457C68.4099 66.8537 67.3219 67.1577 65.9939 67.1577C64.3619 67.1577 63.0579 66.6297 62.0819 65.5737C61.1219 64.5017 60.6419 63.0457 60.6419 61.2057C60.6419 60.2617 60.7779 59.4217 61.0499 58.6857C61.3379 57.9337 61.7219 57.3097 62.2019 56.8137C62.6819 56.3017 63.2499 55.9177 63.9059 55.6617C64.5779 55.3897 65.2899 55.2537 66.0419 55.2537C67.5619 55.2537 68.7699 55.7337 69.6659 56.6937C70.5619 57.6537 71.0099 59.0057 71.0099 60.7497V61.5417ZM66.0179 56.9097C65.1219 56.9097 64.3699 57.1897 63.7619 57.7497C63.1699 58.3097 62.7939 59.0457 62.6339 59.9577H69.0899C69.0419 59.0777 68.7699 58.3497 68.2739 57.7737C67.7779 57.1977 67.0259 56.9097 66.0179 56.9097ZM73.8078 66.9177V55.4937H75.7278V60.1497H77.6718L81.0798 55.4937H83.3118L79.2318 60.9417L83.5038 66.9177H81.1998L77.6238 61.8297H75.7278V66.9177H73.8078ZM84.3969 57.2697V55.4937H94.7169V57.2697H90.5169V66.9177H88.5969V57.2697H84.3969Z" fill="black"/>
<path d="M14.48 15.7392V13.0032H28.952V15.7392H23.192V29.3232H20.264V15.7392H14.48ZM42.6459 29.3232V16.9392L34.4379 29.3232H31.3419V13.0032H34.2459V25.2912L42.3339 13.0032H45.5499V29.3232H42.6459ZM49.3888 29.3232V13.0032H63.1168V29.3232H60.1888V15.7392H52.3168V29.3232H49.3888Z" fill="black"/>
<line x1="275.5" y1="76.6733" x2="275.5" y2="0.818604" stroke="black" stroke-width="3"/>
<path d="M291.088 66.9177V50.5977H304.048V66.9177H301.984V52.5177H293.152V66.9177H291.088ZM309.997 66.9177H307.933V55.4937H309.781V64.4457L315.517 55.4937H317.629V66.9177H315.781V57.9177L309.997 66.9177ZM322.158 62.7897C322.174 62.3417 322.19 61.7977 322.206 61.1577C322.222 60.5017 322.23 59.8377 322.23 59.1657C322.246 58.4777 322.262 57.8137 322.278 57.1737C322.294 56.5177 322.302 55.9577 322.302 55.4937H330.39V66.9177H328.47V57.2697H324.078C324.078 57.7337 324.07 58.2297 324.054 58.7577C324.054 59.2857 324.046 59.8057 324.03 60.3177C324.014 60.8137 323.998 61.2937 323.982 61.7577C323.982 62.2217 323.974 62.6217 323.958 62.9577C323.894 64.4777 323.606 65.5177 323.094 66.0777C322.582 66.6377 321.774 66.9177 320.67 66.9177H319.782V65.1417H320.478C321.054 65.1417 321.47 64.9577 321.726 64.5897C321.982 64.2217 322.126 63.6217 322.158 62.7897ZM341.147 66.9177V65.5737C340.795 66.0377 340.307 66.4217 339.683 66.7257C339.075 67.0137 338.363 67.1577 337.547 67.1577C336.299 67.1577 335.307 66.8537 334.571 66.2457C333.851 65.6377 333.491 64.8057 333.491 63.7497C333.491 62.5657 333.883 61.7097 334.667 61.1817C335.467 60.6537 336.523 60.3657 337.835 60.3177C338.427 60.3017 338.979 60.3017 339.491 60.3177C340.003 60.3177 340.515 60.3257 341.027 60.3417V59.3577C341.027 58.5257 340.787 57.9177 340.307 57.5337C339.827 57.1497 339.219 56.9577 338.483 56.9577C337.667 56.9577 337.043 57.1577 336.611 57.5577C336.195 57.9577 335.891 58.4457 335.699 59.0217L333.875 58.6377C334.115 57.6297 334.627 56.8137 335.411 56.1897C336.195 55.5657 337.219 55.2537 338.483 55.2537C339.779 55.2537 340.843 55.5817 341.675 56.2377C342.523 56.8777 342.947 57.8937 342.947 59.2857V66.9177H341.147ZM341.027 61.8537C340.547 61.8377 340.035 61.8297 339.491 61.8297C338.963 61.8297 338.427 61.8377 337.883 61.8537C337.067 61.8857 336.451 62.0617 336.035 62.3817C335.619 62.7017 335.411 63.1497 335.411 63.7257C335.411 64.2697 335.603 64.7097 335.987 65.0457C336.387 65.3657 336.923 65.5257 337.595 65.5257C338.555 65.5257 339.363 65.2937 340.019 64.8297C340.691 64.3497 341.027 63.7257 341.027 62.9577V61.8537Z" fill="black"/>
<path d="M297.24 29.5632C296.056 29.5632 294.968 29.3872 293.976 29.0352C293 28.6672 292.16 28.1312 291.456 27.4272C290.752 26.7232 290.2 25.8512 289.8 24.8112C289.416 23.7552 289.224 22.5392 289.224 21.1632C289.224 19.8192 289.416 18.6192 289.8 17.5632C290.2 16.5072 290.752 15.6272 291.456 14.9232C292.16 14.2192 293 13.6832 293.976 13.3152C294.968 12.9472 296.056 12.7632 297.24 12.7632C298.44 12.7632 299.536 12.9472 300.528 13.3152C301.52 13.6832 302.36 14.2192 303.048 14.9232C303.752 15.6272 304.296 16.5072 304.68 17.5632C305.08 18.6192 305.28 19.8192 305.28 21.1632C305.28 22.5392 305.08 23.7552 304.68 24.8112C304.296 25.8512 303.752 26.7232 303.048 27.4272C302.36 28.1312 301.52 28.6672 300.528 29.0352C299.536 29.3872 298.44 29.5632 297.24 29.5632ZM297.24 26.9472C298.856 26.9472 300.104 26.4272 300.984 25.3872C301.864 24.3312 302.304 22.9232 302.304 21.1632C302.304 19.3872 301.864 17.9792 300.984 16.9392C300.104 15.8992 298.856 15.3792 297.24 15.3792C295.64 15.3792 294.392 15.8992 293.496 16.9392C292.616 17.9792 292.176 19.3872 292.176 21.1632C292.176 22.9232 292.616 24.3312 293.496 25.3872C294.392 26.4272 295.64 26.9472 297.24 26.9472ZM308.389 29.3232V13.0032H315.349C317.141 13.0032 318.541 13.4432 319.549 14.3232C320.573 15.1872 321.085 16.4912 321.085 18.2352C321.085 19.9632 320.573 21.2752 319.549 22.1712C318.525 23.0672 317.061 23.5152 315.157 23.5152H311.317V29.3232H308.389ZM311.317 20.9472H315.085C316.141 20.9472 316.909 20.7152 317.389 20.2512C317.869 19.7872 318.109 19.1232 318.109 18.2592C318.109 17.3152 317.869 16.6352 317.389 16.2192C316.925 15.7872 316.157 15.5712 315.085 15.5712H311.317V20.9472ZM331.279 25.6272C330.687 26.9232 330.031 27.8672 329.311 28.4592C328.591 29.0352 327.519 29.3232 326.095 29.3232H324.319V26.6352H325.759C326.399 26.6352 326.911 26.5472 327.295 26.3712C327.695 26.1952 328.031 25.9072 328.303 25.5072L321.991 13.0032H325.279L329.815 22.4592L333.967 13.0032H336.991L331.279 25.6272ZM346.883 29.3232V22.4112H345.059L340.499 29.3232H336.875L342.587 20.9952L337.043 13.0032H340.523L344.963 19.7232H346.883V13.0032H349.811V19.7232H351.755L356.195 13.0032H359.675L354.107 20.9952L359.819 29.3232H356.195L351.659 22.4112H349.811V29.3232H346.883ZM373.388 29.3232V16.9392L365.18 29.3232H362.084V13.0032H364.988V25.2912L373.076 13.0032H376.292V29.3232H373.388ZM380.131 29.3232V13.0032H391.771V15.5952H383.059V19.8432H391.435V22.3632H383.059V26.7312H391.699V29.3232H380.131Z" fill="black"/>
<line x1="432.5" y1="76.6733" x2="432.5" y2="0.818604" stroke="black" stroke-width="3"/>
<path d="M444.24 70.3497V64.9977H445.8C446.312 64.5497 446.752 63.8697 447.12 62.9577C447.504 62.0297 447.728 60.9737 447.792 59.7897C447.856 58.5417 447.896 57.1737 447.912 55.6857C447.944 54.1977 447.96 52.5017 447.96 50.5977H458.64V64.9977H460.8V70.3497H458.784V66.9177H446.256V70.3497H444.24ZM449.76 59.7897C449.696 60.7977 449.544 61.7417 449.304 62.6217C449.08 63.5017 448.712 64.2937 448.2 64.9977H456.576V52.5177H449.952C449.952 53.0457 449.944 53.6217 449.928 54.2457C449.928 54.8537 449.92 55.4777 449.904 56.1177C449.888 56.7577 449.864 57.3977 449.832 58.0377C449.816 58.6617 449.792 59.2457 449.76 59.7897ZM467.967 67.1577C467.183 67.1577 466.447 67.0297 465.759 66.7737C465.087 66.5017 464.511 66.1177 464.031 65.6217C463.551 65.1097 463.167 64.4777 462.879 63.7257C462.607 62.9737 462.471 62.1257 462.471 61.1817C462.471 59.2937 462.983 57.8377 464.007 56.8137C465.031 55.7737 466.351 55.2537 467.967 55.2537C469.567 55.2537 470.863 55.7737 471.855 56.8137C472.847 57.8377 473.343 59.2937 473.343 61.1817C473.343 63.0377 472.847 64.5017 471.855 65.5737C470.863 66.6297 469.567 67.1577 467.967 67.1577ZM467.967 65.4537C469.119 65.4537 469.983 65.0777 470.559 64.3257C471.135 63.5577 471.423 62.5097 471.423 61.1817C471.423 59.8377 471.135 58.7977 470.559 58.0617C469.983 57.3257 469.119 56.9577 467.967 56.9577C466.831 56.9577 465.951 57.3257 465.327 58.0617C464.703 58.7977 464.391 59.8377 464.391 61.1817C464.391 62.5097 464.711 63.5577 465.351 64.3257C465.991 65.0777 466.863 65.4537 467.967 65.4537ZM476.245 66.9177V55.4937H479.077L482.941 65.0457L486.829 55.4937H489.565V66.9177H487.693V57.5817L483.829 66.9177H481.837L477.973 57.5577V66.9177H476.245ZM505.475 67.2777V65.3337C504.451 65.3337 503.467 65.2137 502.523 64.9737C501.595 64.7177 500.771 64.3257 500.051 63.7977C499.347 63.2697 498.779 62.5817 498.347 61.7337C497.931 60.8697 497.723 59.8377 497.723 58.6377C497.723 57.4537 497.931 56.4377 498.347 55.5897C498.779 54.7417 499.347 54.0537 500.051 53.5257C500.755 52.9817 501.571 52.5817 502.499 52.3257C503.443 52.0697 504.435 51.9337 505.475 51.9177V50.0937H507.467V51.9177C508.507 51.9177 509.491 52.0457 510.419 52.3017C511.363 52.5577 512.187 52.9577 512.891 53.5017C513.595 54.0457 514.155 54.7417 514.571 55.5897C514.987 56.4377 515.195 57.4537 515.195 58.6377C515.195 59.8377 514.987 60.8697 514.571 61.7337C514.155 62.5817 513.587 63.2697 512.867 63.7977C512.163 64.3257 511.339 64.7177 510.395 64.9737C509.467 65.2137 508.491 65.3337 507.467 65.3337V67.2777H505.475ZM513.179 58.6377C513.179 57.7257 513.019 56.9577 512.699 56.3337C512.395 55.6937 511.979 55.1897 511.451 54.8217C510.939 54.4377 510.331 54.1657 509.627 54.0057C508.923 53.8297 508.187 53.7417 507.419 53.7417V63.5097C508.203 63.5097 508.947 63.4217 509.651 63.2457C510.355 63.0697 510.963 62.7977 511.475 62.4297C512.003 62.0457 512.419 61.5417 512.723 60.9177C513.027 60.2937 513.179 59.5337 513.179 58.6377ZM499.739 58.6377C499.739 59.5497 499.899 60.3177 500.219 60.9417C500.539 61.5657 500.963 62.0697 501.491 62.4537C502.019 62.8217 502.635 63.0937 503.339 63.2697C504.043 63.4297 504.771 63.5097 505.523 63.5097V53.7417C504.739 53.7577 503.995 53.8537 503.291 54.0297C502.587 54.1897 501.971 54.4617 501.443 54.8457C500.931 55.2137 500.515 55.7097 500.195 56.3337C499.891 56.9577 499.739 57.7257 499.739 58.6377ZM518.408 62.7897C518.424 62.3417 518.44 61.7977 518.456 61.1577C518.472 60.5017 518.48 59.8377 518.48 59.1657C518.496 58.4777 518.512 57.8137 518.528 57.1737C518.544 56.5177 518.552 55.9577 518.552 55.4937H526.64V66.9177H524.72V57.2697H520.328C520.328 57.7337 520.32 58.2297 520.304 58.7577C520.304 59.2857 520.296 59.8057 520.28 60.3177C520.264 60.8137 520.248 61.2937 520.232 61.7577C520.232 62.2217 520.224 62.6217 520.208 62.9577C520.144 64.4777 519.856 65.5177 519.344 66.0777C518.832 66.6377 518.024 66.9177 516.92 66.9177H516.032V65.1417H516.728C517.304 65.1417 517.72 64.9577 517.976 64.5897C518.232 64.2217 518.376 63.6217 518.408 62.7897ZM537.397 66.9177V65.5737C537.045 66.0377 536.557 66.4217 535.933 66.7257C535.325 67.0137 534.613 67.1577 533.797 67.1577C532.549 67.1577 531.557 66.8537 530.821 66.2457C530.101 65.6377 529.741 64.8057 529.741 63.7497C529.741 62.5657 530.133 61.7097 530.917 61.1817C531.717 60.6537 532.773 60.3657 534.085 60.3177C534.677 60.3017 535.229 60.3017 535.741 60.3177C536.253 60.3177 536.765 60.3257 537.277 60.3417V59.3577C537.277 58.5257 537.037 57.9177 536.557 57.5337C536.077 57.1497 535.469 56.9577 534.733 56.9577C533.917 56.9577 533.293 57.1577 532.861 57.5577C532.445 57.9577 532.141 58.4457 531.949 59.0217L530.125 58.6377C530.365 57.6297 530.877 56.8137 531.661 56.1897C532.445 55.5657 533.469 55.2537 534.733 55.2537C536.029 55.2537 537.093 55.5817 537.925 56.2377C538.773 56.8777 539.197 57.8937 539.197 59.2857V66.9177H537.397ZM537.277 61.8537C536.797 61.8377 536.285 61.8297 535.741 61.8297C535.213 61.8297 534.677 61.8377 534.133 61.8537C533.317 61.8857 532.701 62.0617 532.285 62.3817C531.869 62.7017 531.661 63.1497 531.661 63.7257C531.661 64.2697 531.853 64.7097 532.237 65.0457C532.637 65.3657 533.173 65.5257 533.845 65.5257C534.805 65.5257 535.613 65.2937 536.269 64.8297C536.941 64.3497 537.277 63.7257 537.277 62.9577V61.8537ZM542.667 66.9177V55.4937H544.587V60.1737H550.683V55.4937H552.603V66.9177H550.683V61.9497H544.587V66.9177H542.667ZM554.534 65.1417H555.734C556.134 64.8217 556.47 64.3657 556.742 63.7737C557.014 63.1657 557.174 62.5177 557.222 61.8297C557.238 61.5737 557.254 61.2777 557.27 60.9417C557.286 60.6057 557.294 60.1977 557.294 59.7177C557.31 59.2217 557.318 58.6297 557.318 57.9417C557.334 57.2537 557.342 56.4377 557.342 55.4937H565.454V65.1417H567.302V70.1337H565.43V66.9177H556.406V70.1337H554.534V65.1417ZM559.022 62.0937C558.958 62.7657 558.822 63.3577 558.614 63.8697C558.406 64.3657 558.174 64.7897 557.918 65.1417H563.534V57.2697H559.142C559.142 58.3737 559.134 59.3417 559.118 60.1737C559.102 60.9897 559.07 61.6297 559.022 62.0937ZM579.08 61.5417H570.632C570.696 62.8217 571.048 63.7977 571.688 64.4697C572.328 65.1417 573.144 65.4777 574.136 65.4777C575.032 65.4777 575.728 65.2697 576.224 64.8537C576.72 64.4377 577.048 63.9577 577.208 63.4137L579.008 63.7257C578.736 64.7977 578.176 65.6377 577.328 66.2457C576.48 66.8537 575.392 67.1577 574.064 67.1577C572.432 67.1577 571.128 66.6297 570.152 65.5737C569.192 64.5017 568.712 63.0457 568.712 61.2057C568.712 60.2617 568.848 59.4217 569.12 58.6857C569.408 57.9337 569.792 57.3097 570.272 56.8137C570.752 56.3017 571.32 55.9177 571.976 55.6617C572.648 55.3897 573.36 55.2537 574.112 55.2537C575.632 55.2537 576.84 55.7337 577.736 56.6937C578.632 57.6537 579.08 59.0057 579.08 60.7497V61.5417ZM574.088 56.9097C573.192 56.9097 572.44 57.1897 571.832 57.7497C571.24 58.3097 570.864 59.0457 570.704 59.9577H577.16C577.112 59.0777 576.84 58.3497 576.344 57.7737C575.848 57.1977 575.096 56.9097 574.088 56.9097ZM581.878 71.5737V55.4937H583.798V57.0297C584.214 56.4377 584.774 55.9977 585.478 55.7097C586.182 55.4057 586.926 55.2537 587.71 55.2537C588.414 55.2537 589.07 55.3817 589.678 55.6377C590.302 55.8777 590.846 56.2457 591.31 56.7417C591.774 57.2217 592.134 57.8297 592.39 58.5657C592.662 59.3017 592.798 60.1417 592.798 61.0857C592.798 62.9737 592.302 64.4617 591.31 65.5497C590.318 66.6217 589.014 67.1577 587.398 67.1577C586.646 67.1577 585.958 67.0297 585.334 66.7737C584.726 66.5177 584.214 66.1497 583.798 65.6697V71.5737H581.878ZM583.798 62.1417C583.798 63.1817 584.158 63.9977 584.878 64.5897C585.614 65.1657 586.462 65.4537 587.422 65.4537C588.478 65.4537 589.318 65.0617 589.942 64.2777C590.566 63.4937 590.878 62.4537 590.878 61.1577C590.878 59.9097 590.566 58.9017 589.942 58.1337C589.318 57.3497 588.462 56.9577 587.374 56.9577C586.926 56.9577 586.486 57.0457 586.054 57.2217C585.638 57.3817 585.262 57.6217 584.926 57.9417C584.59 58.2457 584.318 58.6377 584.11 59.1177C583.902 59.5977 583.798 60.1497 583.798 60.7737V62.1417ZM603.482 63.1977L605.282 63.4857C605.058 64.5097 604.538 65.3817 603.722 66.1017C602.922 66.8057 601.802 67.1577 600.362 67.1577C598.778 67.1577 597.49 66.6537 596.498 65.6457C595.506 64.6377 595.01 63.1577 595.01 61.2057C595.01 60.1977 595.146 59.3257 595.418 58.5897C595.706 57.8377 596.09 57.2137 596.57 56.7177C597.05 56.2217 597.618 55.8537 598.274 55.6137C598.93 55.3737 599.634 55.2537 600.386 55.2537C601.874 55.2537 603.002 55.6137 603.77 56.3337C604.554 57.0537 605.042 57.8937 605.234 58.8537L603.482 59.1897C603.338 58.6457 603.034 58.1417 602.57 57.6777C602.106 57.1977 601.378 56.9577 600.386 56.9577C599.282 56.9577 598.426 57.3417 597.818 58.1097C597.226 58.8617 596.93 59.8937 596.93 61.2057C596.93 62.4697 597.226 63.4937 597.818 64.2777C598.41 65.0617 599.258 65.4537 600.362 65.4537C601.37 65.4537 602.098 65.2217 602.546 64.7577C603.01 64.2777 603.322 63.7577 603.482 63.1977ZM615.093 66.9177V65.5737C614.741 66.0377 614.253 66.4217 613.629 66.7257C613.021 67.0137 612.309 67.1577 611.493 67.1577C610.245 67.1577 609.253 66.8537 608.517 66.2457C607.797 65.6377 607.437 64.8057 607.437 63.7497C607.437 62.5657 607.829 61.7097 608.613 61.1817C609.413 60.6537 610.469 60.3657 611.781 60.3177C612.373 60.3017 612.925 60.3017 613.437 60.3177C613.949 60.3177 614.461 60.3257 614.973 60.3417V59.3577C614.973 58.5257 614.733 57.9177 614.253 57.5337C613.773 57.1497 613.165 56.9577 612.429 56.9577C611.613 56.9577 610.989 57.1577 610.557 57.5577C610.141 57.9577 609.837 58.4457 609.645 59.0217L607.821 58.6377C608.061 57.6297 608.573 56.8137 609.357 56.1897C610.141 55.5657 611.165 55.2537 612.429 55.2537C613.725 55.2537 614.789 55.5817 615.621 56.2377C616.469 56.8777 616.893 57.8937 616.893 59.2857V66.9177H615.093ZM614.973 61.8537C614.493 61.8377 613.981 61.8297 613.437 61.8297C612.909 61.8297 612.373 61.8377 611.829 61.8537C611.013 61.8857 610.397 62.0617 609.981 62.3817C609.565 62.7017 609.357 63.1497 609.357 63.7257C609.357 64.2697 609.549 64.7097 609.933 65.0457C610.333 65.3657 610.869 65.5257 611.541 65.5257C612.501 65.5257 613.309 65.2937 613.965 64.8297C614.637 64.3497 614.973 63.7257 614.973 62.9577V61.8537Z" fill="black"/>
<path d="M445.92 29.3232V13.0032H459.648V29.3232H456.72V15.7392H448.848V29.3232H445.92ZM470.818 29.5632C469.634 29.5632 468.546 29.3872 467.554 29.0352C466.578 28.6672 465.738 28.1312 465.034 27.4272C464.33 26.7232 463.778 25.8512 463.378 24.8112C462.994 23.7552 462.802 22.5392 462.802 21.1632C462.802 19.8192 462.994 18.6192 463.378 17.5632C463.778 16.5072 464.33 15.6272 465.034 14.9232C465.738 14.2192 466.578 13.6832 467.554 13.3152C468.546 12.9472 469.634 12.7632 470.818 12.7632C472.018 12.7632 473.114 12.9472 474.106 13.3152C475.098 13.6832 475.938 14.2192 476.626 14.9232C477.33 15.6272 477.874 16.5072 478.258 17.5632C478.658 18.6192 478.858 19.8192 478.858 21.1632C478.858 22.5392 478.658 23.7552 478.258 24.8112C477.874 25.8512 477.33 26.7232 476.626 27.4272C475.938 28.1312 475.098 28.6672 474.106 29.0352C473.114 29.3872 472.018 29.5632 470.818 29.5632ZM470.818 26.9472C472.434 26.9472 473.682 26.4272 474.562 25.3872C475.442 24.3312 475.882 22.9232 475.882 21.1632C475.882 19.3872 475.442 17.9792 474.562 16.9392C473.682 15.8992 472.434 15.3792 470.818 15.3792C469.218 15.3792 467.97 15.8992 467.074 16.9392C466.194 17.9792 465.754 19.3872 465.754 21.1632C465.754 22.9232 466.194 24.3312 467.074 25.3872C467.97 26.4272 469.218 26.9472 470.818 26.9472ZM494.309 29.3232H491.381V23.4672H487.781L484.109 29.3232H480.773L484.757 23.1312C483.669 22.7952 482.837 22.2192 482.261 21.4032C481.685 20.5712 481.396 19.4912 481.396 18.1632C481.396 16.4512 481.909 15.1632 482.933 14.2992C483.957 13.4352 485.365 13.0032 487.157 13.0032H494.309V29.3232ZM487.373 15.5952C486.317 15.5952 485.549 15.8112 485.069 16.2432C484.605 16.6592 484.373 17.3232 484.373 18.2352C484.373 19.1152 484.605 19.7792 485.069 20.2272C485.533 20.6592 486.301 20.8752 487.373 20.8752H491.381V15.5952H487.373ZM498.139 29.3232V13.0032H505.123C506.787 13.0032 508.107 13.3632 509.083 14.0832C510.059 14.7872 510.547 15.9152 510.547 17.4672C510.547 18.2032 510.371 18.8992 510.019 19.5552C509.667 20.2112 509.035 20.6992 508.123 21.0192C509.163 21.2752 509.899 21.7312 510.331 22.3872C510.763 23.0432 510.979 23.8512 510.979 24.8112C510.979 26.3472 510.459 27.4832 509.419 28.2192C508.395 28.9552 506.979 29.3232 505.171 29.3232H498.139ZM504.859 15.4992H501.043V19.8672H504.715C505.771 19.8672 506.515 19.6832 506.947 19.3152C507.395 18.9472 507.619 18.3872 507.619 17.6352C507.619 16.8672 507.411 16.3232 506.995 16.0032C506.579 15.6672 505.867 15.4992 504.859 15.4992ZM504.931 22.2912H501.043V26.8272H505.027C506.083 26.8272 506.843 26.6512 507.307 26.2992C507.787 25.9312 508.027 25.3552 508.027 24.5712C508.027 23.7872 507.787 23.2112 507.307 22.8432C506.827 22.4752 506.035 22.2912 504.931 22.2912ZM515.589 23.7312C515.605 23.0912 515.621 22.3472 515.637 21.4992C515.653 20.6352 515.661 19.7312 515.661 18.7872C515.677 17.8432 515.685 16.8752 515.685 15.8832C515.701 14.8752 515.709 13.9152 515.709 13.0032H527.469V29.3232H524.541V15.7392H518.565C518.565 16.3952 518.557 17.0992 518.541 17.8512C518.541 18.5872 518.533 19.3312 518.517 20.0832C518.517 20.8192 518.509 21.5392 518.493 22.2432C518.477 22.9312 518.461 23.5552 518.445 24.1152C518.381 26.0032 517.965 27.3472 517.197 28.1472C516.429 28.9312 515.237 29.3232 513.621 29.3232H512.373V26.5392H513.189C513.893 26.5392 514.461 26.3552 514.893 25.9872C515.325 25.6192 515.557 24.8672 515.589 23.7312ZM531.303 29.3232V13.0032H542.943V15.5952H534.231V19.8432H542.607V22.3632H534.231V26.7312H542.871V29.3232H531.303ZM546.35 29.3232V13.0032H549.278V19.7472H557.222V13.0032H560.15V29.3232H557.222V22.4592H549.278V29.3232H546.35ZM575.302 29.3232V16.9392L567.094 29.3232H563.998V13.0032H566.902V25.2912L574.99 13.0032H578.206V29.3232H575.302ZM582.045 29.3232V13.0032H593.685V15.5952H584.973V19.8432H593.349V22.3632H584.973V26.7312H593.613V29.3232H582.045Z" fill="black"/>
</svg>
