<svg width="630" height="354" viewBox="0 0 630 354" fill="none" xmlns="http://www.w3.org/2000/svg">
<path d="M0.65625 11.9586C0.65625 5.74883 5.69188 0.714844 11.9036 0.714844H618.409C624.621 0.714844 629.656 5.74884 629.656 11.9586V342.471C629.656 348.681 624.621 353.715 618.409 353.715H11.9036C5.69189 353.715 0.65625 348.681 0.65625 342.471V11.9586Z" fill="black"/>
<path d="M346.982 176.503L286.429 212.875L285.196 142.266L346.982 176.503Z" fill="white"/>
<path d="M339.031 172.097C342.565 174.055 342.653 179.103 339.189 181.184L294.222 208.194C290.758 210.275 286.341 207.827 286.27 203.788L285.355 151.352C285.284 147.314 289.614 144.713 293.148 146.672L339.031 172.097Z" fill="black"/>
<path d="M347.162 176.803L347.682 176.491L347.152 176.197L339.206 171.794C339.204 171.793 339.202 171.792 339.2 171.791L293.317 146.365C293.314 146.364 293.31 146.362 293.307 146.36L285.366 141.959L284.836 141.666L284.846 142.272L285.005 151.358L285.921 203.794L286.079 212.881L286.09 213.487L286.609 213.175L294.398 208.497C294.399 208.496 294.401 208.495 294.402 208.494L339.37 181.484L347.162 176.803ZM338.861 172.403C338.863 172.404 338.865 172.405 338.866 172.406C342.159 174.236 342.24 178.943 339.009 180.884L294.042 207.894C294.04 207.895 294.039 207.896 294.038 207.897C290.805 209.834 286.686 207.55 286.62 203.782L285.705 151.346C285.639 147.581 289.672 145.155 292.968 146.972C292.971 146.974 292.975 146.976 292.978 146.978L338.861 172.403ZM341.348 179.479C342.366 177.703 342.327 175.465 341.247 173.725L346.282 176.515L341.348 179.479ZM286.668 206.509C287.697 208.278 289.656 209.364 291.703 209.299L286.768 212.263L286.668 206.509ZM290.591 145.655C288.544 145.662 286.624 146.815 285.657 148.619L285.557 142.865L290.591 145.655ZM1.00625 11.9586C1.00625 5.94224 5.88507 1.06484 11.9036 1.06484H618.409C624.427 1.06484 629.306 5.94225 629.306 11.9586V342.471C629.306 348.487 624.427 353.365 618.409 353.365H11.9036C5.88508 353.365 1.00625 348.487 1.00625 342.471V11.9586Z" stroke="white" stroke-width="0.7"/>
</svg>
