<svg width="840" height="472" viewBox="0 0 840 472" fill="none" xmlns="http://www.w3.org/2000/svg">
<path d="M0.203125 15.7148C0.203125 7.43056 6.91885 0.714844 15.2031 0.714844H824.065C832.349 0.714844 839.065 7.43057 839.065 15.7148V456.643C839.065 464.927 832.349 471.643 824.065 471.643H15.2031C6.91887 471.643 0.203125 464.927 0.203125 456.643V15.7148Z" fill="black"/>
<path d="M462.078 235.229L381.322 283.752L379.678 189.554L462.078 235.229Z" fill="white"/>
<path d="M451.474 229.351C456.187 231.964 456.305 238.698 451.686 241.474L391.715 277.508C387.096 280.283 381.205 277.018 381.111 271.63L379.889 201.676C379.795 196.289 385.569 192.82 390.282 195.432L451.474 229.351Z" fill="black"/>
<path d="M462.258 235.529L462.778 235.217L462.248 234.923L451.644 229.045L390.452 195.126C390.449 195.124 390.446 195.123 390.443 195.121L379.848 189.248L379.317 188.954L379.328 189.56L379.54 201.683L380.761 271.636C380.761 271.64 380.761 271.643 380.761 271.647L380.972 283.759L380.983 284.365L381.502 284.052L391.895 277.808L451.866 241.774L462.258 235.529ZM390.112 195.738L451.304 229.657C455.782 232.139 455.893 238.537 451.505 241.174L391.534 277.208C387.149 279.843 381.557 276.746 381.461 271.634C381.461 271.631 381.461 271.627 381.46 271.624L380.239 201.67C380.15 196.555 385.628 193.26 390.104 195.733C390.107 195.735 390.11 195.737 390.112 195.738ZM454.211 239.548C455.889 237.026 455.83 233.65 454.065 231.188L461.378 235.241L454.211 239.548ZM381.516 274.78C382.861 277.494 385.814 279.131 388.828 278.834L381.661 283.14L381.516 274.78ZM387.351 194.208C384.328 194.016 381.434 195.755 380.184 198.514L380.038 190.154L387.351 194.208ZM0.553125 15.7148C0.553125 7.62386 7.11215 1.06484 15.2031 1.06484H824.065C832.156 1.06484 838.715 7.62387 838.715 15.7148V456.643C838.715 464.734 832.156 471.293 824.065 471.293H15.2031C7.11216 471.293 0.553125 464.734 0.553125 456.643V15.7148Z" stroke="white" stroke-width="0.7"/>
</svg>
