<svg width="689" height="478" viewBox="0 0 689 478" fill="none" xmlns="http://www.w3.org/2000/svg">
<rect x="136.563" y="96.5205" width="10.4164" height="284.741" rx="5.20821" stroke="black" stroke-width="3"/>
<rect x="346.662" y="96.5205" width="10.4164" height="284.741" rx="5.20821" stroke="black" stroke-width="3"/>
<rect x="241.613" y="119.293" width="10.4164" height="239.195" rx="5.20821" stroke="black" stroke-width="3"/>
<rect x="451.712" y="119.293" width="10.4164" height="239.195" rx="5.20821" stroke="black" stroke-width="3"/>
<rect x="586.775" y="156.011" width="10.4164" height="165.761" rx="5.20821" stroke="black" stroke-width="3"/>
<rect x="31.5137" y="156.011" width="10.4164" height="165.761" rx="5.20821" stroke="black" stroke-width="3"/>
<rect x="196.592" y="96.5205" width="10.4164" height="284.741" rx="5.20821" stroke="black" stroke-width="3"/>
<rect x="406.69" y="147.452" width="10.4164" height="182.877" rx="5.20821" stroke="black" stroke-width="3"/>
<rect x="301.642" y="127.583" width="10.4164" height="222.616" rx="5.20821" stroke="black" stroke-width="3"/>
<rect x="511.739" y="127.583" width="10.4164" height="222.616" rx="5.20821" stroke="black" stroke-width="3"/>
<rect x="646.803" y="161.786" width="10.4164" height="154.209" rx="5.20821" stroke="black" stroke-width="3"/>
<rect x="91.5427" y="161.786" width="10.4164" height="154.209" rx="5.20821" stroke="black" stroke-width="3"/>
<rect x="151.572" y="159.269" width="10.4164" height="159.244" rx="5.20821" stroke="black" stroke-width="3"/>
<rect x="360.169" y="0.727051" width="13.4164" height="476.329" rx="6.70821" fill="black"/>
<rect x="256.621" y="159.269" width="10.4164" height="159.244" rx="5.20821" stroke="black" stroke-width="3"/>
<rect x="466.719" y="159.269" width="10.4164" height="159.244" rx="5.20821" stroke="black" stroke-width="3"/>
<rect x="601.782" y="183.865" width="10.4164" height="110.051" rx="5.20821" stroke="black" stroke-width="3"/>
<rect x="46.5221" y="183.865" width="10.4164" height="110.051" rx="5.20821" stroke="black" stroke-width="3"/>
<rect x="181.585" y="137.422" width="10.4164" height="202.938" rx="5.20821" stroke="black" stroke-width="3"/>
<rect x="391.685" y="127.583" width="10.4164" height="222.616" rx="5.20821" stroke="black" stroke-width="3"/>
<rect x="286.635" y="137.422" width="10.4164" height="202.938" rx="5.20821" stroke="black" stroke-width="3"/>
<rect x="496.734" y="137.422" width="10.4164" height="202.938" rx="5.20821" stroke="black" stroke-width="3"/>
<rect x="631.797" y="168.643" width="10.4164" height="140.497" rx="5.20821" stroke="black" stroke-width="3"/>
<rect x="76.5359" y="168.643" width="10.4164" height="140.497" rx="5.20821" stroke="black" stroke-width="3"/>
<rect x="226.606" y="137.422" width="10.4164" height="202.938" rx="5.20821" stroke="black" stroke-width="3"/>
<rect x="436.705" y="137.422" width="10.4164" height="202.938" rx="5.20821" stroke="black" stroke-width="3"/>
<rect x="571.768" y="168.643" width="10.4164" height="140.497" rx="5.20821" stroke="black" stroke-width="3"/>
<rect x="16.5084" y="168.643" width="10.4164" height="140.497" rx="5.20821" stroke="black" stroke-width="3"/>
<rect x="331.656" y="137.422" width="10.4164" height="202.938" rx="5.20821" stroke="black" stroke-width="3"/>
<rect x="541.755" y="137.422" width="10.4164" height="202.938" rx="5.20821" stroke="black" stroke-width="3"/>
<rect x="676.818" y="168.643" width="10.4164" height="140.497" rx="5.20821" stroke="black" stroke-width="3"/>
<rect x="121.556" y="168.643" width="10.4164" height="140.497" rx="5.20821" stroke="black" stroke-width="3"/>
<rect x="211.599" y="167.814" width="10.4164" height="142.153" rx="5.20821" stroke="black" stroke-width="3"/>
<rect x="421.698" y="167.814" width="10.4164" height="142.153" rx="5.20821" stroke="black" stroke-width="3"/>
<rect x="556.762" y="189.819" width="10.4164" height="98.1423" rx="5.20821" stroke="black" stroke-width="3"/>
<rect x="1.5" y="189.819" width="10.4164" height="98.1423" rx="5.20821" stroke="black" stroke-width="3"/>
<rect x="316.649" y="167.814" width="10.4164" height="142.153" rx="5.20821" stroke="black" stroke-width="3"/>
<rect x="526.748" y="167.814" width="10.4164" height="142.153" rx="5.20821" stroke="black" stroke-width="3"/>
<rect x="661.811" y="189.819" width="10.4164" height="98.1423" rx="5.20821" stroke="black" stroke-width="3"/>
<rect x="106.55" y="189.819" width="10.4164" height="98.1423" rx="5.20821" stroke="black" stroke-width="3"/>
<rect x="166.577" y="114.081" width="10.4164" height="249.618" rx="5.20821" stroke="black" stroke-width="3"/>
<rect x="376.676" y="114.081" width="10.4164" height="249.618" rx="5.20821" stroke="black" stroke-width="3"/>
<rect x="271.627" y="114.081" width="10.4164" height="249.618" rx="5.20821" stroke="black" stroke-width="3"/>
<rect x="481.726" y="114.081" width="10.4164" height="249.618" rx="5.20821" stroke="black" stroke-width="3"/>
<rect x="616.789" y="152.379" width="10.4164" height="173.024" rx="5.20821" stroke="black" stroke-width="3"/>
<rect x="61.5289" y="152.379" width="10.4164" height="173.024" rx="5.20821" stroke="black" stroke-width="3"/>
<path d="M384.907 450.362V448.442H399.091V450.362H393.043V464.762H390.979V450.362H384.907ZM408.102 465.002C406.918 465.002 405.838 464.81 404.862 464.426C403.902 464.042 403.078 463.498 402.39 462.794C401.718 462.074 401.198 461.194 400.83 460.154C400.462 459.098 400.278 457.914 400.278 456.602C400.278 455.322 400.462 454.162 400.83 453.122C401.198 452.082 401.718 451.202 402.39 450.482C403.078 449.746 403.902 449.186 404.862 448.802C405.838 448.402 406.918 448.202 408.102 448.202C409.286 448.202 410.358 448.402 411.318 448.802C412.294 449.186 413.118 449.746 413.79 450.482C414.462 451.202 414.982 452.082 415.35 453.122C415.718 454.162 415.902 455.322 415.902 456.602C415.902 457.914 415.718 459.098 415.35 460.154C414.982 461.194 414.462 462.074 413.79 462.794C413.118 463.498 412.294 464.042 411.318 464.426C410.358 464.81 409.286 465.002 408.102 465.002ZM408.102 463.13C409.926 463.13 411.334 462.53 412.326 461.33C413.334 460.13 413.838 458.554 413.838 456.602C413.838 454.634 413.334 453.058 412.326 451.874C411.334 450.674 409.926 450.074 408.102 450.074C406.278 450.074 404.862 450.674 403.854 451.874C402.846 453.058 402.342 454.634 402.342 456.602C402.342 458.554 402.846 460.13 403.854 461.33C404.862 462.53 406.278 463.13 408.102 463.13ZM419.304 464.762V448.442H432.264V464.762H430.2V450.362H421.368V464.762H419.304ZM442.701 459.266H435.549V457.394H442.701V459.266ZM445.52 464.762L453.68 450.362H443.72V448.442H455.48V451.058L447.92 464.762H445.52ZM464.35 465.002C462.046 465.002 460.366 464.282 459.31 462.842C458.27 461.386 457.75 459.306 457.75 456.602C457.75 453.946 458.27 451.882 459.31 450.41C460.366 448.938 462.046 448.202 464.35 448.202C466.67 448.202 468.35 448.938 469.39 450.41C470.43 451.882 470.95 453.946 470.95 456.602C470.95 459.306 470.43 461.386 469.39 462.842C468.35 464.282 466.67 465.002 464.35 465.002ZM464.35 463.178C465.966 463.178 467.126 462.602 467.83 461.45C468.534 460.298 468.886 458.682 468.886 456.602C468.886 454.506 468.534 452.89 467.83 451.754C467.126 450.602 465.966 450.026 464.35 450.026C462.75 450.026 461.59 450.602 460.87 451.754C460.166 452.89 459.814 454.506 459.814 456.602C459.814 458.682 460.166 460.298 460.87 461.45C461.59 462.602 462.75 463.178 464.35 463.178Z" fill="black"/>
<path d="M393.667 436.002C392.483 436.002 391.395 435.826 390.403 435.474C389.427 435.106 388.587 434.57 387.883 433.866C387.179 433.162 386.627 432.29 386.227 431.25C385.843 430.194 385.651 428.978 385.651 427.602C385.651 426.258 385.843 425.058 386.227 424.002C386.627 422.946 387.179 422.066 387.883 421.362C388.587 420.658 389.427 420.122 390.403 419.754C391.395 419.386 392.483 419.202 393.667 419.202C394.867 419.202 395.963 419.386 396.955 419.754C397.947 420.122 398.787 420.658 399.475 421.362C400.179 422.066 400.723 422.946 401.107 424.002C401.507 425.058 401.707 426.258 401.707 427.602C401.707 428.978 401.507 430.194 401.107 431.25C400.723 432.29 400.179 433.162 399.475 433.866C398.787 434.57 397.947 435.106 396.955 435.474C395.963 435.826 394.867 436.002 393.667 436.002ZM393.667 433.386C395.283 433.386 396.531 432.866 397.411 431.826C398.291 430.77 398.731 429.362 398.731 427.602C398.731 425.826 398.291 424.418 397.411 423.378C396.531 422.338 395.283 421.818 393.667 421.818C392.067 421.818 390.819 422.338 389.923 423.378C389.043 424.418 388.603 425.826 388.603 427.602C388.603 429.362 389.043 430.77 389.923 431.826C390.819 432.866 392.067 433.386 393.667 433.386ZM415.568 429.282V419.442H418.496V429.258C418.496 431.498 417.936 433.186 416.816 434.322C415.696 435.442 413.976 436.002 411.656 436.002C409.336 436.002 407.592 435.442 406.424 434.322C405.256 433.186 404.672 431.498 404.672 429.258V419.442H407.6V429.282C407.6 430.754 407.936 431.802 408.608 432.426C409.296 433.05 410.312 433.362 411.656 433.362C412.968 433.362 413.944 433.05 414.584 432.426C415.24 431.802 415.568 430.754 415.568 429.282ZM420.72 422.178V419.442H435.192V422.178H429.432V435.762H426.504V422.178H420.72ZM449.006 433.026V435.762H437.581V419.442H440.509V433.026H449.006ZM460.022 419.442L466.19 435.762H463.07L461.558 431.634H454.646L453.182 435.762H450.11L456.23 419.442H460.022ZM455.606 428.994H460.598L458.078 422.058L455.606 428.994ZM467.845 431.346L470.749 430.866C470.957 431.73 471.413 432.378 472.117 432.81C472.821 433.242 473.717 433.458 474.805 433.458C475.909 433.458 476.773 433.274 477.397 432.906C478.037 432.522 478.357 432.002 478.357 431.346C478.357 430.754 478.173 430.29 477.805 429.954C477.437 429.618 476.821 429.37 475.957 429.21L473.101 428.682C471.613 428.41 470.445 427.922 469.597 427.218C468.765 426.514 468.349 425.434 468.349 423.978C468.349 422.49 468.925 421.322 470.077 420.474C471.245 419.626 472.789 419.202 474.709 419.202C476.693 419.202 478.213 419.618 479.269 420.45C480.325 421.266 480.981 422.37 481.237 423.762L478.333 424.218C478.189 423.546 477.829 422.97 477.253 422.49C476.693 421.994 475.829 421.746 474.661 421.746C473.573 421.746 472.733 421.954 472.141 422.37C471.565 422.77 471.277 423.29 471.277 423.93C471.277 424.522 471.485 424.986 471.901 425.322C472.333 425.642 473.037 425.89 474.013 426.066L477.061 426.666C478.437 426.922 479.485 427.41 480.205 428.13C480.941 428.85 481.309 429.874 481.309 431.202C481.309 432.754 480.717 433.946 479.533 434.778C478.349 435.594 476.741 436.002 474.709 436.002C472.805 436.002 471.261 435.626 470.077 434.874C468.893 434.122 468.149 432.946 467.845 431.346ZM482.735 422.178V419.442H497.207V422.178H491.447V435.762H488.519V422.178H482.735Z" fill="black"/>
</svg>
