<svg width="917" height="487" viewBox="0 0 917 487" fill="none" xmlns="http://www.w3.org/2000/svg">
<rect x="2.20663" y="1.5" width="282" height="121" stroke="black" stroke-width="3"/>
<line x1="2.47111" y1="121.557" x2="283.487" y2="2.03568" stroke="black" stroke-width="3"/>
<line x1="283.805" y1="121.568" x2="2.64866" y2="3.34952" stroke="black" stroke-width="3"/>
<rect x="2.20663" y="363.914" width="282" height="121" stroke="black" stroke-width="3"/>
<line x1="2.47111" y1="483.971" x2="283.487" y2="364.45" stroke="black" stroke-width="3"/>
<line x1="283.805" y1="483.982" x2="2.64866" y2="365.764" stroke="black" stroke-width="3"/>
<rect x="632.707" y="1.5" width="282" height="121" stroke="black" stroke-width="3"/>
<line x1="632.971" y1="121.557" x2="913.987" y2="2.03568" stroke="black" stroke-width="3"/>
<line x1="914.305" y1="121.568" x2="633.149" y2="3.34952" stroke="black" stroke-width="3"/>
<rect x="314.918" y="218.5" width="282" height="121" stroke="black" stroke-width="3"/>
<line x1="315.48" y1="338.445" x2="596.832" y2="219.123" stroke="black" stroke-width="3"/>
<line x1="596.834" y1="338.542" x2="315.482" y2="219.663" stroke="black" stroke-width="3"/>
<path d="M631.767 63.0607C632.353 62.4749 632.353 61.5251 631.767 60.9393L622.221 51.3934C621.636 50.8076 620.686 50.8076 620.1 51.3934C619.514 51.9792 619.514 52.9289 620.1 53.5147L628.585 62L620.1 70.4853C619.514 71.0711 619.514 72.0208 620.1 72.6066C620.686 73.1924 621.636 73.1924 622.221 72.6066L631.767 63.0607ZM285.707 63.5H630.707V60.5H285.707V63.5Z" fill="black"/>
<path d="M598.646 279.494C598.06 280.08 598.06 281.03 598.646 281.615L608.192 291.161C608.777 291.747 609.727 291.747 610.313 291.161C610.899 290.576 610.899 289.626 610.313 289.04L601.828 280.555L610.313 272.069C610.899 271.484 610.899 270.534 610.313 269.948C609.727 269.362 608.777 269.362 608.192 269.948L598.646 279.494ZM773.738 279.055H599.706V282.055H773.738V279.055Z" fill="black"/>
<path d="M141.646 362.061C142.232 362.646 143.182 362.646 143.767 362.061L153.313 352.515C153.899 351.929 153.899 350.979 153.313 350.393C152.727 349.808 151.778 349.808 151.192 350.393L142.707 358.879L134.221 350.393C133.636 349.808 132.686 349.808 132.1 350.393C131.514 350.979 131.514 351.929 132.1 352.515L141.646 362.061ZM141.207 279L141.207 361L144.207 361L144.207 279L141.207 279Z" fill="black"/>
<path d="M772.207 279.932L772.207 124.001" stroke="black" stroke-width="3"/>
<line x1="141.707" y1="280.5" x2="315.004" y2="280.5" stroke="black" stroke-width="3"/>
</svg>
