<svg width="381" height="151" viewBox="0 0 381 151" fill="none" xmlns="http://www.w3.org/2000/svg">
<path d="M372.133 147.624C370.323 147.564 368.513 147.202 366.824 146.539C365.437 145.876 364.23 144.972 363.205 143.766C362.179 142.32 360.973 140.511 359.585 138.221L313.197 65.9457L341.488 21.5198C346.435 13.7437 350.778 8.4994 354.458 5.78683C358.138 2.95369 363.265 1.50699 369.78 1.56727V0.241118H308.371V1.50699C319.41 1.50699 325.623 2.83313 326.89 5.54571C328.157 8.25828 333.285 13.3218 328.459 20.8567L306.38 55.1557L274.892 6.20878C273.444 3.91816 273.444 2.59202 274.892 2.17006C276.279 1.7481 281.105 1.56727 289.369 1.56727V0.241118H209.502V1.50699C220.119 1.50699 226.935 3.13453 229.951 6.38962C232.907 9.64471 234.415 14.5876 234.415 21.2786V129.42C234.415 129.42 234.053 134.122 230.856 130.264L134.641 0.241118H75.3434L18.5192 0V1.62754L37.5812 1.68782L39.029 1.62754V128.094V135.086C39.029 142.681 31.8505 143.766 31.8505 143.766C18.3382 143.766 10.7375 135.327 10.7375 123.03C10.7375 116.339 12.9091 110.131 15.503 102.596C16.5285 99.7022 17.554 96.6279 18.5795 93.3126L0 132.976C5.30842 141.777 13.6933 151 31.3076 151C56.5226 151 60.6849 132.193 60.6849 109.287V108.624V6.20878C60.6246 5.30459 60.7452 4.46068 61.1072 3.67705C61.2278 3.25509 61.4691 2.83313 61.8311 2.53174C62.1327 2.23034 62.5549 1.98922 62.9772 1.92894C64.0027 1.68782 65.0282 1.56727 66.0537 1.56727H75.2831H76.2483C80.0486 1.56727 83.1854 1.62755 85.5983 1.7481V128.154C85.5983 134.785 84.6332 139.788 82.6425 143.043C80.8328 146.298 76.1276 147.926 68.5872 147.926V149.192H159.011V147.926C148.395 147.926 141.578 146.298 138.562 143.043C135.606 139.788 134.098 134.845 134.098 128.154V17.2399L231.942 149.071H244.73H286.534V147.805C275.495 147.805 269.282 146.539 268.015 144.008C266.748 141.295 268.498 136.171 273.323 128.455L306.742 75.9521L349.934 143.164C351.321 145.454 351.261 146.78 349.753 147.202C348.305 147.624 343.539 147.865 335.275 147.865V149.131H381V147.865C377.381 147.805 374.425 147.745 372.133 147.624ZM45.4232 136.774C45.3629 136.834 45.3026 136.895 45.1819 137.015L45.1216 137.075C44.0358 138.04 40.2958 141.114 40.2958 135.086V1.62754H42.2864C42.2864 1.62754 42.4674 1.62754 42.8293 1.62754C44.5787 1.80838 49.8268 2.47146 49.8268 6.20878V105.971C49.8871 121.945 49.3442 132.976 45.4232 136.774ZM95.25 6.20878C95.25 6.20878 95.25 133.941 95.25 136.774C95.25 138.462 95.3103 145.334 91.51 145.334C86.9858 145.334 86.9858 134.725 86.9858 128.094V1.7481C89.5193 1.7481 91.3893 1.86866 92.5355 2.17006C93.8023 2.47146 94.5865 2.95369 94.8881 3.67705C95.1294 4.46068 95.3103 5.36487 95.25 6.20878ZM132.952 128.034C132.952 134.664 131.926 139.667 129.996 142.923C128.186 146.178 123.481 147.805 115.941 147.805H114.372C112.442 147.745 110.512 147.504 108.642 147.142C107.496 146.841 106.832 146.419 106.53 145.876C106.229 144.972 106.048 144.068 106.108 143.103V6.20878C106.048 5.30459 106.229 4.46068 106.53 3.67705C106.832 2.95369 108.219 1.7481 110.029 1.7481H122.757L132.892 15.3713V128.034H132.952ZM252.331 139.788C250.099 142.38 244.73 148.77 238.939 141.235C238.758 141.054 237.612 139.426 237.612 139.426C235.803 136.774 235.682 134.363 235.682 133.76C235.682 133.7 235.682 133.64 235.682 133.64V21.3389C235.682 14.6479 236.707 9.70499 238.638 6.4499C240.387 3.61677 244.127 2.0495 249.858 1.62754C250.883 1.62754 251.728 1.68782 252.512 1.7481C254.261 1.80838 256.011 2.17006 257.64 2.83313C259.148 3.43593 260.354 4.46068 261.259 5.78683C262.646 7.47465 263.973 9.22275 265.059 11.0914L299.805 65.1621L257.7 131.108C257.76 131.108 255.227 135.388 252.331 139.788ZM271.936 127.853C267.171 135.388 264.275 141.355 260.595 144.309C256.131 147.444 254.623 143.525 254.563 142.018C254.442 139.065 255.046 138.763 259.268 131.711L300.77 66.5485L305.958 74.6259L271.936 127.853ZM307.285 56.5421L329.725 21.5198C334.672 13.7437 336.18 7.65549 339.86 5.00319C341.006 4.099 341.549 3.55649 343.117 3.55649C344.686 3.49621 345.168 4.82235 345.59 5.60599C346.857 8.31856 345.108 13.382 340.282 20.917L312.413 64.499L307.285 56.5421Z" fill="white"/>
</svg>
