<svg width="348" height="138" viewBox="0 0 348 138" fill="none" xmlns="http://www.w3.org/2000/svg">
<path d="M339.901 134.915C338.248 134.86 336.595 134.529 335.052 133.923C333.785 133.317 332.683 132.491 331.746 131.389C330.809 130.067 329.707 128.414 328.44 126.321L286.07 60.2683L311.911 19.6671C316.429 12.5605 320.396 7.76766 323.757 5.28862C327.118 2.6994 331.801 1.37725 337.752 1.43234V0.220359H281.662V1.37725C291.745 1.37725 297.42 2.58922 298.577 5.06826C299.734 7.54731 304.417 12.1749 300.01 19.0611L279.844 50.4072L251.082 5.67425C249.76 3.58084 249.76 2.36886 251.082 1.98323C252.35 1.5976 256.757 1.43234 264.306 1.43234V0.220359H191.356V1.37725C201.053 1.37725 207.279 2.86467 210.034 5.83952C212.734 8.81437 214.111 13.3317 214.111 19.4467V118.278C214.111 118.278 213.781 122.575 210.861 119.049L122.979 0.220359H68.8176L16.9151 0V1.48743L34.3262 1.54252L35.6485 1.48743V117.066V123.456C35.6485 130.398 29.0918 131.389 29.0918 131.389C16.7498 131.389 9.80747 123.677 9.80747 112.438C9.80747 106.323 11.791 100.649 14.1602 93.7629C15.0969 91.1186 16.0336 88.309 16.9702 85.279L0 121.528C4.84864 129.571 12.5073 138 28.5959 138C51.627 138 55.4288 120.812 55.4288 99.8778V99.2719V5.67425C55.3737 4.8479 55.4838 4.07665 55.8144 3.36048C55.9246 2.97485 56.145 2.58922 56.4756 2.31377C56.7511 2.03832 57.1368 1.81796 57.5225 1.76287C58.4592 1.54252 59.3958 1.43234 60.3325 1.43234H68.7625H69.6441C73.1153 1.43234 75.9804 1.48743 78.1843 1.5976V117.121C78.1843 123.181 77.3027 127.753 75.4845 130.728C73.8315 133.703 69.5339 135.19 62.6466 135.19V136.347H145.239V135.19C135.541 135.19 129.315 133.703 126.56 130.728C123.861 127.753 122.483 123.236 122.483 117.121V15.7557L211.852 136.237H223.533H261.716V135.08C251.633 135.08 245.958 133.923 244.801 131.61C243.644 129.131 245.242 124.448 249.65 117.396L280.174 69.4132L319.624 130.838C320.892 132.932 320.837 134.144 319.459 134.529C318.137 134.915 313.784 135.135 306.236 135.135V136.292H348V135.135C344.694 135.08 341.994 135.025 339.901 134.915ZM41.4889 124.999C41.4338 125.054 41.3787 125.109 41.2685 125.219L41.2134 125.274C40.2217 126.156 36.8056 128.965 36.8056 123.456V1.48743H38.6238C38.6238 1.48743 38.7891 1.48743 39.1197 1.48743C40.7175 1.65269 45.5111 2.25868 45.5111 5.67425V96.8479C45.5662 111.447 45.0703 121.528 41.4889 124.999ZM87 5.67425C87 5.67425 87 122.41 87 124.999C87 126.541 87.0551 132.822 83.5839 132.822C79.4516 132.822 79.4516 123.126 79.4516 117.066V1.5976C81.7657 1.5976 83.4737 1.70778 84.5206 1.98323C85.6777 2.25868 86.3939 2.6994 86.6694 3.36048C86.8898 4.07665 87.0551 4.90299 87 5.67425ZM121.436 117.011C121.436 123.071 120.5 127.643 118.737 130.618C117.084 133.593 112.786 135.08 105.899 135.08H104.466C102.703 135.025 100.94 134.805 99.2318 134.474C98.1849 134.199 97.5788 133.813 97.3034 133.317C97.0279 132.491 96.8626 131.665 96.9177 130.783V5.67425C96.8626 4.8479 97.0279 4.07665 97.3034 3.36048C97.5788 2.6994 98.8461 1.5976 100.499 1.5976H112.125L121.381 14.0479V117.011H121.436ZM230.476 127.753C228.437 130.122 223.533 135.962 218.244 129.075C218.079 128.91 217.032 127.423 217.032 127.423C215.379 124.999 215.269 122.795 215.269 122.244C215.269 122.189 215.269 122.134 215.269 122.134V19.5018C215.269 13.3868 216.205 8.86946 217.968 5.89461C219.566 3.30539 222.982 1.87305 228.217 1.48743C229.153 1.48743 229.925 1.54252 230.641 1.5976C232.239 1.65269 233.837 1.98323 235.324 2.58922C236.702 3.14012 237.804 4.07665 238.63 5.28862C239.897 6.83114 241.11 8.42874 242.101 10.1365L273.838 59.5521L235.379 119.82C235.434 119.82 233.12 123.732 230.476 127.753ZM248.383 116.846C244.03 123.732 241.385 129.186 238.024 131.885C233.947 134.75 232.569 131.169 232.514 129.792C232.404 127.092 232.955 126.817 236.812 120.371L274.719 60.8192L279.458 68.2012L248.383 116.846ZM280.67 51.6743L301.167 19.6671C305.685 12.5605 307.062 6.99641 310.423 4.57245C311.47 3.74611 311.966 3.2503 313.398 3.2503C314.831 3.19521 315.272 4.40719 315.657 5.12335C316.814 7.60239 315.217 12.2299 310.809 19.1162L285.353 58.9461L280.67 51.6743Z" fill="white"/>
</svg>
