<svg width="43" height="24" viewBox="0 0 43 24" fill="none" xmlns="http://www.w3.org/2000/svg">
<path fill-rule="evenodd" clip-rule="evenodd" d="M0 0H10.3372L10.4193 0.909183C10.5231 2.05914 10.9377 3.96786 11.8421 5.83759C12.5032 7.20415 13.4018 8.50189 14.5885 9.47961V0H24.0797V10.0064C25.9375 9.21555 28.7774 6.80095 29.6206 0.858144L29.7423 0H42.6962L33.8904 13.2992L43 24H30.2481L24.0797 18.9186V24H23.0896C19.652 24 15.1098 23.838 10.8286 20.8114C6.54114 17.7804 2.694 12.0124 0.273814 1.22092L0 0ZM2.4904 2C4.85387 11.709 8.37589 16.6363 11.9641 19.1729C15.3477 21.5649 18.9365 21.9426 22.0996 21.993V14.7064L30.9532 22H38.6859L31.4079 13.4508L38.9897 2H31.4424C30.099 9.41737 25.6739 12.0295 23.1986 12.3064L22.0996 12.4294V2H16.5687V12.9283L15.137 12.2075C12.6908 10.976 11.0816 8.82144 10.0629 6.71553C9.24786 5.03048 8.7821 3.31906 8.56502 2H2.4904Z" fill="white"/>
</svg>
