<svg width="513" height="288" viewBox="0 0 513 288" fill="none" xmlns="http://www.w3.org/2000/svg">
<path d="M0.734375 9.83682C0.734375 4.7881 4.83333 0.695312 9.88964 0.695312H503.579C508.635 0.695312 512.734 4.78811 512.734 9.83683V278.554C512.734 283.603 508.635 287.695 503.579 287.695H9.88965C4.83333 287.695 0.734375 283.603 0.734375 278.554V9.83682Z" fill="black"/>
<path d="M282.64 143.617L233.351 173.188L232.347 115.78L282.64 143.617Z" fill="white"/>
<path d="M276.168 140.034C279.045 141.626 279.116 145.731 276.297 147.422L239.694 169.383C236.875 171.074 233.279 169.084 233.222 165.8L232.476 123.168C232.419 119.885 235.943 117.771 238.819 119.363L276.168 140.034Z" fill="black"/>
<path d="M282.82 143.917L283.341 143.604L282.81 143.31L276.338 139.728L238.989 119.056C238.988 119.056 238.987 119.055 238.986 119.055L232.517 115.474L231.987 115.181L231.997 115.787L232.126 123.174L232.872 165.806C232.872 165.81 232.872 165.814 232.872 165.818L233.001 173.194L233.011 173.8L233.531 173.488L239.874 169.683L276.477 147.722L282.82 143.917ZM238.65 119.669L275.999 140.34C278.639 141.802 278.705 145.569 276.117 147.122L239.514 169.082C236.928 170.634 233.632 168.812 233.572 165.804C233.572 165.801 233.572 165.798 233.572 165.794L232.826 123.162C232.774 120.153 236 118.212 238.64 119.664C238.644 119.665 238.647 119.667 238.65 119.669ZM278.224 145.858C278.91 144.501 278.881 142.863 278.149 141.531L281.94 143.629L278.224 145.858ZM233.614 168.249C234.448 169.52 235.884 170.315 237.405 170.348L233.69 172.576L233.614 168.249ZM236.498 118.478C234.979 118.564 233.572 119.408 232.783 120.708L232.708 116.38L236.498 118.478ZM1.08437 9.83682C1.08437 4.9819 5.02613 1.04531 9.88964 1.04531H503.579C508.443 1.04531 512.384 4.98191 512.384 9.83683V278.554C512.384 283.409 508.443 287.345 503.579 287.345H9.88965C5.02614 287.345 1.08437 283.409 1.08437 278.554V9.83682Z" stroke="white" stroke-width="0.7"/>
</svg>
