<svg width="536" height="212" viewBox="0 0 536 212" fill="none" xmlns="http://www.w3.org/2000/svg">
<path d="M523.048 207.261C520.507 207.176 517.966 206.668 515.594 205.737C513.646 204.806 511.952 203.537 510.512 201.844C509.072 199.813 507.378 197.274 505.43 194.058L440.291 92.586L480.018 30.2132C486.964 19.2958 493.063 11.9329 498.23 8.12455C503.397 4.14691 510.597 2.11577 519.745 2.2004V0.338523H433.515V2.11577C449.016 2.11577 457.74 3.97764 459.519 7.78603C461.298 11.5944 468.498 18.7034 461.722 29.2822L430.719 77.4371L386.503 8.71697C384.47 5.501 384.47 3.63912 386.503 3.04671C388.451 2.45429 395.228 2.2004 406.832 2.2004V0.338523H294.682V2.11577C309.59 2.11577 319.162 4.4008 323.397 8.97086C327.548 13.5409 329.666 20.4806 329.666 29.8747V181.702C329.666 181.702 329.157 188.303 324.668 182.887L189.563 0.338523H106.297L26.5046 0V2.28503L53.2715 2.36966L55.3045 2.28503V179.84V189.657C55.3045 200.321 45.2245 201.844 45.2245 201.844C26.2505 201.844 15.5776 189.996 15.5776 172.731C15.5776 163.337 18.627 154.62 22.2693 144.042C23.7093 139.979 25.1493 135.663 26.5893 131.008L0.5 186.695C7.95409 199.052 19.7281 212 44.4622 212C79.8691 212 85.7137 185.595 85.7137 153.436V152.505V8.71697C85.629 7.4475 85.7984 6.26267 86.3067 5.16248C86.4761 4.57006 86.8149 3.97765 87.3232 3.55449C87.7467 3.13134 88.3396 2.79281 88.9326 2.70818C90.3726 2.36966 91.8126 2.2004 93.2525 2.2004H106.212H107.568C112.904 2.2004 117.309 2.28503 120.697 2.45429V179.925C120.697 189.234 119.342 196.259 116.547 200.829C114.005 205.399 107.398 207.684 96.8102 207.684V209.461H223.784V207.684C208.876 207.684 199.304 205.399 195.069 200.829C190.918 196.259 188.8 189.319 188.8 179.925V24.2044L326.193 209.292H344.15H402.851V207.515C387.35 207.515 378.625 205.737 376.847 202.183C375.068 198.374 377.524 191.181 384.301 180.348L431.228 106.635L491.877 200.998C493.825 204.214 493.74 206.076 491.623 206.668C489.59 207.261 482.898 207.599 471.293 207.599V209.376H535.5V207.599C530.418 207.515 526.267 207.43 523.048 207.261ZM64.2833 192.027C64.1985 192.112 64.1138 192.196 63.9444 192.366L63.8597 192.45C62.335 193.804 57.0833 198.121 57.0833 189.657V2.28503H59.8786C59.8786 2.28503 60.1327 2.28503 60.6409 2.28503C63.0974 2.53892 70.4668 3.46986 70.4668 8.71697V148.781C70.5515 171.208 69.7891 186.695 64.2833 192.027ZM134.25 8.71697C134.25 8.71697 134.25 188.05 134.25 192.027C134.25 194.397 134.335 204.045 128.998 204.045C122.645 204.045 122.645 189.15 122.645 179.84V2.45429C126.203 2.45429 128.829 2.62355 130.438 3.04671C132.217 3.46986 133.318 4.14691 133.742 5.16248C134.081 6.26267 134.335 7.53214 134.25 8.71697ZM187.191 179.756C187.191 189.065 185.751 196.089 183.04 200.659C180.499 205.23 173.892 207.515 163.304 207.515H161.102C158.391 207.43 155.681 207.091 153.055 206.584C151.445 206.16 150.513 205.568 150.09 204.806C149.666 203.537 149.412 202.267 149.497 200.913V8.71697C149.412 7.4475 149.666 6.26267 150.09 5.16248C150.513 4.14691 152.462 2.45429 155.003 2.45429H172.876L187.106 21.5808V179.756H187.191ZM354.823 196.259C351.689 199.898 344.15 208.869 336.019 198.29C335.764 198.036 334.155 195.751 334.155 195.751C331.614 192.027 331.444 188.642 331.444 187.796C331.444 187.711 331.444 187.626 331.444 187.626V29.9593C331.444 20.5653 332.884 13.6255 335.595 9.05549C338.051 5.07784 343.303 2.87745 351.35 2.28503C352.79 2.28503 353.976 2.36966 355.077 2.45429C357.534 2.53892 359.99 3.04671 362.277 3.97765C364.395 4.82395 366.089 6.26267 367.36 8.12455C369.308 10.4942 371.171 12.9485 372.696 15.5721L421.486 91.4858L362.362 184.072C362.447 184.072 358.889 190.081 354.823 196.259ZM382.352 179.502C375.661 190.081 371.595 198.459 366.428 202.606C360.16 207.007 358.042 201.506 357.957 199.39C357.788 195.243 358.635 194.82 364.564 184.918L422.842 93.4323L430.126 104.773L382.352 179.502ZM431.99 79.3836L463.5 30.2132C470.446 19.2958 472.564 10.7481 477.731 7.02435C479.34 5.75489 480.103 4.99321 482.305 4.99321C484.507 4.90858 485.185 6.77046 485.778 7.87066C487.557 11.679 485.1 18.788 478.324 29.3669L439.19 90.5549L431.99 79.3836Z" fill="white"/>
</svg>
