<svg width="390" height="28" viewBox="0 0 390 28" fill="none" xmlns="http://www.w3.org/2000/svg">
<path fill-rule="evenodd" clip-rule="evenodd" d="M-9.6806e-10 26.9805L-6.12479e-07 12.9908L390 13.0128L390 27.0027L389.053 27.0027C389.053 19.8283 383.538 14.012 376.736 14.012L13.2639 13.9901C6.46171 13.9901 0.947423 19.8062 0.947423 26.9805L-9.6806e-10 26.9805Z" fill="black"/>
<path fill-rule="evenodd" clip-rule="evenodd" d="M-5.68808e-07 13.9899L-1.18033e-06 -4.00543e-05L0.947421 -4.00957e-05C0.947422 7.17435 6.46171 12.9906 13.2639 12.9906L376.736 13.0128C383.538 13.0128 389.053 7.19652 389.053 0.0221311L390 0.0221311L390 14.012L-5.68808e-07 13.9899Z" fill="black"/>
</svg>
