<svg width="357" height="201" viewBox="0 0 357 201" fill="none" xmlns="http://www.w3.org/2000/svg">
<path d="M0.835938 7.0657C0.835938 3.54743 3.68599 0.695312 7.20171 0.695312H350.47C353.986 0.695312 356.836 3.54744 356.836 7.06571V194.325C356.836 197.843 353.986 200.695 350.47 200.695H7.20171C3.686 200.695 0.835938 197.843 0.835938 194.325V7.0657Z" fill="black"/>
<path d="M196.849 100.292L162.577 120.899L161.879 80.894L196.849 100.292Z" fill="white"/>
<path d="M192.348 97.7956C194.349 98.9051 194.398 101.765 192.438 102.944L166.987 118.247C165.027 119.426 162.527 118.039 162.487 115.751L161.969 86.0423C161.929 83.7542 164.379 82.2808 166.379 83.3903L192.348 97.7956Z" fill="black"/>
<path d="M197.029 100.592L197.548 100.28L197.018 99.9859L192.518 97.4895L166.549 83.0843C166.548 83.0837 166.547 83.0832 166.546 83.0827L162.049 80.5879L161.519 80.2938L161.529 80.9001L161.619 86.0442C161.619 86.0456 161.619 86.047 161.619 86.0484L162.137 115.757C162.137 115.76 162.137 115.763 162.137 115.767L162.227 120.906L162.238 121.512L162.757 121.199L167.168 118.547L192.619 103.244L197.029 100.592ZM166.21 83.6964L192.179 98.1017C193.943 99.0802 193.987 101.602 192.26 102.643C192.259 102.643 192.258 102.644 192.258 102.644L166.807 117.947C165.081 118.986 162.878 117.767 162.837 115.753C162.837 115.751 162.837 115.748 162.837 115.745L162.319 86.0362C162.319 86.035 162.319 86.0337 162.319 86.0324C162.286 84.0164 164.445 82.7197 166.207 83.695C166.208 83.6954 166.209 83.6959 166.21 83.6964ZM194.011 101.59C194.316 100.787 194.3 99.8854 193.967 99.0939L196.149 100.304L194.011 101.59ZM162.873 117.791C163.415 118.457 164.203 118.894 165.055 119.001L162.916 120.287L162.873 117.791ZM164.422 82.7045C163.574 82.8414 162.802 83.3059 162.283 83.99L162.24 81.4942L164.422 82.7045ZM7.20171 1.04531H350.47C353.792 1.04531 356.486 3.7405 356.486 7.06571V194.325C356.486 197.65 353.792 200.345 350.47 200.345H7.20171C3.87953 200.345 1.18594 197.65 1.18594 194.325V7.0657C1.18594 3.74049 3.87953 1.04531 7.20171 1.04531Z" stroke="white" stroke-width="0.7"/>
</svg>
