<svg width="630" height="242" viewBox="0 0 630 242" fill="none" xmlns="http://www.w3.org/2000/svg">
<path d="M402.76 236.89L404.332 238.949H401.32V236.905C401.805 236.905 402.29 236.905 402.76 236.89Z" fill="white"/>
<path d="M417.332 0.821289V2.86557C415.713 2.86557 414.18 2.911 412.717 3.00186C409.9 2.911 406.568 2.86557 402.719 2.86557V0.821289H417.332Z" fill="white"/>
<path d="M614.601 236.565C611.6 236.438 608.637 235.866 605.816 234.869C603.521 233.823 601.486 232.313 599.847 230.44C598.204 228.176 596.212 225.228 593.87 221.596L517.275 105.935L564.002 34.8397C572.2 22.3696 579.345 13.9779 585.437 9.66471C591.531 5.12943 599.964 2.86305 610.736 2.86557V0.821289H509.256V2.86557C527.531 2.86557 537.721 5.01838 539.828 9.32399C541.941 13.6321 550.421 21.8017 542.457 33.8175L506.002 88.6876L454.026 10.3461C451.687 6.71939 451.687 4.56406 454.026 3.88014C456.365 3.20629 464.329 2.8681 477.917 2.86557V0.821289H417.336V2.86557C415.717 2.86557 414.183 2.911 412.72 3.00186C414.363 3.05486 415.834 3.123 417.133 3.20629C420.024 3.29683 422.877 3.87062 425.566 4.90228C427.999 5.88521 430.079 7.54202 431.543 9.66471C433.882 12.3301 435.996 15.1735 437.864 18.1674L495.222 104.648L496.724 106.912L505.329 119.882L449.105 204.932C440.907 217.402 436.046 227.256 429.725 231.792C425.986 234.442 418.877 234.922 413.198 235.944C409.752 236.538 406.261 236.855 402.762 236.891L404.334 238.95H473.349V236.906C455.082 236.906 444.894 234.864 442.784 230.78C440.672 226.472 443.6 218.197 451.57 205.954L506.729 121.926L578.06 229.425C580.399 233.052 580.281 235.205 577.708 235.884C575.368 236.565 567.405 236.906 553.816 236.906V238.95H629.363V236.906C623.269 236.906 618.348 236.792 614.601 236.565ZM507.473 90.906L544.569 34.8397C552.768 22.3696 555.209 12.7008 561.303 8.39271C563.219 6.96171 564.041 6.12128 566.638 6.04557C569.243 5.96985 570.049 8.04442 570.682 9.32399C572.787 13.6321 569.858 21.7966 561.897 33.8175L515.867 103.558L507.473 90.906Z" fill="white"/>
<path d="M428.159 211.18C421.171 222.398 420.207 222.887 420.423 227.648C420.531 230.045 422.997 236.257 430.419 231.266C430.45 233.255 424.698 237.847 417.793 238.468C414.434 238.77 405.863 237.92 405.863 237.92C411.441 233.43 425.695 210.158 425.695 210.158L495.22 104.647L496.722 106.911L428.159 211.18Z" fill="white"/>
<path d="M74.9913 219.256C68.4739 225.398 74.9913 219.264 74.9835 219.264C74.6785 219.567 66.5894 227.502 66.5894 216.493V3.01667L69.8672 3.04695C69.8672 3.04695 70.1959 3.06209 70.7435 3.09995C73.5831 3.28167 82.298 4.31895 82.298 10.3458L82.3371 169.921C82.3371 195.528 81.5087 213.115 74.9913 219.256ZM157.274 223.358C157.274 224.736 157.808 232.128 154.786 232.836C150.58 233.822 143.576 215.925 143.576 205.272V3.20595C147.792 3.20595 150.835 3.43057 152.705 3.87981C154.817 4.33409 156.108 5.12909 156.577 6.26481C157.114 7.55989 157.351 8.95264 157.274 10.3458V223.358ZM219.513 205.272C219.513 215.925 217.873 223.862 214.593 229.084C211.55 234.301 203.821 236.908 191.406 236.905H188.902C185.717 236.795 182.545 236.454 179.413 235.883C177.535 235.429 176.37 234.755 175.9 233.847C175.383 232.428 175.144 230.928 175.196 229.425V10.3458C175.117 8.95184 175.357 7.55813 175.9 6.26481C176.37 5.12909 178.722 3.20595 181.674 3.20595C184.626 3.20595 195.18 3.20595 202.738 3.20595L219.513 24.9738V205.272ZM346.011 0.820954V2.86524C363.574 2.86524 374.816 5.47233 379.736 10.6865C384.657 15.9032 387.119 23.8406 387.121 34.4986V216.493L222.322 0.820954H124.386L30.5097 0.442383V3.01667L62.0364 3.09238L64.4616 3.01667L64.485 205.272V216.493C64.485 228.645 52.6566 230.379 52.6566 230.379C30.3688 230.379 17.7661 216.909 17.7661 197.171C17.7661 186.518 21.3176 176.523 25.6047 164.447C27.2474 159.836 28.9919 154.922 30.6897 149.554L0 213.146C8.72265 227.244 22.6085 241.971 51.6866 241.971C93.3675 241.971 100.15 211.897 100.15 175.244V174.206L100.22 10.3458C100.139 8.95243 100.377 7.55886 100.917 6.26481C101.147 5.57839 101.556 4.96083 102.104 4.47153C102.652 3.98223 103.321 3.63765 104.046 3.47095C105.713 3.0945 107.42 2.91149 109.131 2.92581L124.386 2.90309V2.86524H126.005C132.326 2.86524 137.479 2.946 141.463 3.10752V205.272C141.463 215.925 139.823 223.862 136.543 229.084C133.5 234.301 125.77 236.908 113.355 236.905V238.95H262.736V236.905C245.165 236.905 233.921 234.298 229.003 229.084C224.082 223.867 221.623 215.93 221.626 205.272V28.0326L383.257 238.95H404.332L393.161 224.352L389.226 219.219V34.4986C389.226 23.8381 390.866 15.9007 394.146 10.6865C396.986 6.15877 403.177 3.59711 412.718 3.00152C414.181 2.91067 415.714 2.86524 417.334 2.86524V0.820954H346.011Z" fill="white"/>
<path d="M416.789 223.989C413.036 228.259 403.823 238.95 393.92 225.342L383.215 234.021L399.708 237.239L406.488 237.921L412.486 236.891L416.789 223.989Z" fill="white"/>
<path d="M389.229 214.146C389.229 214.146 388.966 218.529 392.461 223.436H390.155L384.418 219.699L387.417 218.437L389.229 214.146Z" fill="white"/>
<path d="M387.119 207.457C387.119 207.457 386.476 215.017 381.272 208.84L376.785 216.48L382.196 218.79L385.521 221.023L387.803 218.499L388.434 212.757L387.119 207.457Z" fill="white"/>
</svg>
